<svg width="337" height="53" viewBox="0 0 337 53" fill="none" xmlns="http://www.w3.org/2000/svg">
<path d="M46.5115 0.927795C58.7448 1.7196 69.9865 3.93577 79.6264 6.76278C91.0758 10.1584 99.5513 13.7883 108.502 17.3894C116.184 20.4767 123.89 23.5606 134.215 26.4072C136.642 27.0701 139.297 27.6972 142.142 28.2798C151.65 30.2101 161.21 30.6155 169.15 29.363C174.949 28.3987 180.398 27.3467 185.473 26.2118C195.577 24.0575 205.542 21.8692 215.622 19.7281C219.459 18.8935 223.89 18.1959 228.822 17.65C238.499 16.6142 248.571 17.5191 258.116 19.9729C269.759 22.9444 276.975 26.2893 285.642 29.5148C291.444 31.6716 297.196 33.8501 305.098 35.7359C316.941 38.5418 327.57 39.2496 340.002 38.0695C349.22 37.1776 356.036 35.7234 362.411 34.1413C369.063 32.4336 375.177 30.6198 380.728 28.7078C380.941 28.5953 381.273 28.5005 381.703 28.429C382.132 28.3575 382.652 28.3108 383.23 28.2917C383.808 28.2726 384.432 28.2815 385.066 28.3178C385.7 28.3541 386.33 28.4172 386.919 28.5032C387.547 28.58 388.13 28.6812 388.632 28.8002C389.134 28.9193 389.544 29.0536 389.835 29.1947C390.126 29.3358 390.293 29.4805 390.324 29.6198C390.356 29.7591 390.251 29.8898 390.017 30.0037C387.475 31.9827 384.596 33.9233 381.38 35.8256C375.44 39.5015 367.924 42.9698 358.909 46.1952C352.396 48.4481 345.252 50.5758 334.861 52.0319C331.398 52.5955 327.017 52.8958 322.165 52.9021C315.423 52.8478 309.874 51.918 304.862 50.7253C298.225 49.0485 292.505 47.2306 287.885 45.3295C279.177 42.0021 271.966 38.5831 263.186 35.261C259.028 33.6819 254.823 32.0899 248.375 30.7893C243.071 29.7216 238.99 29.5021 233.753 29.962C227.531 30.6014 222.202 31.5156 218.003 32.664C209.806 34.6044 202.915 36.8527 195.114 38.8932C188.987 40.5867 181.231 41.9454 172.178 42.9113C164.719 43.6889 156.419 43.9306 146.581 43.0755C138.367 42.31 130.88 40.9681 125.522 39.301C116.715 36.781 110.619 34.0444 104.737 31.3118C94.1399 26.448 84.5639 21.5362 73.1592 16.7194C67.4041 14.1458 60.4145 11.6479 52.3381 9.27861C50.032 8.62203 47.4415 8.0079 44.6219 7.4494C36.4408 5.85308 28.453 5.65859 22.4551 6.90281C16.4571 8.14704 13.1742 9.86471 10.3137 11.6395C9.37544 12.2387 8.55442 12.8554 7.82865 13.4634C7.68155 13.6487 7.17693 13.7918 6.42386 13.8619C5.67079 13.932 4.72977 13.9234 3.80423 13.838C3.34355 13.8123 2.88507 13.7668 2.45709 13.7043C2.02912 13.6419 1.64075 13.5638 1.31598 13.4748C0.991209 13.3859 0.736937 13.2881 0.568873 13.1874C0.40081 13.0867 0.322524 12.9852 0.338853 12.8893C0.60654 8.75355 2.73153 4.81246 14.5816 2.01686C21.5044 0.380959 32.2071 -0.0476779 46.5115 0.927795Z" fill="#29ABE3"/>
</svg>
