<svg width="146" height="61" viewBox="0 0 146 61" fill="none" xmlns="http://www.w3.org/2000/svg">
<path d="M-198.489 2.92779C-186.255 3.7196 -175.014 5.93577 -165.374 8.76278C-153.924 12.1584 -145.449 15.7883 -136.498 19.3894C-128.816 22.4767 -121.11 25.5606 -110.785 28.4072C-108.358 29.0701 -105.703 29.6972 -102.858 30.2798C-93.3496 32.2101 -83.7896 32.6155 -75.8502 31.363C-70.0513 30.3987 -64.6021 29.3467 -59.5272 28.2118C-49.4228 26.0575 -39.4583 23.8692 -29.3784 21.7281C-25.5412 20.8935 -21.1098 20.1959 -16.1783 19.65C-6.50132 18.6142 3.57072 19.5191 13.1165 21.9729C24.759 24.9444 31.9747 28.2893 40.6421 31.5148C46.4436 33.6716 52.1963 35.8501 60.0983 37.7359C71.9409 40.5418 82.5701 41.2496 95.002 40.0695C104.22 39.1776 111.036 37.7234 117.411 36.1413C124.063 34.4336 130.177 32.6198 135.728 30.7078C135.941 30.5953 136.273 30.5005 136.703 30.429C137.132 30.3575 137.652 30.3108 138.23 30.2917C138.808 30.2726 139.432 30.2815 140.066 30.3178C140.7 30.3541 141.33 30.4172 141.919 30.5032C142.547 30.58 143.13 30.6812 143.632 30.8002C144.134 30.9193 144.544 31.0536 144.835 31.1947C145.126 31.3358 145.293 31.4805 145.324 31.6198C145.356 31.7591 145.251 31.8898 145.017 32.0037C142.475 33.9827 139.596 35.9233 136.38 37.8256C130.44 41.5015 122.924 44.9698 113.909 48.1952C107.396 50.4481 100.252 52.5758 89.8614 54.0319C86.3975 54.5955 82.0174 54.8958 77.1655 54.9021C70.4231 54.8478 64.8736 53.918 59.8618 52.7253C53.2245 51.0485 47.5048 49.2306 42.8849 47.3295C34.1768 44.0021 26.9658 40.5831 18.1864 37.261C14.028 35.6819 9.82319 34.0899 3.37455 32.7893C-1.92936 31.7216 -6.00999 31.5021 -11.2471 31.962C-17.4686 32.6014 -22.7976 33.5156 -26.9966 34.664C-35.1936 36.6044 -42.085 38.8527 -49.886 40.8932C-56.0134 42.5867 -63.7689 43.9454 -72.8216 44.9113C-80.2806 45.6889 -88.5806 45.9306 -98.4191 45.0755C-106.633 44.31 -114.12 42.9681 -119.478 41.301C-128.285 38.781 -134.381 36.0444 -140.263 33.3118C-150.86 28.448 -160.436 23.5362 -171.841 18.7194C-177.596 16.1458 -184.586 13.6479 -192.662 11.2786C-194.968 10.622 -197.559 10.0079 -200.378 9.4494C-208.559 7.85308 -216.547 7.65859 -222.545 8.90281C-228.543 10.147 -231.826 11.8647 -234.686 13.6395C-235.625 14.2387 -236.446 14.8554 -237.171 15.4634C-237.318 15.6487 -237.823 15.7918 -238.576 15.8619C-239.329 15.932 -240.27 15.9234 -241.196 15.838C-241.656 15.8123 -242.115 15.7668 -242.543 15.7043C-242.971 15.6419 -243.359 15.5638 -243.684 15.4748C-244.009 15.3859 -244.263 15.2881 -244.431 15.1874C-244.599 15.0867 -244.677 14.9852 -244.661 14.8893C-244.393 10.7536 -242.268 6.81246 -230.418 4.01686C-223.496 2.38096 -212.793 1.95232 -198.489 2.92779Z" fill="#29ABE3"/>
</svg>
