<svg width="921" height="762" viewBox="0 0 921 762" fill="none" xmlns="http://www.w3.org/2000/svg">
<path d="M224.1 67.5956C248.866 85.8841 266.292 110.318 277.915 136.018C291.584 166.737 297.704 195.197 305 224.062C311.273 248.819 317.613 273.586 330.713 300.183C333.814 306.404 337.557 312.705 341.889 319C356.428 339.953 376.546 353.151 398.947 355.969C415.486 357.774 431.55 358.723 447.066 358.811C477.582 359.526 507.905 359.905 538.318 360.66C549.966 360.847 562.464 362.427 575.546 365.367C601.092 371.317 620.575 387.671 633.324 411.349C648.948 440.119 653.246 465.653 661.248 492.264C666.611 510.065 671.787 527.92 682.861 546.776C699.53 574.93 720.977 590.922 753.255 599.338C777.249 605.491 797.838 605.969 817.889 605.278C839.017 604.265 859.31 602.084 878.683 598.744C879.567 598.415 880.655 598.315 881.881 598.449C883.107 598.583 884.446 598.948 885.819 599.522C887.191 600.097 888.569 600.869 889.869 601.792C891.169 602.716 892.365 603.772 893.385 604.897C894.526 606.022 895.48 607.219 896.187 608.413C896.893 609.607 897.336 610.771 897.488 611.833C897.64 612.895 897.497 613.831 897.069 614.581C896.641 615.331 895.936 615.879 895.001 616.191C882.175 623.374 868.726 629.968 854.656 635.975C828.085 647.901 798.702 656.93 766.806 662.97C744.04 666.937 720.299 669.529 691.638 664.903C681.803 663.762 670.845 660.205 659.875 654.593C644.856 646.471 635.666 635.251 628.63 623.309C619.661 606.996 613.268 591.026 609.655 575.91C601.926 548.73 597.904 522.822 589.996 495.586C586.27 482.657 582.485 469.607 572.594 455.441C564.452 443.8 556.031 437.928 542.567 434.192C526.239 430.231 510.94 428.717 497.351 429.716C471.905 430.124 448.302 433.627 423.391 435.008C403.498 436.558 381.132 434.498 357.246 428.916C337.631 424.224 318.037 415.807 298.901 399.98C283.109 386.502 271.024 370.916 264.908 356.141C254.063 332.982 250.113 311.869 246.63 291.023C240.143 253.772 236.132 217.464 227.655 179.514C223.889 159.631 217.067 138.701 207.332 117.165C204.481 111.118 200.835 104.957 196.474 98.8152C183.734 81.1182 166.407 70.8294 148.417 70.2275C130.426 69.6256 116.866 74.6082 104.053 80.3748C99.7899 82.3537 95.7282 84.5587 91.9126 86.8298C90.917 87.6081 89.2655 87.7546 87.3152 87.2378C85.3649 86.721 83.2725 85.5823 81.4901 84.0679C80.5429 83.4001 79.6714 82.6336 78.9295 81.8157C78.1876 80.9977 77.5911 80.1457 77.1768 79.3123C76.7626 78.4789 76.5393 77.6818 76.5209 76.9702C76.5025 76.2586 76.6893 75.6477 77.0698 75.1751C92.4894 54.2943 111.402 36.5715 148.155 36.0317C169.635 35.7024 195.32 45.9567 224.1 67.5956Z" fill="#29ABE3"/>
</svg>
