<svg width="458" height="707" viewBox="0 0 458 707" fill="none" xmlns="http://www.w3.org/2000/svg">
<path d="M125.73 54.5211C138.619 76.8491 143.015 101.9 142.148 126.204C140.928 155.185 134.439 180.038 128.749 205.577C123.883 227.486 119.066 249.424 119.045 274.903C119.071 280.873 119.59 287.104 120.593 293.51C124.032 314.869 135.172 331.668 152.376 340.78C165.189 347.284 177.959 352.953 190.628 357.759C215.327 367.649 240.002 377.208 264.601 387.098C274.062 390.804 283.657 395.894 293.182 402.261C311.695 414.861 321.04 434.015 321.911 457.029C323.079 485.033 316.282 506.967 312.081 530.901C309.28 546.914 306.303 562.914 307.751 581.523C310.024 609.348 321.124 628.809 344.153 645.455C361.314 657.746 377.98 664.415 394.677 669.976C412.386 675.606 429.883 680.037 447.097 683.251C447.953 683.255 448.884 683.506 449.834 683.988C450.784 684.47 451.733 685.174 452.625 686.057C453.517 686.94 454.333 687.984 455.024 689.126C455.715 690.269 456.268 691.487 456.649 692.707C457.129 693.963 457.426 695.221 457.522 696.401C457.618 697.581 457.51 698.657 457.205 699.561C456.9 700.464 456.406 701.177 455.752 701.652C455.098 702.127 454.3 702.355 453.408 702.321C440.003 704.208 426.327 705.431 412.378 705.988C385.802 707.511 358.095 705.837 329.537 700.982C309.293 697.239 288.806 692.088 267.207 679.605C259.615 675.683 252.079 669.466 245.364 661.586C236.349 650.443 233.357 638.577 232.422 626.785C231.669 610.872 232.887 596.024 236.036 582.713C240.691 558.403 247.866 536.251 252.396 511.84C254.569 500.261 256.743 488.567 254.368 474.108C252.405 462.221 247.882 454.909 238.367 447.783C226.598 439.601 214.683 433.709 203.152 430.37C182.152 422.934 161.409 418.561 140.453 412.074C123.539 407.256 106.057 398.767 88.754 386.97C74.5889 377.194 61.946 364.417 52.6726 345.795C45.188 330.09 41.5898 313.814 42.5521 300.016C43.0299 278.002 48.3268 259.745 53.8975 241.845C63.6381 209.781 75.0253 179.233 83.4181 145.996C88.3687 128.789 91.2396 109.802 91.9702 89.4382C92.0791 83.6842 91.5836 77.5963 90.4944 71.3049C87.2129 53.1242 77.1832 39.5272 62.6953 33.5512C48.2074 27.5751 35.0904 27.4611 22.2694 28.2087C17.9787 28.5059 13.7619 29.0473 9.7199 29.7172C8.59021 30.0419 7.17875 29.6563 5.79064 28.6438C4.40252 27.6312 3.14926 26.073 2.30177 24.306C1.79593 23.4777 1.39205 22.5927 1.11509 21.7057C0.838123 20.8187 0.693959 19.9485 0.691506 19.149C0.689053 18.3495 0.828361 17.6376 1.10082 17.0572C1.37328 16.4769 1.77311 16.0405 2.2756 15.7749C23.3389 3.61612 45.9865 -4.92611 76.2984 5.85327C94.02 12.1422 110.908 28.2618 125.73 54.5211Z" fill="#1B375A"/>
</svg>
