<svg width="25" height="25" viewBox="0 0 25 25" fill="none" xmlns="http://www.w3.org/2000/svg">
<mask id="mask0_484_582" style="mask-type:luminance" maskUnits="userSpaceOnUse" x="0" y="0" width="25" height="25">
<path d="M12.5 25C19.4036 25 25 19.4036 25 12.5C25 5.59644 19.4036 0 12.5 0C5.59644 0 0 5.59644 0 12.5C0 19.4036 5.59644 25 12.5 25Z" fill="white"/>
</mask>
<g mask="url(#mask0_484_582)">
<path d="M12.5 25C19.4036 25 25 19.4036 25 12.5C25 5.59644 19.4036 0 12.5 0C5.59644 0 0 5.59644 0 12.5C0 19.4036 5.59644 25 12.5 25Z" fill="white"/>
<path d="M-0.0776705 18.6177L0.344158 21.2024C0.104765 20.3747 -0.0192827 19.4945 -0.0776705 18.6177Z" fill="#7BE4F7" stroke="#1B375A" stroke-width="0.5"/>
<path d="M2.3998 24.4202L2.39976 24.4202C0.569052 23.0125 0.034652 20.6702 -0.0922648 18.3757C-0.113995 17.9011 -0.112357 17.4257 -0.0873632 16.9513C1.39344 14.1964 4.16927 12.1741 7.2355 11.4295L7.17651 11.1865L7.23551 11.4295C10.586 10.6158 13.9355 11.7283 17.293 12.9001L17.2932 12.9001C17.3427 12.9174 17.3915 12.9341 17.4398 12.9506C15.5953 13.9108 14.3193 15.8782 14.1496 17.9521C13.9622 20.243 15.0811 22.559 16.9096 23.9342L16.9114 23.9355C17.7017 24.5189 18.5965 24.9402 19.5443 25.1783C16.2883 26.6195 12.5778 27.1101 9.05131 26.7618C6.73966 26.5308 4.23515 25.8322 2.3998 24.4202Z" fill="#4DC5F0" stroke="#1B375A" stroke-width="0.5"/>
<path d="M2.35472 20.9094L2.35484 20.9092C4.76998 16.0692 9.46907 12.8713 14.6938 12.0355C12.2035 11.2815 9.71721 10.8278 7.23519 11.4294L2.35472 20.9094ZM2.35472 20.9094C1.9668 21.689 1.63051 22.493 1.34797 23.3162M2.35472 20.9094L1.34797 23.3162M1.34797 23.3162C0.355707 21.9394 0.0129472 20.1379 -0.0846437 18.3738C-0.108869 17.8997 -0.109771 17.4247 -0.0873493 16.9505C1.39352 14.196 4.16912 12.174 7.23508 11.4294L1.34797 23.3162Z" fill="#2EBDF0" stroke="#1B375A" stroke-width="0.5"/>
<path d="M9.12867 20.7395L9.12864 20.7396C8.35459 22.5871 7.88645 24.7429 8.48697 26.7023C6.3378 26.421 4.08648 25.7272 2.399 24.4293C2.1507 24.2375 1.92065 24.0232 1.71175 23.7893C2.00676 22.8817 2.36832 21.9971 2.79353 21.1426C5.29815 16.1312 10.3301 12.9277 15.8227 12.3993C16.1968 12.523 16.5705 12.651 16.9443 12.7808C15.3456 13.3832 13.8851 14.3088 12.6555 15.5027C11.123 16.9727 9.9465 18.7896 9.12867 20.7395Z" fill="#16ABE0" stroke="#1B375A" stroke-width="0.5"/>
<path d="M0.0913423 13.4379L0.0913906 13.4407C0.0959577 14.179 0.041757 14.9147 -0.011568 15.6386C-0.0187805 15.7365 -0.025977 15.8342 -0.0330099 15.9316C-0.0923656 16.7541 -0.140428 17.5628 -0.0958219 18.3713C-0.0138504 19.8545 0.239685 21.3613 0.906154 22.622C1.24122 19.6962 2.09355 16.8169 3.91332 14.7577C4.79854 13.7554 6.0106 13.0432 7.44719 13.328L7.44935 13.3285L7.44935 13.3285C7.66634 13.3735 7.88414 13.4446 8.085 13.5102C8.15288 13.5324 8.21882 13.5539 8.28215 13.5736C8.5445 13.6551 8.78209 13.7127 9.01956 13.7083L9.01965 13.7083C9.50117 13.6997 9.91811 13.4267 10.4055 13.0868C10.4242 13.0738 10.4431 13.0606 10.462 13.0473C10.9101 12.7342 11.4259 12.3737 12.0438 12.325L12.0447 12.3249C12.8892 12.2615 13.5878 12.7396 14.2127 13.1672C14.2254 13.1758 14.2381 13.1845 14.2508 13.1932C14.9152 13.6475 15.5185 14.0492 16.2512 14.033L16.2517 14.033C16.7357 14.0233 17.2011 13.846 17.7143 13.6505C17.749 13.6373 17.7839 13.624 17.819 13.6106C18.3551 13.4072 18.9467 13.196 19.5795 13.2596L19.5796 13.2596C19.8645 13.2883 20.1304 13.3707 20.3772 13.4607C20.4805 13.4984 20.576 13.5355 20.6687 13.5716C20.8097 13.6264 20.9442 13.6787 21.0896 13.7265C21.3256 13.8041 21.5811 13.8698 21.8092 13.8761C22.0374 13.8825 22.197 13.8293 22.2982 13.7164L22.2983 13.7162C22.3116 13.7013 22.3369 13.6602 22.3549 13.572C22.3724 13.4863 22.3797 13.3716 22.3712 13.2285C22.3541 12.9423 22.2752 12.5684 22.1203 12.1374C21.8112 11.2769 21.2098 10.2168 20.2514 9.21742C18.342 7.22638 15.0056 5.46608 9.71267 6.03225L0.0913423 13.4379ZM0.0913423 13.4379C0.0873198 13.206 0.0625047 12.975 0.0172291 12.7477M0.0913423 13.4379L0.0172291 12.7477M0.0172291 12.7477C1.96852 9.15689 5.5877 6.47487 9.71259 6.03226L0.0172291 12.7477Z" fill="#6ACDF0" stroke="#1B375A" stroke-width="0.5"/>
<path d="M19.2457 9.93956L19.2457 9.93953C18.5097 10.6774 17.5074 10.7895 16.5519 10.6519C15.5955 10.5142 14.6371 10.1207 13.9242 9.78268C12.8701 9.28326 11.5952 9.39777 10.7535 10.2126L10.7535 10.2126C10.5673 10.3928 10.4105 10.591 10.2433 10.8023C10.1527 10.9168 10.059 11.0352 9.95593 11.1567C9.67806 11.4842 9.34917 11.8074 8.89464 11.9673L8.8933 11.9678C8.50985 12.1002 8.12012 12.0877 7.75885 12.0452C7.62072 12.029 7.48066 12.0075 7.34568 11.9868C7.30483 11.9806 7.26445 11.9744 7.22473 11.9684C7.05036 11.9423 6.88394 11.9199 6.72144 11.9104L6.72121 11.9104C5.4366 11.8336 4.20036 12.5883 3.2588 13.571C2.78876 14.0616 2.37486 14.6045 1.95783 15.1637C1.91704 15.2184 1.87621 15.2732 1.83528 15.3282C1.46058 15.8317 1.07841 16.3453 0.654907 16.8247L19.2457 9.93956ZM19.2457 9.93956L19.2489 9.93618M19.2457 9.93956L19.2489 9.93618M19.2489 9.93618C19.5479 9.62499 19.7581 9.24311 19.8625 8.83005C20.9266 9.82072 21.6177 10.9089 22.0013 11.8257C22.2131 12.3318 22.3284 12.779 22.3638 13.1232C22.3816 13.2955 22.3786 13.4351 22.3614 13.5401C22.3437 13.6486 22.3144 13.699 22.2984 13.7169C22.1973 13.8297 22.0377 13.8827 21.8098 13.8763C21.5816 13.87 21.3262 13.8043 21.0901 13.7267C20.9448 13.6789 20.8102 13.6266 20.6692 13.5718C20.5765 13.5357 20.481 13.4986 20.3778 13.4609C20.1309 13.3709 19.8651 13.2885 19.5802 13.2598L19.5801 13.2598C18.9473 13.1962 18.3556 13.4075 17.8196 13.6108C17.7844 13.6242 17.7495 13.6375 17.7148 13.6507C17.2017 13.8462 16.7362 14.0235 16.2522 14.0332L16.2517 14.0332C15.519 14.0494 14.9158 13.6478 14.2513 13.1934C14.2387 13.1847 14.226 13.1761 14.2133 13.1674C13.5884 12.7398 12.8898 12.2617 12.0453 12.3251L12.0443 12.3252C11.4264 12.3739 10.9107 12.7344 10.4626 13.0475C10.4436 13.0608 10.4248 13.074 10.406 13.087C9.91866 13.4269 9.50172 13.6999 9.0202 13.7085L9.02011 13.7085C8.78264 13.7129 8.54505 13.6554 8.2827 13.5738C8.21937 13.5541 8.15343 13.5326 8.08556 13.5104C7.88469 13.4448 7.6669 13.3737 7.4499 13.3287L7.4499 13.3287M19.2489 9.93618L7.4499 13.3287M7.4499 13.3287L7.44774 13.3282C6.01117 13.0434 4.79913 13.7556 3.91392 14.7578C2.09407 16.8171 1.24173 19.6965 0.906682 22.6233M7.4499 13.3287L0.906682 22.6233M0.906682 22.6233C0.240491 21.3631 -0.0131023 19.857 -0.0951759 18.3744C-0.105864 18.1149 -0.107224 17.8539 -0.107397 17.5887C0.162162 17.3501 0.416687 17.0951 0.6547 16.825L0.906682 22.6233Z" fill="#DAE6F1" stroke="#1B375A" stroke-width="0.5"/>
</g>
</svg>
