<svg width="390" height="844" viewBox="0 0 390 844" fill="none" xmlns="http://www.w3.org/2000/svg">
<g clip-path="url(#clip0_385_562)">
<rect width="390" height="844" fill="white"/>
<path d="M281.73 -197.479C294.619 -175.151 299.015 -150.1 298.148 -125.796C296.928 -96.8146 290.439 -71.9617 284.749 -46.4226C279.883 -24.5136 275.066 -2.57608 275.045 22.9026C275.071 28.873 275.59 35.1038 276.593 41.5102C280.032 62.8694 291.172 79.6684 308.376 88.78C321.189 95.2845 333.959 100.953 346.628 105.759C371.327 115.649 396.002 125.208 420.601 135.098C430.062 138.804 439.657 143.894 449.182 150.261C467.695 162.861 477.04 182.015 477.911 205.029C479.079 233.033 472.282 254.967 468.081 278.901C465.28 294.914 462.303 310.914 463.751 329.523C466.024 357.348 477.124 376.809 500.153 393.455C517.314 405.746 533.98 412.415 550.677 417.976C568.386 423.606 585.883 428.037 603.097 431.251C603.953 431.255 604.884 431.506 605.834 431.988C606.784 432.47 607.733 433.174 608.625 434.057C609.517 434.94 610.333 435.984 611.024 437.126C611.715 438.269 612.268 439.487 612.649 440.707C613.129 441.963 613.426 443.221 613.522 444.401C613.618 445.581 613.51 446.657 613.205 447.561C612.9 448.464 612.406 449.177 611.752 449.652C611.098 450.127 610.3 450.355 609.408 450.321C596.003 452.208 582.327 453.431 568.378 453.988C541.802 455.511 514.095 453.837 485.537 448.982C465.293 445.239 444.806 440.088 423.207 427.605C415.615 423.683 408.079 417.466 401.364 409.586C392.349 398.443 389.357 386.577 388.422 374.785C387.669 358.872 388.887 344.024 392.036 330.713C396.691 306.403 403.866 284.251 408.396 259.84C410.569 248.261 412.743 236.567 410.368 222.108C408.405 210.221 403.882 202.909 394.367 195.783C382.598 187.601 370.683 181.709 359.152 178.37C338.152 170.934 317.409 166.561 296.453 160.074C279.539 155.256 262.057 146.767 244.754 134.97C230.589 125.194 217.946 112.417 208.673 93.795C201.188 78.0903 197.59 61.8144 198.552 48.0158C199.03 26.0018 204.327 7.74452 209.898 -10.1546C219.638 -42.2189 231.025 -72.7674 239.418 -106.004C244.369 -123.211 247.24 -142.198 247.97 -162.562C248.079 -168.316 247.584 -174.404 246.494 -180.695C243.213 -198.876 233.183 -212.473 218.695 -218.449C204.207 -224.425 191.09 -224.539 178.269 -223.791C173.979 -223.494 169.762 -222.953 165.72 -222.283C164.59 -221.958 163.179 -222.344 161.791 -223.356C160.403 -224.369 159.149 -225.927 158.302 -227.694C157.796 -228.522 157.392 -229.407 157.115 -230.294C156.838 -231.181 156.694 -232.051 156.692 -232.851C156.689 -233.651 156.828 -234.362 157.101 -234.943C157.373 -235.523 157.773 -235.96 158.276 -236.225C179.339 -248.384 201.987 -256.926 232.298 -246.147C250.02 -239.858 266.908 -223.738 281.73 -197.479Z" fill="#1B375A"/>
<path d="M55.1004 527.596C79.8662 545.884 97.292 570.318 108.915 596.018C122.584 626.737 128.704 655.197 136 684.062C142.273 708.819 148.613 733.586 161.713 760.183C164.814 766.404 168.557 772.705 172.889 779C187.428 799.953 207.546 813.151 229.947 815.969C246.486 817.774 262.55 818.723 278.066 818.811C308.582 819.526 338.905 819.905 369.318 820.66C380.966 820.847 393.464 822.427 406.546 825.367C432.092 831.317 451.575 847.671 464.324 871.349C479.948 900.119 484.246 925.653 492.248 952.264C497.611 970.065 502.787 987.92 513.861 1006.78C530.53 1034.93 551.977 1050.92 584.255 1059.34C608.249 1065.49 628.838 1065.97 648.889 1065.28C670.017 1064.27 690.31 1062.08 709.683 1058.74C710.567 1058.42 711.655 1058.32 712.881 1058.45C714.107 1058.58 715.446 1058.95 716.819 1059.52C718.191 1060.1 719.569 1060.87 720.869 1061.79C722.169 1062.72 723.365 1063.77 724.385 1064.9C725.526 1066.02 726.48 1067.22 727.187 1068.41C727.893 1069.61 728.336 1070.77 728.488 1071.83C728.64 1072.89 728.497 1073.83 728.069 1074.58C727.641 1075.33 726.936 1075.88 726.001 1076.19C713.175 1083.37 699.726 1089.97 685.656 1095.97C659.085 1107.9 629.702 1116.93 597.806 1122.97C575.04 1126.94 551.299 1129.53 522.638 1124.9C512.803 1123.76 501.845 1120.2 490.875 1114.59C475.856 1106.47 466.666 1095.25 459.63 1083.31C450.661 1067 444.268 1051.03 440.655 1035.91C432.926 1008.73 428.904 982.822 420.996 955.586C417.27 942.657 413.485 929.607 403.594 915.441C395.452 903.8 387.031 897.928 373.567 894.192C357.239 890.231 341.94 888.717 328.351 889.716C302.905 890.124 279.302 893.627 254.391 895.008C234.498 896.558 212.132 894.498 188.246 888.916C168.631 884.224 149.037 875.807 129.901 859.98C114.109 846.502 102.024 830.916 95.9083 816.141C85.0631 792.982 81.1132 771.869 77.6296 751.023C71.1433 713.772 67.1325 677.464 58.6553 639.514C54.8895 619.631 48.0669 598.701 38.3317 577.165C35.4805 571.118 31.8353 564.957 27.4742 558.815C14.7336 541.118 -2.59262 530.829 -20.5832 530.228C-38.5738 529.626 -52.1344 534.608 -64.9466 540.375C-69.2101 542.354 -73.2718 544.559 -77.0874 546.83C-78.083 547.608 -79.7345 547.755 -81.6848 547.238C-83.6351 546.721 -85.7275 545.582 -87.5099 544.068C-88.4571 543.4 -89.3286 542.634 -90.0705 541.816C-90.8124 540.998 -91.4089 540.146 -91.8232 539.312C-92.2374 538.479 -92.4607 537.682 -92.4791 536.97C-92.4975 536.259 -92.3107 535.648 -91.9302 535.175C-76.5106 514.294 -57.5975 496.571 -20.8451 496.032C0.63526 495.702 26.3197 505.957 55.1004 527.596Z" fill="#29ABE3"/>
</g>
<defs>
<clipPath id="clip0_385_562">
<rect width="390" height="844" fill="white"/>
</clipPath>
</defs>
</svg>
