<svg width="208" height="98" viewBox="0 0 208 98" fill="none" xmlns="http://www.w3.org/2000/svg">
<path d="M396.298 97.8009C382.24 98.3129 369.056 94.5391 357.586 88.661C343.957 81.5712 333.668 73.1402 322.844 64.8989C313.555 57.8353 304.239 50.7869 291.986 45.0082C289.107 43.6675 285.976 42.4805 282.636 41.4635C271.474 38.1123 260.526 39.1208 251.717 44.4897C245.292 48.5521 239.28 52.7853 233.708 57.1702C222.597 65.6007 211.65 74.0962 200.564 82.4832C196.347 85.7317 191.43 88.7241 185.917 91.397C175.092 96.5416 163.473 96.2416 152.176 91.4065C138.402 85.5698 129.598 77.6661 119.163 70.4315C112.179 65.5953 105.247 60.6863 95.9216 57.0982C81.9494 51.7791 69.7311 52.1674 55.7981 58.3469C45.4702 62.977 37.9745 68.6667 31.0038 74.621C23.74 80.9964 17.1071 87.5522 11.1329 94.2607C10.9104 94.6297 10.5502 94.9751 10.0739 95.2763C9.59759 95.5775 9.01493 95.8282 8.36078 96.0136C7.70666 96.1989 6.99448 96.315 6.26687 96.3549C5.53926 96.3948 4.81117 96.3577 4.12614 96.2458C3.39824 96.1688 2.71656 96.0125 2.12427 95.7867C1.53198 95.5609 1.04209 95.2707 0.685556 94.9344C0.329022 94.5981 0.11369 94.223 0.0532205 93.833C-0.0072798 93.443 0.0884308 93.0466 0.334244 92.6688C2.87427 86.4506 5.80431 80.2654 9.1243 74.1133C15.2275 62.2873 23.1605 50.6964 32.8423 39.4587C39.8507 31.5605 47.5991 23.8764 59.1607 17.3721C63.001 14.9807 67.9306 13.1329 73.4492 12.0163C81.1293 10.6447 87.6082 12.0394 93.5222 14.3055C101.372 17.5838 108.202 21.4722 113.796 25.8469C124.295 33.3627 133.108 41.4788 143.687 48.9633C148.699 52.5242 153.766 56.1115 161.334 58.3599C167.558 60.2035 172.239 59.9054 178.115 57.4084C185.079 54.1766 190.979 50.3633 195.552 46.1384C204.531 38.7497 211.971 30.7791 220.483 23.1948C227.152 16.9787 235.733 11.3487 245.86 6.54493C254.207 2.63921 263.607 0.0706109 274.952 0.281313C284.433 0.604149 293.189 2.73534 299.58 6.27569C310.049 11.4671 317.471 17.8897 324.649 24.3495C337.571 35.8184 349.339 47.6553 363.171 58.8074C370.177 64.8427 378.573 70.3823 388.183 75.3093C390.923 76.6593 393.98 77.8239 397.287 78.778C406.878 81.4773 416 80.2234 422.602 75.3177C429.204 70.4121 432.633 64.7712 435.571 59.0631C436.532 57.1422 437.356 55.1979 438.074 53.3C438.208 52.7384 438.757 52.216 439.601 51.8456C440.445 51.4752 441.517 51.2866 442.586 51.3206C443.114 51.2897 443.644 51.3156 444.142 51.3968C444.64 51.478 445.096 51.6128 445.481 51.7928C445.866 51.9728 446.173 52.1942 446.382 52.4433C446.591 52.6924 446.698 52.964 446.697 53.2412C447.129 65.094 445.413 76.8124 432.429 87.4665C424.845 93.6983 412.745 97.3436 396.298 97.8009Z" fill="#29ABE3"/>
</svg>
