<svg width="51" height="190" viewBox="0 0 51 190" fill="none" xmlns="http://www.w3.org/2000/svg">
<path d="M-20.2459 161.535C-19.5012 155.795 -16.741 150.743 -13.0818 146.55C-8.68277 141.576 -3.86965 138.062 0.889361 134.315C4.96913 131.099 9.04343 127.871 12.7097 123.353C13.5629 122.29 14.3594 121.113 15.0883 119.838C17.5008 115.573 17.7852 111.055 15.805 107.064C14.2897 104.142 12.6624 101.374 10.9305 98.7728C7.62896 93.6096 4.28428 88.5083 1.00198 83.3588C-0.274767 81.3956 -1.37794 79.1683 -2.28415 76.7242C-4.01326 71.9337 -3.04726 67.2453 0.0941279 63.0416C3.89597 57.9113 8.3487 54.9574 12.5922 51.2902C15.4296 48.8353 18.2986 46.407 20.6964 42.9053C24.2613 37.6543 24.936 32.6695 22.9248 26.5377C21.4099 21.9887 19.1814 18.5055 16.7877 15.2145C14.2105 11.7719 11.5013 8.57104 8.6716 5.62536C8.50846 5.50637 8.36647 5.33338 8.25412 5.11675C8.14178 4.90012 8.06138 4.64429 8.01775 4.36458C7.97412 4.08488 7.96815 3.78704 8.00019 3.48888C8.03223 3.19072 8.10163 2.89836 8.20423 2.6293C8.29297 2.34015 8.4169 2.07591 8.56816 1.85334C8.71941 1.63078 8.89469 1.45475 9.08289 1.3364C9.27108 1.21806 9.46809 1.15997 9.66139 1.16586C9.8547 1.17175 10.0401 1.24146 10.2058 1.37061C13.0404 2.88548 15.8315 4.55591 18.579 6.3819C23.8801 9.77895 28.9379 13.8996 33.7011 18.7019C37.0345 22.1597 40.2118 25.9009 42.5479 31.0964C43.4358 32.8401 43.9833 34.9832 44.1348 37.3081C44.2572 40.5293 43.1236 43.0478 41.6076 45.2692C39.4642 48.1965 37.0971 50.6632 34.5816 52.5905C30.1972 56.2619 25.641 59.2024 21.266 62.9087C19.1861 64.6634 17.0895 66.4383 15.4652 69.3318C14.132 71.7119 13.9459 73.6335 14.7412 76.211C15.8159 79.2869 17.2475 81.9767 18.9725 84.1603C21.9196 88.3778 25.2576 92.0161 28.3326 96.059C30.8745 99.2481 32.9974 103.167 34.6106 107.648C35.9142 111.337 36.4954 115.349 35.5921 119.933C34.766 123.753 33.1146 127.137 30.9472 129.453C27.6916 133.293 24.0544 135.802 20.4163 138.209C13.9448 142.554 7.37622 146.404 0.993906 151.143C-2.42614 153.513 -5.70421 156.486 -8.77103 159.998C-9.61892 161.004 -10.3992 162.153 -11.0952 163.42C-13.081 167.098 -13.1174 170.895 -11.2059 173.955C-9.29435 177.015 -6.80237 178.845 -4.24316 180.481C-3.37993 181.021 -2.49573 181.507 -1.62649 181.946C-1.36378 182.044 -1.14929 182.307 -1.02939 182.678C-0.909485 183.05 -0.893796 183.499 -0.985715 183.929C-1.00805 184.146 -1.05802 184.359 -1.13255 184.555C-1.20709 184.75 -1.30459 184.925 -1.41904 185.067C-1.53349 185.209 -1.66247 185.316 -1.79798 185.381C-1.9335 185.447 -2.07269 185.469 -2.20695 185.447C-7.98256 184.698 -13.5413 183.088 -17.7884 176.992C-20.2734 173.431 -21.1858 168.24 -20.2459 161.535Z" fill="#29ABE3"/>
</svg>
