<svg width="21" height="22" viewBox="0 0 21 22" fill="none" xmlns="http://www.w3.org/2000/svg">
<mask id="mask0_135_714" style="mask-type:luminance" maskUnits="userSpaceOnUse" x="0" y="0" width="21" height="22">
<path d="M10.23 21.23C15.8799 21.23 20.46 16.6499 20.46 11C20.46 5.35015 15.8799 0.77002 10.23 0.77002C4.58013 0.77002 0 5.35015 0 11C0 16.6499 4.58013 21.23 10.23 21.23Z" fill="white"/>
</mask>
<g mask="url(#mask0_135_714)">
<path d="M10.23 21.23C15.8799 21.23 20.46 16.6499 20.46 11C20.46 5.35015 15.8799 0.77002 10.23 0.77002C4.58013 0.77002 0 5.35015 0 11C0 16.6499 4.58013 21.23 10.23 21.23Z" fill="#1B375A"/>
<path d="M16.626 7.43604C16.8124 7.60105 16.9868 7.76979 17.162 7.94227C16.9911 7.76513 16.8124 7.59639 16.626 7.43604Z" fill="#9CDBF4"/>
<path d="M18.2352 9.12977C17.9037 8.71098 17.5453 8.31423 17.1622 7.94204C16.9869 7.76956 16.8088 7.60082 16.6261 7.4358C16.37 7.21421 16.1007 7.00841 15.8197 6.81956C15.3814 6.52948 14.9177 6.27984 14.4343 6.07373C12.4206 7.02498 10.3512 7.85344 8.23735 8.55455C8.43224 8.65417 8.60828 8.78699 8.75757 8.94704C9.13053 9.35281 9.34871 9.87696 9.37381 10.4275C9.41017 11.192 9.10531 11.9453 8.64569 12.5569C8.18608 13.1684 7.57916 13.6551 6.94893 14.0886C4.3484 15.8661 1.29938 16.8742 -1.84814 16.9974C0.285864 20.5102 3.79313 23.1346 7.88402 23.5318C10.4758 23.7835 13.2978 23.4329 15.6043 22.1632C16.9766 21.408 17.9965 20.2482 18.7135 18.9048C19.3711 17.6385 19.7952 16.2641 19.9655 14.8475C20.2359 12.748 19.5208 10.7762 18.2352 9.12977Z" fill="#6ACDF0"/>
<path d="M10.2297 10.5592C10.1476 9.63903 9.7402 8.81955 9.30389 8.18652C8.94962 8.31518 8.59535 8.43824 8.23735 8.55478C8.43224 8.6544 8.60828 8.78722 8.75757 8.94727C9.13053 9.35304 9.34871 9.87718 9.37381 10.4277C9.41017 11.1922 9.10531 11.9455 8.64569 12.5571C8.18608 13.1687 7.57916 13.6553 6.94893 14.0888C4.3484 15.8663 1.29938 16.8744 -1.84814 16.9976C-1.1884 18.0859 -0.393696 19.0864 0.517071 19.9753C5.3426 17.9588 10.6007 14.775 10.2297 10.5592Z" fill="#16ABE0"/>
<path d="M11.3489 10.7452C11.25 9.68678 10.8114 8.68868 10.0987 7.8999C9.83456 7.99872 9.56979 8.09506 9.3044 8.18891C9.74071 8.82194 10.1435 9.64142 10.2302 10.5616C10.6031 14.7737 5.3431 17.9574 0.517578 19.9777C1.6759 21.1156 3.03515 22.0288 4.52642 22.6711C7.68595 19.7884 11.7824 15.1559 11.3489 10.7452Z" fill="#2EBDF0"/>
<path d="M11.3739 7.40723C10.9525 7.57815 10.5286 7.74285 10.1023 7.90134C10.8134 8.69036 11.2506 9.68806 11.3487 10.7458C11.7822 15.1555 7.68576 19.789 4.52344 22.6688C5.59164 23.1258 6.72349 23.4166 7.87968 23.5312C10.3036 23.7661 12.9224 23.4752 15.1366 22.4012C17.8999 12.6803 13.5489 8.72362 11.3739 7.40723Z" fill="#4DC5F0"/>
<path d="M17.1621 7.94231C16.9868 7.76983 16.8088 7.60109 16.626 7.43608C16.37 7.21448 16.1007 7.00868 15.8196 6.81983C15.3814 6.52975 14.9177 6.28011 14.4342 6.074C13.1545 5.50985 11.7517 5.28223 10.3592 5.41277C8.96672 5.5433 7.63071 6.02766 6.47808 6.81983C6.06042 7.09952 3.31576 9.39388 4.01404 9.87308C4.16507 9.97656 4.36458 9.96631 4.54638 9.943C5.28024 9.84557 5.98593 9.59701 6.61886 9.21302C6.5853 9.39948 6.76336 9.57754 6.95355 9.6111C7.14374 9.64467 7.33486 9.57568 7.51292 9.50482C7.93618 9.33794 8.35198 9.15055 8.75753 8.94545C9.2917 8.67786 9.80999 8.37965 10.3098 8.05232C10.4619 7.93893 10.6326 7.85281 10.8142 7.7978C10.9709 7.77151 11.1298 7.76059 11.2887 7.76517C11.7649 7.74667 12.2226 7.57539 12.5939 7.27665C12.8857 7.69152 13.5047 7.6216 14.0091 7.57033C15.2098 7.45112 16.4186 7.69709 17.4772 8.27607C17.3719 8.1614 17.2675 8.05139 17.1621 7.94231Z" fill="#9CDBF4"/>
</g>
</svg>
