<svg width="138" height="55" viewBox="0 0 138 55" fill="none" xmlns="http://www.w3.org/2000/svg">
<path d="M6.14273 53.7606H13.1134C13.6813 53.7791 14.2411 53.6223 14.7167 53.3113C15.1691 52.9953 15.5624 52.602 15.8784 52.1496C16.2236 51.665 16.5292 51.1535 16.7924 50.6199C17.0717 50.0657 17.3887 49.5313 17.7411 49.0205C17.9425 48.7107 18.1516 48.5558 18.3763 48.5558C18.4401 48.5643 18.5008 48.5886 18.5528 48.6265C18.6049 48.6643 18.6467 48.7146 18.6744 48.7727C18.7703 48.9631 18.7937 49.182 18.7403 49.3884L18.202 53.9271C18.1798 54.0991 18.0902 54.2552 17.953 54.3612C17.8158 54.4672 17.6421 54.5144 17.4701 54.4925H1.01928C0.508101 54.4925 0.186675 54.3802 0.0511345 54.1594C-0.0844064 53.9387 0.0511345 53.6483 0.438394 53.2958C0.729966 53.0254 1.00296 52.7356 1.25551 52.4284C1.50225 52.0929 1.62539 51.6825 1.60405 51.2666V34.4208C1.62507 34.005 1.50196 33.5946 1.25551 33.259C1.00288 32.9531 0.729884 32.6646 0.438394 32.3955C0.0627523 32.0353 -0.0572982 31.7565 0.0511345 31.528C0.159567 31.2995 0.473247 31.1949 0.98443 31.1949H6.74298C7.25416 31.1949 7.56784 31.3034 7.69177 31.528C7.81569 31.7526 7.69177 32.0353 7.30451 32.3916C7.01322 32.6597 6.74145 32.9483 6.49126 33.2552C6.24198 33.5895 6.11733 34.0004 6.13885 34.4169L6.14273 53.7606Z" fill="#010101"/>
<path d="M20.7229 54.4927C20.1652 54.4927 19.8438 54.3688 19.7547 54.1054C19.6657 53.8421 19.8128 53.5633 20.1885 53.207C20.4782 52.9409 20.7462 52.6521 20.9901 52.3434C21.2198 52.024 21.3357 51.6367 21.3193 51.2436V43.4209C21.3219 42.921 21.2326 42.4248 21.0559 41.9571C20.8738 41.4918 20.562 41.0886 20.1575 40.7953C19.8438 40.5514 19.7083 40.3577 19.7392 40.2144C19.7702 40.0711 19.9561 39.9085 20.2892 39.7304L24.882 37.6353C25.0218 37.5881 25.1683 37.5646 25.3158 37.5656C25.703 37.5656 25.8812 37.7902 25.8812 38.2317V51.2784C25.8663 51.6669 25.9703 52.0506 26.1794 52.3783C26.4063 52.6927 26.6659 52.9822 26.9539 53.2418C27.3411 53.5981 27.4806 53.8963 27.4031 54.1403C27.3257 54.3843 27.0158 54.5276 26.4543 54.5276L20.7229 54.4927ZM23.5847 36.2528C23.2515 36.2569 22.9208 36.1944 22.6121 36.0687C22.3034 35.9431 22.023 35.757 21.7873 35.5214C21.5517 35.2857 21.3656 35.0053 21.2399 34.6966C21.1143 34.3879 21.0518 34.0572 21.0559 33.724C21.0457 33.3945 21.1057 33.0667 21.2319 32.7623C21.3581 32.4578 21.5476 32.1837 21.7878 31.9581C22.0264 31.7288 22.308 31.5492 22.6165 31.4295C22.9249 31.3099 23.254 31.2526 23.5847 31.261C23.9132 31.2523 24.24 31.3095 24.546 31.4292C24.8519 31.5489 25.1308 31.7288 25.3661 31.9581C25.6012 32.1868 25.7863 32.4619 25.9096 32.7658C26.033 33.0698 26.0918 33.3961 26.0826 33.724C26.0897 34.0562 26.03 34.3865 25.9069 34.6952C25.7838 35.0039 25.5999 35.2847 25.3661 35.5209C25.1359 35.7594 24.8588 35.9476 24.5522 36.0736C24.2455 36.1996 23.9161 36.2606 23.5847 36.2528Z" fill="#010101"/>
<path d="M29.9092 38.6149H28.5422C28.4848 38.618 28.4273 38.6092 28.3734 38.5892C28.3194 38.5693 28.2701 38.5385 28.2285 38.4988C28.191 38.462 28.1613 38.418 28.1414 38.3694C28.1214 38.3208 28.1115 38.2686 28.1124 38.2161C28.1124 37.9721 28.244 37.8288 28.4996 37.8288C29.601 37.6987 30.6498 37.2851 31.5435 36.6283C32.3605 36.0018 33.0361 35.2101 33.5262 34.3047C33.7044 33.9717 33.9135 33.8052 34.1226 33.8052C34.3317 33.8052 34.4557 33.9833 34.4557 34.3357V37.8675H36.3532C36.6437 37.8675 36.787 37.9876 36.787 38.2316C36.7904 38.332 36.7619 38.431 36.7056 38.5143C36.6596 38.5592 36.604 38.593 36.5429 38.6131C36.4818 38.6333 36.4169 38.6392 36.3532 38.6304H34.4673V50.9453C34.4636 51.4492 34.5975 51.9447 34.8545 52.3781C34.9939 52.6009 35.192 52.781 35.427 52.8985C35.662 53.016 35.9249 53.0664 36.1867 53.0442C36.6747 53.0442 36.9186 53.1759 36.9186 53.4315C36.9009 53.623 36.8126 53.8011 36.6708 53.9311C36.4796 54.1292 36.2588 54.2964 36.0163 54.4267C35.6991 54.5934 35.3639 54.7233 35.0172 54.814C34.6145 54.9143 34.2007 54.9637 33.7857 54.9612C33.2028 54.9745 32.6241 54.8608 32.0895 54.6281C31.6189 54.4217 31.2026 54.1089 30.8735 53.7142C30.5448 53.3131 30.301 52.8493 30.1571 52.351C30.0003 51.8152 29.9221 51.2596 29.9247 50.7013L29.9092 38.6149Z" fill="#010101"/>
<path d="M39.7613 38.6149H38.3943C38.3368 38.618 38.2794 38.6092 38.2254 38.5892C38.1715 38.5693 38.1222 38.5385 38.0806 38.4988C38.0431 38.462 38.0134 38.418 37.9934 38.3694C37.9735 38.3208 37.9636 38.2686 37.9644 38.2161C37.9644 37.9721 38.0961 37.8288 38.3517 37.8288C39.4531 37.6987 40.5019 37.2851 41.3955 36.6283C42.2125 36.0018 42.8881 35.2101 43.3783 34.3047C43.5526 33.9717 43.7656 33.8052 43.9747 33.8052C44.1838 33.8052 44.3077 33.9833 44.3077 34.3357V37.8675H46.2053C46.4957 37.8675 46.639 37.9876 46.639 38.2316C46.643 38.3327 46.613 38.4322 46.5538 38.5143C46.5089 38.5596 46.454 38.5938 46.3934 38.6139C46.3329 38.6341 46.2684 38.6398 46.2053 38.6304H44.3077V50.9453C44.304 51.4492 44.4379 51.9447 44.695 52.3781C44.8343 52.6009 45.0324 52.781 45.2674 52.8985C45.5024 53.016 45.7653 53.0664 46.0271 53.0442C46.5151 53.0442 46.7591 53.1759 46.7591 53.4315C46.7413 53.623 46.653 53.8011 46.5112 53.9311C46.3121 54.1329 46.082 54.3015 45.8296 54.4306C45.5124 54.5973 45.1772 54.7272 44.8305 54.8179C44.4278 54.9182 44.0141 54.9676 43.599 54.965C43.0149 54.9784 42.4349 54.8648 41.899 54.632C41.4301 54.4245 41.0153 54.1118 40.6868 53.7181C40.3581 53.3169 40.1144 52.8532 39.9704 52.3549C39.8137 51.8191 39.7354 51.2634 39.7381 50.7052L39.7613 38.6149Z" fill="#010101"/>
<path d="M50.9451 44.7724C50.9875 45.5039 51.1042 46.2293 51.2937 46.9372C51.4657 47.6075 51.7527 48.243 52.1418 48.8154C52.517 49.3597 53.0126 49.8103 53.5901 50.132C54.2394 50.4799 54.9682 50.6521 55.7045 50.6316C56.6466 50.6295 57.575 50.4067 58.4154 49.981C59.2768 49.5519 60.0545 48.9722 60.7118 48.2693C60.7823 48.1879 60.869 48.1221 60.9663 48.0761C61.0637 48.0301 61.1696 48.0049 61.2772 48.0021C61.5638 48.0021 61.6877 48.1919 61.6412 48.5675C61.5329 49.3975 61.2978 50.206 60.9442 50.9647C60.6002 51.7026 60.1267 52.3728 59.5462 52.9436C58.9566 53.5169 58.2607 53.9694 57.4976 54.2757C56.6662 54.6063 55.7781 54.7708 54.8836 54.7598C53.7227 54.7815 52.5745 54.5154 51.5415 53.9853C50.5906 53.4888 49.7603 52.7894 49.1095 51.9367C48.4408 51.0571 47.9334 50.0658 47.6108 49.009C47.2661 47.8927 47.0924 46.7307 47.0958 45.5624C47.0924 44.5447 47.2332 43.5316 47.514 42.5534C47.7672 41.6308 48.1959 40.7656 48.7765 40.0052C49.3591 39.259 50.1049 38.6562 50.9567 38.2432C51.9332 37.7791 53.005 37.551 54.0858 37.5771C55.0118 37.5627 55.9319 37.7257 56.7966 38.0573C57.5652 38.362 58.2665 38.8146 58.8607 39.3895C59.4479 39.9705 59.9174 40.6596 60.2432 41.4187C60.5928 42.2405 60.8111 43.1121 60.8899 44.0017C60.9071 44.105 60.898 44.2109 60.8635 44.3097C60.829 44.4085 60.7702 44.497 60.6924 44.5671C60.5227 44.7032 60.3095 44.7733 60.0922 44.7646L50.9451 44.7724ZM56.3358 44.0753C56.33 43.4793 56.286 42.8843 56.2041 42.2939C56.1204 41.664 55.9698 41.0447 55.7549 40.4467C55.5658 39.9094 55.2767 39.4127 54.9029 38.9828C54.7397 38.7908 54.5359 38.6373 54.3062 38.5335C54.0765 38.4297 53.8266 38.3782 53.5746 38.3826C53.3241 38.3769 53.0755 38.4279 52.8475 38.5318C52.6195 38.6358 52.4179 38.79 52.2579 38.9828C51.8952 39.4139 51.6191 39.911 51.4447 40.4467C51.244 41.0505 51.1141 41.6756 51.0574 42.3094C50.9916 42.9755 50.9606 43.5641 50.9606 44.0753H56.3358Z" fill="#010101"/>
<path d="M68.1588 40.7797C68.4442 39.7959 69.0256 38.9238 69.824 38.2819C70.6467 37.631 71.6719 37.2897 72.7207 37.3176C73.2981 37.3139 73.8719 37.4095 74.4169 37.6003C74.9249 37.774 75.3982 38.0362 75.8149 38.3748C76.2171 38.7113 76.5409 39.1316 76.7637 39.6063C77.0006 40.1168 77.1197 40.674 77.1122 41.2367C77.1212 41.94 76.9055 42.6279 76.4965 43.2001C76.2762 43.4938 75.9854 43.7273 75.6511 43.8789C75.3167 44.0305 74.9495 44.0954 74.5834 44.0676C74.1817 44.0764 73.7836 43.9902 73.4216 43.8158C73.1023 43.6518 72.8232 43.419 72.6045 43.1343C72.3839 42.8467 72.2209 42.5193 72.1243 42.17C72.0247 41.8238 71.9738 41.4653 71.9733 41.105C72.0114 40.6129 71.8742 40.1232 71.586 39.7225C71.4722 39.5807 71.3277 39.4665 71.1633 39.3887C70.999 39.3109 70.8191 39.2714 70.6372 39.2733C70.3955 39.2734 70.1576 39.3344 69.9457 39.4509C69.7339 39.5673 69.5548 39.7353 69.4251 39.9394C69.0756 40.4289 68.8136 40.9753 68.6506 41.5542C68.4596 42.1857 68.3299 42.8342 68.2633 43.4905C68.1975 44.1566 68.1626 44.7104 68.1626 45.1519V51.2435C68.1426 51.6449 68.2541 52.0419 68.4802 52.3743C68.708 52.6892 68.9675 52.9799 69.2547 53.2417C69.642 53.5748 69.7736 53.8614 69.6884 54.1053C69.6032 54.3493 69.2741 54.4926 68.7203 54.4926H63.0276C62.4699 54.4926 62.1485 54.3687 62.0594 54.1053C61.9704 53.842 62.1175 53.5748 62.4931 53.2417C62.7793 52.9789 63.0388 52.6883 63.2677 52.3743C63.4922 52.0412 63.6035 51.6447 63.5852 51.2435V43.4751C63.5874 42.9812 63.5022 42.4909 63.3335 42.0267C63.1817 41.5914 62.9139 41.2057 62.559 40.9114C62.2259 40.6481 62.0594 40.4351 62.0594 40.2802C62.0594 40.1253 62.2376 39.9587 62.5938 39.7806L67.1519 37.6507C67.2898 37.5929 67.4364 37.5589 67.5856 37.55C67.9729 37.55 68.151 37.7823 68.151 38.2509L68.1588 40.7797Z" fill="#010101"/>
<path d="M79.0016 54.4925C78.3588 54.4925 78.0373 54.3259 78.0373 53.9929C78.0492 53.8585 78.0875 53.7277 78.1499 53.6081C78.2124 53.4885 78.2978 53.3824 78.4014 53.2958C78.6949 53.0274 78.9681 52.7374 79.2185 52.4284C79.4652 52.0929 79.5884 51.6825 79.567 51.2666V38.5838H77.8398C77.7821 38.5913 77.7233 38.5846 77.6687 38.5644C77.6141 38.5441 77.5651 38.511 77.5262 38.4677C77.4706 38.3955 77.4407 38.307 77.441 38.2159C77.4397 38.1259 77.4698 38.0383 77.5262 37.9681C77.5651 37.9248 77.6141 37.8916 77.6687 37.8714C77.7233 37.8511 77.7821 37.8445 77.8398 37.8519H79.5709V34.9204C79.5515 34.0774 79.7043 33.2393 80.0201 32.4574C80.2943 31.809 80.716 31.2336 81.2516 30.7767C81.7902 30.3379 82.4119 30.0126 83.0795 29.8202C83.8083 29.6037 84.5653 29.4967 85.3256 29.5026C85.8822 29.491 86.4377 29.5588 86.9753 29.704C87.3705 29.8187 87.7585 29.9571 88.1371 30.1183C88.4701 30.2655 88.7567 30.401 89.0007 30.5366C89.2378 30.6672 89.5044 30.7352 89.7752 30.7341C90.1187 30.7136 90.4533 30.617 90.7549 30.4514C91.3067 30.1569 91.8259 29.8052 92.304 29.4019C92.3616 29.3467 92.4296 29.3036 92.5041 29.275C92.5786 29.2464 92.658 29.2329 92.7377 29.2354C92.8192 29.2328 92.9003 29.2481 92.9752 29.2802C93.0501 29.3123 93.1171 29.3605 93.1714 29.4213C93.2894 29.5661 93.3488 29.7499 93.338 29.9363V51.2705C93.3219 51.6857 93.4445 52.0944 93.6865 52.4322C93.9279 52.7432 94.2004 53.0286 94.4997 53.2842C94.7127 53.4589 94.8511 53.7082 94.887 53.9813C94.887 54.3143 94.5617 54.4808 93.9189 54.4808H88.2223C87.5562 54.4808 87.2231 54.3143 87.2231 53.9813C87.2582 53.7079 87.3968 53.4584 87.6104 53.2842C87.903 53.0148 88.176 52.7249 88.4275 52.4168C88.6742 52.0813 88.7974 51.6708 88.776 51.255V35.0211C88.776 33.4217 88.5088 32.2715 87.9783 31.5589C87.4477 30.8464 86.8785 30.494 86.2782 30.494C85.9712 30.5066 85.672 30.5953 85.4077 30.7521C85.1434 30.9089 84.9222 31.129 84.764 31.3924C84.3355 31.9914 84.1199 32.9118 84.1173 34.1536V37.8519H85.8484C85.9061 37.8445 85.9649 37.8511 86.0195 37.8714C86.0741 37.8916 86.1231 37.9248 86.162 37.9681C86.2184 38.0383 86.2485 38.1259 86.2472 38.2159C86.2475 38.307 86.2176 38.3955 86.162 38.4677C86.1231 38.511 86.0741 38.5441 86.0195 38.5644C85.9649 38.5846 85.9061 38.5913 85.8484 38.5838H84.1173V51.1969C84.0956 51.6345 84.2181 52.0671 84.4658 52.4284C84.7052 52.7469 84.9793 53.0379 85.283 53.2958C85.3865 53.3824 85.4719 53.4885 85.5344 53.6081C85.5969 53.7277 85.6351 53.8585 85.647 53.9929C85.647 54.3259 85.3372 54.4925 84.7176 54.4925H79.0016Z" fill="#010101"/>
<path d="M103.787 54.8258C102.597 54.8463 101.417 54.6071 100.329 54.1248C99.3348 53.6813 98.4444 53.035 97.7148 52.2272C96.9801 51.4056 96.419 50.4441 96.0651 49.4002C95.6839 48.278 95.4929 47.1001 95.4997 45.9149C95.486 44.7381 95.6773 43.5679 96.0651 42.4567C96.4123 41.4562 96.9732 40.5434 97.7088 39.7817C98.4445 39.02 99.3372 38.4276 100.325 38.0458C101.428 37.6156 102.603 37.4026 103.787 37.4184C104.977 37.3993 106.161 37.6083 107.272 38.0342C108.256 38.4213 109.146 39.0111 109.886 39.7652C110.62 40.5309 111.181 41.4446 111.532 42.4451C111.92 43.5563 112.111 44.7265 112.098 45.9033C112.105 47.0884 111.913 48.2664 111.532 49.3886C111.18 50.4322 110.62 51.3938 109.886 52.2156C109.155 53.0217 108.265 53.6677 107.272 54.1132C106.176 54.5996 104.987 54.8427 103.787 54.8258ZM105.452 53.8615C105.922 53.8848 106.386 53.7483 106.769 53.4742C107.115 53.2036 107.393 52.8563 107.582 52.4596C107.786 52.0316 107.927 51.5764 108 51.1081C108.076 50.6445 108.115 50.1758 108.117 49.7062C108.107 49.0479 108.057 48.3909 107.966 47.7389C107.858 46.9238 107.703 46.1156 107.501 45.3185C107.283 44.4698 107.015 43.6344 106.699 42.8168C106.402 42.0295 106.023 41.2755 105.568 40.5669C105.176 39.9436 104.675 39.3955 104.089 38.9481C103.558 38.5413 102.907 38.3197 102.238 38.3169C101.765 38.3003 101.3 38.436 100.91 38.7041C100.55 38.9644 100.258 39.307 100.058 39.7033C99.8427 40.1284 99.6901 40.5823 99.6047 41.0509C99.5177 41.5236 99.4737 42.0032 99.473 42.4838C99.4814 43.1543 99.5371 43.8233 99.6395 44.4859C99.7602 45.3078 99.9322 46.1214 100.155 46.9218C100.39 47.776 100.673 48.6164 101.003 49.439C101.309 50.2232 101.698 50.9724 102.164 51.6735C102.568 52.286 103.075 52.8234 103.663 53.2612C104.183 53.6499 104.815 53.8604 105.464 53.8615H105.452Z" fill="#010101"/>
<path d="M121.538 48.9665L123.637 44.149L122.27 40.9541C122.053 40.4574 121.785 39.9839 121.473 39.5406C121.239 39.2038 120.932 38.9244 120.574 38.7235C120.284 38.5454 120.187 38.3362 120.241 38.1581C120.295 37.98 120.508 37.8599 120.841 37.8599H126.863C127.285 37.8599 127.526 37.9412 127.58 38.1078C127.634 38.2743 127.487 38.495 127.131 38.7893C126.999 38.8995 126.896 39.0407 126.833 39.2002C126.769 39.3598 126.746 39.5327 126.766 39.7033C126.792 40.1133 126.893 40.5151 127.065 40.8883L130.627 48.9743L134.155 40.8883C134.327 40.514 134.433 40.1132 134.469 39.7033C134.495 39.5338 134.476 39.3607 134.415 39.2005C134.354 39.0404 134.252 38.8988 134.121 38.7893C133.431 38.1697 133.52 37.8599 134.388 37.8599H136.518C136.851 37.8599 137.044 37.9567 137.099 38.1581C137.153 38.3595 137.037 38.5454 136.75 38.7235C136.389 38.9263 136.081 39.2116 135.852 39.5561C135.527 40.0389 135.248 40.5511 135.019 41.0858L129.129 54.5663C129.04 54.8567 128.885 55 128.664 55C128.443 55 128.296 54.8567 128.165 54.5663L124.137 45.214L120.051 54.5586C119.966 54.849 119.807 54.9923 119.587 54.9923C119.366 54.9923 119.223 54.849 119.087 54.5586L113.197 40.9464C112.976 40.4512 112.709 39.9779 112.399 39.5329C112.165 39.1961 111.858 38.9167 111.501 38.7158C111.21 38.5376 111.113 38.3285 111.168 38.1504C111.222 37.9722 111.431 37.8522 111.764 37.8522H117.79C118.212 37.8522 118.448 37.9335 118.506 38.1C118.564 38.2665 118.409 38.4873 118.057 38.7816C117.925 38.8915 117.822 39.0326 117.758 39.1921C117.694 39.3517 117.67 39.5246 117.689 39.6955C117.718 40.1055 117.82 40.507 117.991 40.8805L121.538 48.9665Z" fill="#010101"/>
<path d="M43.9933 0.00123236C46.0032 0.00123236 47.8659 1.16301 49.473 2.88244C51.3822 4.95428 52.8073 7.36304 54.3099 9.71758C55.5995 11.7391 56.8929 13.7567 58.6123 15.4568C59.0148 15.8534 59.4559 16.2088 59.929 16.5179C61.5052 17.5441 63.0736 17.3776 64.3593 15.9989C65.2977 14.9543 66.1769 13.8579 66.9926 12.715C68.6269 10.5231 70.234 8.31182 71.8605 6.13155C72.4772 5.28447 73.1951 4.51588 73.9982 3.84285C75.5704 2.54553 77.224 2.74303 78.8118 4.17589C80.7481 5.90694 81.9641 8.15305 83.4202 10.2326C84.3883 11.6229 85.3565 13.0325 86.6693 14.1052C88.6327 15.6969 90.3831 15.7124 92.4046 14.1633C93.8994 13.0015 95.0031 11.5222 96.0294 9.96542C97.0996 8.2965 98.0808 6.57208 98.9687 4.79938C99.0406 4.59396 99.1911 4.42552 99.3872 4.33111C99.5833 4.2367 99.8089 4.22405 100.014 4.29594C100.22 4.36784 100.388 4.51839 100.483 4.71448C100.577 4.91056 100.59 5.13613 100.518 5.34154C100.13 7.0145 99.6657 8.67585 99.1623 10.3217C98.2323 13.4912 97.0406 16.5779 95.5995 19.5501C94.5578 21.6374 93.4115 23.6589 91.7269 25.3203C91.1662 25.9352 90.4527 26.3908 89.6589 26.6408C88.5514 26.939 87.6375 26.4937 86.801 25.816C85.694 24.8425 84.7351 23.7127 83.9546 22.4623C82.4946 20.3053 81.2748 18.0011 79.8071 15.8518C79.1061 14.8294 78.4052 13.7993 77.3363 13.11C76.4534 12.5446 75.7873 12.5794 74.9353 13.2029C73.9242 14.0162 73.062 14.999 72.3872 16.1074C71.0627 18.0437 69.9591 20.1387 68.7237 22.1447C67.7391 23.776 66.4846 25.2283 65.0137 26.4394C63.7978 27.4231 62.4462 28.0311 60.8275 27.8607C59.4754 27.6782 58.2363 27.0091 57.3421 25.9786C55.8744 24.4567 54.8443 22.6288 53.8568 20.7932C52.0715 17.5325 50.4528 14.1827 48.5359 10.9994C47.5672 9.28137 46.3971 7.68492 45.0505 6.24386C44.665 5.84062 44.232 5.48562 43.7609 5.18664C42.4055 4.35403 41.0927 4.60575 40.1284 5.87983C39.1642 7.15392 38.6375 8.66036 38.1921 10.19C38.0489 10.7051 37.9211 11.2279 37.8049 11.7391C37.7819 11.8914 37.7 12.0287 37.5769 12.1213C37.4538 12.214 37.2993 12.2547 37.1465 12.2348C37.0694 12.2392 36.9922 12.2274 36.92 12.2C36.8478 12.1726 36.7821 12.1303 36.7273 12.0759C36.6725 12.0215 36.6298 11.9561 36.6019 11.884C36.5741 11.812 36.5617 11.7349 36.5657 11.6577C36.5657 8.41638 36.8677 5.23311 38.7769 2.45259C39.8883 0.837713 41.6426 -0.0374936 43.9933 0.00123236Z" fill="url(#paint0_linear_322_6525)"/>
<defs>
<linearGradient id="paint0_linear_322_6525" x1="36.5657" y1="13.9348" x2="100.537" y2="13.9348" gradientUnits="userSpaceOnUse">
<stop stop-color="#29ABE3"/>
<stop offset="1" stop-color="#1B375A"/>
</linearGradient>
</defs>
</svg>
