<svg width="89" height="17" viewBox="0 0 89 17" fill="none" xmlns="http://www.w3.org/2000/svg">
<path d="M4.33203 15.56H8.51203C8.8987 15.56 9.2187 15.4733 9.47203 15.3C9.7387 15.1133 9.97203 14.88 10.172 14.6C10.372 14.32 10.552 14.0133 10.712 13.68C10.8854 13.3467 11.0787 13.0267 11.292 12.72C11.412 12.5333 11.5387 12.44 11.672 12.44C11.7387 12.44 11.7987 12.4867 11.852 12.58C11.9054 12.66 11.9187 12.78 11.892 12.94L11.572 15.66C11.532 15.8867 11.3854 16 11.132 16H1.25203C0.945365 16 0.752031 15.9333 0.672031 15.8C0.592031 15.6667 0.665365 15.4933 0.892031 15.28C1.0787 15.1067 1.2387 14.9333 1.37203 14.76C1.5187 14.5867 1.59203 14.3533 1.59203 14.06V3.94C1.59203 3.64667 1.5187 3.41333 1.37203 3.24C1.2387 3.06667 1.0787 2.89333 0.892031 2.72C0.678698 2.50667 0.605365 2.33333 0.672031 2.2C0.738698 2.06667 0.925365 2 1.23203 2H4.69203C4.9987 2 5.18536 2.06667 5.25203 2.2C5.33203 2.33333 5.2587 2.50667 5.03203 2.72C4.84536 2.89333 4.6787 3.06667 4.53203 3.24C4.3987 3.41333 4.33203 3.64667 4.33203 3.94V15.56ZM14.8075 5.04C14.3808 5.04 14.0208 4.89333 13.7275 4.6C13.4342 4.30667 13.2875 3.94667 13.2875 3.52C13.2875 3.09333 13.4342 2.74 13.7275 2.46C14.0208 2.18 14.3808 2.04 14.8075 2.04C15.2342 2.04 15.5875 2.18 15.8675 2.46C16.1608 2.74 16.3075 3.09333 16.3075 3.52C16.3075 3.94667 16.1608 4.30667 15.8675 4.6C15.5875 4.89333 15.2342 5.04 14.8075 5.04ZM13.0875 16C12.7542 16 12.5608 15.9267 12.5075 15.78C12.4542 15.6333 12.5408 15.4533 12.7675 15.24C12.9542 15.0667 13.1142 14.8933 13.2475 14.72C13.3808 14.5467 13.4475 14.3267 13.4475 14.06V9.36C13.4475 9.05333 13.3942 8.76 13.2875 8.48C13.1808 8.2 13.0008 7.96667 12.7475 7.78C12.5608 7.63333 12.4742 7.52 12.4875 7.44C12.5142 7.34667 12.6275 7.24667 12.8275 7.14L15.5875 5.88C15.6942 5.84 15.7808 5.82 15.8475 5.82C16.0742 5.82 16.1875 5.95333 16.1875 6.22V14.06C16.1875 14.3267 16.2475 14.5467 16.3675 14.72C16.4875 14.8933 16.6408 15.0667 16.8275 15.24C17.0542 15.4533 17.1408 15.6333 17.0875 15.78C17.0475 15.9267 16.8608 16 16.5275 16H13.0875ZM18.607 6.46H17.787C17.707 6.46 17.6404 6.44 17.587 6.4C17.547 6.34667 17.527 6.28667 17.527 6.22C17.527 6.07333 17.607 5.99333 17.767 5.98C18.5004 5.87333 19.107 5.63333 19.587 5.26C20.0804 4.88667 20.4804 4.42 20.787 3.86C20.8937 3.66 21.0137 3.56 21.147 3.56C21.2804 3.56 21.347 3.66667 21.347 3.88V6H22.487C22.6604 6 22.747 6.07333 22.747 6.22C22.747 6.28667 22.727 6.34667 22.687 6.4C22.6604 6.44 22.5937 6.46 22.487 6.46H21.347V13.86C21.347 14.1667 21.427 14.4533 21.587 14.72C21.747 14.9867 22.0137 15.12 22.387 15.12C22.6804 15.12 22.827 15.2 22.827 15.36C22.827 15.4533 22.7737 15.5533 22.667 15.66C22.5737 15.7667 22.4404 15.8667 22.267 15.96C22.0937 16.0533 21.8937 16.1267 21.667 16.18C21.4404 16.2467 21.1937 16.28 20.927 16.28C20.5404 16.28 20.2004 16.2133 19.907 16.08C19.6137 15.9467 19.367 15.7667 19.167 15.54C18.9804 15.3 18.8404 15.0267 18.747 14.72C18.6537 14.4 18.607 14.0667 18.607 13.72V6.46ZM24.525 6.46H23.705C23.625 6.46 23.5583 6.44 23.505 6.4C23.465 6.34667 23.445 6.28667 23.445 6.22C23.445 6.07333 23.525 5.99333 23.685 5.98C24.4183 5.87333 25.025 5.63333 25.505 5.26C25.9983 4.88667 26.3983 4.42 26.705 3.86C26.8117 3.66 26.9317 3.56 27.065 3.56C27.1983 3.56 27.265 3.66667 27.265 3.88V6H28.405C28.5783 6 28.665 6.07333 28.665 6.22C28.665 6.28667 28.645 6.34667 28.605 6.4C28.5783 6.44 28.5117 6.46 28.405 6.46H27.265V13.86C27.265 14.1667 27.345 14.4533 27.505 14.72C27.665 14.9867 27.9317 15.12 28.305 15.12C28.5983 15.12 28.745 15.2 28.745 15.36C28.745 15.4533 28.6917 15.5533 28.585 15.66C28.4917 15.7667 28.3583 15.8667 28.185 15.96C28.0117 16.0533 27.8117 16.1267 27.585 16.18C27.3583 16.2467 27.1117 16.28 26.845 16.28C26.4583 16.28 26.1183 16.2133 25.825 16.08C25.5317 15.9467 25.285 15.7667 25.085 15.54C24.8983 15.3 24.7583 15.0267 24.665 14.72C24.5717 14.4 24.525 14.0667 24.525 13.72V6.46ZM31.2523 10.16C31.279 10.6 31.3457 11.0333 31.4523 11.46C31.5723 11.8867 31.7457 12.2667 31.9723 12.6C32.199 12.92 32.4857 13.18 32.8323 13.38C33.1923 13.58 33.619 13.68 34.1123 13.68C34.6857 13.68 35.2323 13.5533 35.7523 13.3C36.2723 13.0333 36.7323 12.6867 37.1323 12.26C37.239 12.1533 37.3523 12.1 37.4723 12.1C37.6457 12.1 37.719 12.2133 37.6923 12.44C37.6257 12.9467 37.4857 13.4267 37.2723 13.88C37.059 14.3333 36.779 14.7333 36.4323 15.08C36.0857 15.4133 35.6723 15.68 35.1923 15.88C34.7257 16.0667 34.2057 16.16 33.6323 16.16C32.8723 16.16 32.199 16.0067 31.6123 15.7C31.039 15.3933 30.5523 14.9867 30.1523 14.48C29.7657 13.96 29.4657 13.3733 29.2523 12.72C29.0523 12.0533 28.9523 11.36 28.9523 10.64C28.9523 10.0133 29.0323 9.41333 29.1923 8.84C29.3657 8.25333 29.619 7.74 29.9523 7.3C30.299 6.86 30.739 6.50667 31.2723 6.24C31.8057 5.97333 32.4323 5.84 33.1523 5.84C33.7657 5.84 34.3123 5.94 34.7923 6.14C35.2723 6.32667 35.6857 6.59333 36.0323 6.94C36.379 7.27333 36.6523 7.68 36.8523 8.16C37.0657 8.62667 37.199 9.14 37.2523 9.7C37.2657 9.84667 37.2257 9.96 37.1323 10.04C37.039 10.12 36.919 10.16 36.7723 10.16H31.2523ZM34.4923 9.74C34.4923 9.42 34.4657 9.06667 34.4123 8.68C34.359 8.28 34.2657 7.90667 34.1323 7.56C34.0123 7.21333 33.8457 6.92 33.6323 6.68C33.419 6.44 33.1523 6.32 32.8323 6.32C32.5123 6.32 32.2457 6.44 32.0323 6.68C31.8323 6.92 31.6723 7.21333 31.5523 7.56C31.4323 7.90667 31.3523 8.28 31.3123 8.68C31.2723 9.08 31.2523 9.43333 31.2523 9.74H34.4923ZM41.5977 7.76C41.7843 7.14667 42.1177 6.64667 42.5977 6.26C43.0777 5.87333 43.6577 5.68 44.3377 5.68C44.6977 5.68 45.0377 5.74 45.3577 5.86C45.6777 5.96667 45.9577 6.12 46.1977 6.32C46.4377 6.52 46.6243 6.76667 46.7577 7.06C46.9043 7.35333 46.9777 7.68 46.9777 8.04C46.9777 8.48 46.851 8.87333 46.5977 9.22C46.3577 9.56667 45.9777 9.74 45.4577 9.74C45.1777 9.74 44.9377 9.69333 44.7377 9.6C44.551 9.49333 44.391 9.35333 44.2577 9.18C44.1243 9.00667 44.0243 8.81333 43.9577 8.6C43.9043 8.38667 43.8777 8.17333 43.8777 7.96C43.8777 7.58667 43.7977 7.31333 43.6377 7.14C43.491 6.95333 43.3043 6.86 43.0777 6.86C42.7843 6.86 42.5377 6.99333 42.3377 7.26C42.151 7.52667 41.9977 7.85333 41.8777 8.24C41.771 8.61333 41.6977 9 41.6577 9.4C41.6177 9.8 41.5977 10.1333 41.5977 10.4V14.06C41.5977 14.34 41.6577 14.5667 41.7777 14.74C41.911 14.9133 42.071 15.0867 42.2577 15.26C42.4843 15.46 42.571 15.6333 42.5177 15.78C42.4643 15.9267 42.271 16 41.9377 16H38.5177C38.1843 16 37.991 15.9267 37.9377 15.78C37.8843 15.6333 37.971 15.46 38.1977 15.26C38.3843 15.0867 38.5377 14.9133 38.6577 14.74C38.791 14.5667 38.8577 14.34 38.8577 14.06V9.38C38.8577 9.07333 38.8043 8.78667 38.6977 8.52C38.6043 8.24 38.451 8.01333 38.2377 7.84C38.0377 7.68 37.9377 7.55333 37.9377 7.46C37.9377 7.36667 38.0443 7.26667 38.2577 7.16L40.9977 5.88C41.1043 5.84 41.191 5.82 41.2577 5.82C41.4843 5.82 41.5977 5.96 41.5977 6.24V7.76ZM51.2852 8.66V14.06C51.2852 14.3533 51.3518 14.5867 51.4852 14.76C51.6318 14.9333 51.7985 15.1067 51.9852 15.28C52.2118 15.48 52.2852 15.6533 52.2052 15.8C52.1385 15.9333 51.9518 16 51.6452 16H48.1852C47.8785 16 47.6918 15.9333 47.6252 15.8C47.5585 15.6533 47.6318 15.48 47.8452 15.28C48.0318 15.1067 48.1918 14.9333 48.3252 14.76C48.4718 14.5867 48.5452 14.3533 48.5452 14.06V3.94C48.5452 3.64667 48.4718 3.41333 48.3252 3.24C48.1918 3.06667 48.0318 2.89333 47.8452 2.72C47.6318 2.50667 47.5585 2.33333 47.6252 2.2C47.6918 2.06667 47.8785 2 48.1852 2H57.7252C57.9918 2 58.1385 2.11333 58.1652 2.34L58.4852 5.06C58.5252 5.38 58.4518 5.54 58.2652 5.54C58.1452 5.54 58.0252 5.44667 57.9052 5.26C57.7052 4.95333 57.5185 4.63333 57.3452 4.3C57.1852 3.96667 57.0118 3.66667 56.8252 3.4C56.6385 3.12 56.4185 2.89333 56.1652 2.72C55.9118 2.53333 55.5985 2.44 55.2252 2.44H51.2852V8.22H53.6452C53.8985 8.22 54.1118 8.16667 54.2852 8.06C54.4718 7.95333 54.6385 7.82 54.7852 7.66C54.9318 7.5 55.0718 7.32 55.2052 7.12C55.3385 6.92 55.4718 6.72 55.6052 6.52C55.7252 6.36 55.8585 6.28 56.0052 6.28C56.0852 6.26667 56.1518 6.30667 56.2052 6.4C56.2718 6.48 56.3052 6.6 56.3052 6.76V10.12C56.3052 10.4533 56.1985 10.62 55.9852 10.62C55.8518 10.62 55.7252 10.5333 55.6052 10.36C55.4718 10.1733 55.3385 9.98 55.2052 9.78C55.0718 9.58 54.9318 9.4 54.7852 9.24C54.6385 9.06667 54.4718 8.92667 54.2852 8.82C54.1118 8.71333 53.8985 8.66 53.6452 8.66H51.2852ZM59.7086 16C59.3753 16 59.1819 15.9267 59.1286 15.78C59.0753 15.6333 59.1619 15.46 59.3886 15.26C59.5753 15.0733 59.7286 14.8933 59.8486 14.72C59.9819 14.5467 60.0486 14.3267 60.0486 14.06V4.34C60.0486 4.03333 59.9953 3.74667 59.8886 3.48C59.7953 3.2 59.6419 2.97333 59.4286 2.8C59.2286 2.64 59.1286 2.51333 59.1286 2.42C59.1286 2.32667 59.2353 2.22667 59.4486 2.12L62.1886 0.859999C62.2953 0.819999 62.3886 0.799999 62.4686 0.799999C62.6819 0.799999 62.7886 0.933333 62.7886 1.2V14.06C62.7886 14.3267 62.8486 14.5467 62.9686 14.72C63.1019 14.8933 63.2619 15.0733 63.4486 15.26C63.6753 15.46 63.7619 15.6333 63.7086 15.78C63.6686 15.9267 63.4819 16 63.1486 16H59.7086ZM68.9128 16.2C68.1395 16.2 67.4461 16.06 66.8328 15.78C66.2195 15.5 65.6928 15.12 65.2528 14.64C64.8261 14.16 64.4995 13.5933 64.2728 12.94C64.0461 12.2867 63.9328 11.5867 63.9328 10.84C63.9328 10.08 64.0461 9.38667 64.2728 8.76C64.4995 8.13333 64.8261 7.6 65.2528 7.16C65.6928 6.70667 66.2195 6.36 66.8328 6.12C67.4461 5.86667 68.1395 5.74 68.9128 5.74C69.6995 5.74 70.3995 5.86667 71.0128 6.12C71.6261 6.36 72.1461 6.70667 72.5728 7.16C73.0128 7.6 73.3461 8.13333 73.5728 8.76C73.7995 9.38667 73.9128 10.08 73.9128 10.84C73.9128 11.5867 73.7995 12.2867 73.5728 12.94C73.3461 13.5933 73.0128 14.16 72.5728 14.64C72.1461 15.12 71.6261 15.5 71.0128 15.78C70.3995 16.06 69.6995 16.2 68.9128 16.2ZM69.9128 15.62C70.2328 15.62 70.4928 15.54 70.6928 15.38C70.9061 15.22 71.0728 15.02 71.1928 14.78C71.3128 14.5267 71.3928 14.2533 71.4328 13.96C71.4861 13.6667 71.5128 13.3867 71.5128 13.12C71.5128 12.8 71.4795 12.4067 71.4128 11.94C71.3595 11.4733 71.2661 10.9933 71.1328 10.5C71.0128 9.99333 70.8528 9.49333 70.6528 9C70.4661 8.49333 70.2395 8.04 69.9728 7.64C69.7195 7.24 69.4261 6.92 69.0928 6.68C68.7595 6.42667 68.3861 6.3 67.9728 6.3C67.6528 6.3 67.3861 6.38 67.1728 6.54C66.9595 6.68667 66.7861 6.88667 66.6528 7.14C66.5328 7.38 66.4461 7.64667 66.3928 7.94C66.3395 8.23333 66.3128 8.52 66.3128 8.8C66.3128 9.13333 66.3461 9.53333 66.4128 10C66.4795 10.4667 66.5795 10.9533 66.7128 11.46C66.8595 11.9667 67.0328 12.4733 67.2328 12.98C67.4328 13.4733 67.6661 13.92 67.9328 14.32C68.1995 14.7067 68.4995 15.02 68.8328 15.26C69.1661 15.5 69.5261 15.62 69.9128 15.62ZM79.5873 12.68L80.8473 9.78L80.0273 7.86C79.8673 7.51333 79.7073 7.23333 79.5473 7.02C79.3873 6.79333 79.2073 6.62667 79.0073 6.52C78.834 6.41333 78.7673 6.3 78.8073 6.18C78.8473 6.06 78.9673 6 79.1673 6H82.7873C83.0407 6 83.1807 6.05333 83.2073 6.16C83.2473 6.25333 83.1607 6.38667 82.9473 6.56C82.7873 6.69333 82.714 6.88 82.7273 7.12C82.7407 7.34667 82.8007 7.58 82.9073 7.82L85.0473 12.68L87.1673 7.82C87.274 7.58 87.334 7.34667 87.3473 7.12C87.374 6.88 87.3073 6.69333 87.1473 6.56C86.734 6.18667 86.7873 6 87.3073 6H88.5873C88.7873 6 88.9007 6.06 88.9273 6.18C88.9673 6.3 88.9007 6.41333 88.7273 6.52C88.5273 6.62667 88.3473 6.79333 88.1873 7.02C88.0273 7.24667 87.8607 7.55333 87.6873 7.94L84.1473 16.04C84.094 16.2133 84.0007 16.3 83.8673 16.3C83.7473 16.3 83.6473 16.2133 83.5673 16.04L81.1473 10.42L78.6873 16.04C78.634 16.2133 78.5407 16.3 78.4073 16.3C78.2873 16.3 78.1873 16.2133 78.1073 16.04L74.5673 7.86C74.4073 7.51333 74.2473 7.23333 74.0873 7.02C73.9273 6.79333 73.7473 6.62667 73.5473 6.52C73.374 6.41333 73.3073 6.3 73.3473 6.18C73.3873 6.06 73.5073 6 73.7073 6H77.3273C77.5807 6 77.7207 6.05333 77.7473 6.16C77.7873 6.25333 77.7007 6.38667 77.4873 6.56C77.3273 6.69333 77.254 6.88 77.2673 7.12C77.2807 7.34667 77.3407 7.58 77.4473 7.82L79.5873 12.68Z" fill="#1B375A"/>
</svg>
