<svg width="89" height="17" viewBox="0 0 89 17" fill="none" xmlns="http://www.w3.org/2000/svg">
<path d="M4.04688 15.56H8.22688C8.61354 15.56 8.93354 15.4733 9.18688 15.3C9.45354 15.1133 9.68688 14.88 9.88688 14.6C10.0869 14.32 10.2669 14.0133 10.4269 13.68C10.6002 13.3467 10.7935 13.0267 11.0069 12.72C11.1269 12.5333 11.2535 12.44 11.3869 12.44C11.4535 12.44 11.5135 12.4867 11.5669 12.58C11.6202 12.66 11.6335 12.78 11.6069 12.94L11.2869 15.66C11.2469 15.8867 11.1002 16 10.8469 16H0.966875C0.660208 16 0.466875 15.9333 0.386875 15.8C0.306875 15.6667 0.380208 15.4933 0.606875 15.28C0.793542 15.1067 0.953542 14.9333 1.08688 14.76C1.23354 14.5867 1.30688 14.3533 1.30688 14.06V3.94C1.30688 3.64667 1.23354 3.41333 1.08688 3.24C0.953542 3.06667 0.793542 2.89333 0.606875 2.72C0.393542 2.50667 0.320208 2.33333 0.386875 2.2C0.453542 2.06667 0.640208 2 0.946875 2H4.40688C4.71354 2 4.90021 2.06667 4.96688 2.2C5.04688 2.33333 4.97354 2.50667 4.74688 2.72C4.56021 2.89333 4.39354 3.06667 4.24688 3.24C4.11354 3.41333 4.04688 3.64667 4.04688 3.94V15.56ZM14.5223 5.04C14.0957 5.04 13.7357 4.89333 13.4423 4.6C13.149 4.30667 13.0023 3.94667 13.0023 3.52C13.0023 3.09333 13.149 2.74 13.4423 2.46C13.7357 2.18 14.0957 2.04 14.5223 2.04C14.949 2.04 15.3023 2.18 15.5823 2.46C15.8757 2.74 16.0223 3.09333 16.0223 3.52C16.0223 3.94667 15.8757 4.30667 15.5823 4.6C15.3023 4.89333 14.949 5.04 14.5223 5.04ZM12.8023 16C12.469 16 12.2757 15.9267 12.2223 15.78C12.169 15.6333 12.2557 15.4533 12.4823 15.24C12.669 15.0667 12.829 14.8933 12.9623 14.72C13.0957 14.5467 13.1623 14.3267 13.1623 14.06V9.36C13.1623 9.05333 13.109 8.76 13.0023 8.48C12.8957 8.2 12.7157 7.96667 12.4623 7.78C12.2757 7.63333 12.189 7.52 12.2023 7.44C12.229 7.34667 12.3423 7.24667 12.5423 7.14L15.3023 5.88C15.409 5.84 15.4957 5.82 15.5623 5.82C15.789 5.82 15.9023 5.95333 15.9023 6.22V14.06C15.9023 14.3267 15.9623 14.5467 16.0823 14.72C16.2023 14.8933 16.3557 15.0667 16.5423 15.24C16.769 15.4533 16.8557 15.6333 16.8023 15.78C16.7623 15.9267 16.5757 16 16.2423 16H12.8023ZM18.3219 6.46H17.5019C17.4219 6.46 17.3552 6.44 17.3019 6.4C17.2619 6.34667 17.2419 6.28667 17.2419 6.22C17.2419 6.07333 17.3219 5.99333 17.4819 5.98C18.2152 5.87333 18.8219 5.63333 19.3019 5.26C19.7952 4.88667 20.1952 4.42 20.5019 3.86C20.6085 3.66 20.7285 3.56 20.8619 3.56C20.9952 3.56 21.0619 3.66667 21.0619 3.88V6H22.2019C22.3752 6 22.4619 6.07333 22.4619 6.22C22.4619 6.28667 22.4419 6.34667 22.4019 6.4C22.3752 6.44 22.3085 6.46 22.2019 6.46H21.0619V13.86C21.0619 14.1667 21.1419 14.4533 21.3019 14.72C21.4619 14.9867 21.7285 15.12 22.1019 15.12C22.3952 15.12 22.5419 15.2 22.5419 15.36C22.5419 15.4533 22.4885 15.5533 22.3819 15.66C22.2885 15.7667 22.1552 15.8667 21.9819 15.96C21.8085 16.0533 21.6085 16.1267 21.3819 16.18C21.1552 16.2467 20.9085 16.28 20.6419 16.28C20.2552 16.28 19.9152 16.2133 19.6219 16.08C19.3285 15.9467 19.0819 15.7667 18.8819 15.54C18.6952 15.3 18.5552 15.0267 18.4619 14.72C18.3685 14.4 18.3219 14.0667 18.3219 13.72V6.46ZM24.2398 6.46H23.4198C23.3398 6.46 23.2732 6.44 23.2198 6.4C23.1798 6.34667 23.1598 6.28667 23.1598 6.22C23.1598 6.07333 23.2398 5.99333 23.3998 5.98C24.1332 5.87333 24.7398 5.63333 25.2198 5.26C25.7132 4.88667 26.1132 4.42 26.4198 3.86C26.5265 3.66 26.6465 3.56 26.7798 3.56C26.9132 3.56 26.9798 3.66667 26.9798 3.88V6H28.1198C28.2932 6 28.3798 6.07333 28.3798 6.22C28.3798 6.28667 28.3598 6.34667 28.3198 6.4C28.2932 6.44 28.2265 6.46 28.1198 6.46H26.9798V13.86C26.9798 14.1667 27.0598 14.4533 27.2198 14.72C27.3798 14.9867 27.6465 15.12 28.0198 15.12C28.3132 15.12 28.4598 15.2 28.4598 15.36C28.4598 15.4533 28.4065 15.5533 28.2998 15.66C28.2065 15.7667 28.0732 15.8667 27.8998 15.96C27.7265 16.0533 27.5265 16.1267 27.2998 16.18C27.0732 16.2467 26.8265 16.28 26.5598 16.28C26.1732 16.28 25.8332 16.2133 25.5398 16.08C25.2465 15.9467 24.9998 15.7667 24.7998 15.54C24.6132 15.3 24.4732 15.0267 24.3798 14.72C24.2865 14.4 24.2398 14.0667 24.2398 13.72V6.46ZM30.9672 10.16C30.9939 10.6 31.0605 11.0333 31.1672 11.46C31.2872 11.8867 31.4605 12.2667 31.6872 12.6C31.9139 12.92 32.2005 13.18 32.5472 13.38C32.9072 13.58 33.3339 13.68 33.8272 13.68C34.4005 13.68 34.9472 13.5533 35.4672 13.3C35.9872 13.0333 36.4472 12.6867 36.8472 12.26C36.9539 12.1533 37.0672 12.1 37.1872 12.1C37.3605 12.1 37.4339 12.2133 37.4072 12.44C37.3405 12.9467 37.2005 13.4267 36.9872 13.88C36.7739 14.3333 36.4939 14.7333 36.1472 15.08C35.8005 15.4133 35.3872 15.68 34.9072 15.88C34.4405 16.0667 33.9205 16.16 33.3472 16.16C32.5872 16.16 31.9139 16.0067 31.3272 15.7C30.7539 15.3933 30.2672 14.9867 29.8672 14.48C29.4805 13.96 29.1805 13.3733 28.9672 12.72C28.7672 12.0533 28.6672 11.36 28.6672 10.64C28.6672 10.0133 28.7472 9.41333 28.9072 8.84C29.0805 8.25333 29.3339 7.74 29.6672 7.3C30.0139 6.86 30.4539 6.50667 30.9872 6.24C31.5205 5.97333 32.1472 5.84 32.8672 5.84C33.4805 5.84 34.0272 5.94 34.5072 6.14C34.9872 6.32667 35.4005 6.59333 35.7472 6.94C36.0939 7.27333 36.3672 7.68 36.5672 8.16C36.7805 8.62667 36.9139 9.14 36.9672 9.7C36.9805 9.84667 36.9405 9.96 36.8472 10.04C36.7539 10.12 36.6339 10.16 36.4872 10.16H30.9672ZM34.2072 9.74C34.2072 9.42 34.1805 9.06667 34.1272 8.68C34.0739 8.28 33.9805 7.90667 33.8472 7.56C33.7272 7.21333 33.5605 6.92 33.3472 6.68C33.1339 6.44 32.8672 6.32 32.5472 6.32C32.2272 6.32 31.9605 6.44 31.7472 6.68C31.5472 6.92 31.3872 7.21333 31.2672 7.56C31.1472 7.90667 31.0672 8.28 31.0272 8.68C30.9872 9.08 30.9672 9.43333 30.9672 9.74H34.2072ZM41.3125 7.76C41.4992 7.14667 41.8325 6.64667 42.3125 6.26C42.7925 5.87333 43.3725 5.68 44.0525 5.68C44.4125 5.68 44.7525 5.74 45.0725 5.86C45.3925 5.96667 45.6725 6.12 45.9125 6.32C46.1525 6.52 46.3392 6.76667 46.4725 7.06C46.6192 7.35333 46.6925 7.68 46.6925 8.04C46.6925 8.48 46.5658 8.87333 46.3125 9.22C46.0725 9.56667 45.6925 9.74 45.1725 9.74C44.8925 9.74 44.6525 9.69333 44.4525 9.6C44.2658 9.49333 44.1058 9.35333 43.9725 9.18C43.8392 9.00667 43.7392 8.81333 43.6725 8.6C43.6192 8.38667 43.5925 8.17333 43.5925 7.96C43.5925 7.58667 43.5125 7.31333 43.3525 7.14C43.2058 6.95333 43.0192 6.86 42.7925 6.86C42.4992 6.86 42.2525 6.99333 42.0525 7.26C41.8658 7.52667 41.7125 7.85333 41.5925 8.24C41.4858 8.61333 41.4125 9 41.3725 9.4C41.3325 9.8 41.3125 10.1333 41.3125 10.4V14.06C41.3125 14.34 41.3725 14.5667 41.4925 14.74C41.6258 14.9133 41.7858 15.0867 41.9725 15.26C42.1992 15.46 42.2858 15.6333 42.2325 15.78C42.1792 15.9267 41.9858 16 41.6525 16H38.2325C37.8992 16 37.7058 15.9267 37.6525 15.78C37.5992 15.6333 37.6858 15.46 37.9125 15.26C38.0992 15.0867 38.2525 14.9133 38.3725 14.74C38.5058 14.5667 38.5725 14.34 38.5725 14.06V9.38C38.5725 9.07333 38.5192 8.78667 38.4125 8.52C38.3192 8.24 38.1658 8.01333 37.9525 7.84C37.7525 7.68 37.6525 7.55333 37.6525 7.46C37.6525 7.36667 37.7592 7.26667 37.9725 7.16L40.7125 5.88C40.8192 5.84 40.9058 5.82 40.9725 5.82C41.1992 5.82 41.3125 5.96 41.3125 6.24V7.76ZM51 8.66V14.06C51 14.3533 51.0667 14.5867 51.2 14.76C51.3467 14.9333 51.5133 15.1067 51.7 15.28C51.9267 15.48 52 15.6533 51.92 15.8C51.8533 15.9333 51.6667 16 51.36 16H47.9C47.5933 16 47.4067 15.9333 47.34 15.8C47.2733 15.6533 47.3467 15.48 47.56 15.28C47.7467 15.1067 47.9067 14.9333 48.04 14.76C48.1867 14.5867 48.26 14.3533 48.26 14.06V3.94C48.26 3.64667 48.1867 3.41333 48.04 3.24C47.9067 3.06667 47.7467 2.89333 47.56 2.72C47.3467 2.50667 47.2733 2.33333 47.34 2.2C47.4067 2.06667 47.5933 2 47.9 2H57.44C57.7067 2 57.8533 2.11333 57.88 2.34L58.2 5.06C58.24 5.38 58.1667 5.54 57.98 5.54C57.86 5.54 57.74 5.44667 57.62 5.26C57.42 4.95333 57.2333 4.63333 57.06 4.3C56.9 3.96667 56.7267 3.66667 56.54 3.4C56.3533 3.12 56.1333 2.89333 55.88 2.72C55.6267 2.53333 55.3133 2.44 54.94 2.44H51V8.22H53.36C53.6133 8.22 53.8267 8.16667 54 8.06C54.1867 7.95333 54.3533 7.82 54.5 7.66C54.6467 7.5 54.7867 7.32 54.92 7.12C55.0533 6.92 55.1867 6.72 55.32 6.52C55.44 6.36 55.5733 6.28 55.72 6.28C55.8 6.26667 55.8667 6.30667 55.92 6.4C55.9867 6.48 56.02 6.6 56.02 6.76V10.12C56.02 10.4533 55.9133 10.62 55.7 10.62C55.5667 10.62 55.44 10.5333 55.32 10.36C55.1867 10.1733 55.0533 9.98 54.92 9.78C54.7867 9.58 54.6467 9.4 54.5 9.24C54.3533 9.06667 54.1867 8.92667 54 8.82C53.8267 8.71333 53.6133 8.66 53.36 8.66H51ZM59.4234 16C59.0901 16 58.8968 15.9267 58.8434 15.78C58.7901 15.6333 58.8768 15.46 59.1034 15.26C59.2901 15.0733 59.4434 14.8933 59.5634 14.72C59.6968 14.5467 59.7634 14.3267 59.7634 14.06V4.34C59.7634 4.03333 59.7101 3.74667 59.6034 3.48C59.5101 3.2 59.3568 2.97333 59.1434 2.8C58.9434 2.64 58.8434 2.51333 58.8434 2.42C58.8434 2.32667 58.9501 2.22667 59.1634 2.12L61.9034 0.859999C62.0101 0.819999 62.1034 0.799999 62.1834 0.799999C62.3968 0.799999 62.5034 0.933333 62.5034 1.2V14.06C62.5034 14.3267 62.5634 14.5467 62.6834 14.72C62.8168 14.8933 62.9768 15.0733 63.1634 15.26C63.3901 15.46 63.4768 15.6333 63.4234 15.78C63.3834 15.9267 63.1968 16 62.8634 16H59.4234ZM68.6277 16.2C67.8543 16.2 67.161 16.06 66.5477 15.78C65.9343 15.5 65.4077 15.12 64.9677 14.64C64.541 14.16 64.2143 13.5933 63.9877 12.94C63.761 12.2867 63.6477 11.5867 63.6477 10.84C63.6477 10.08 63.761 9.38667 63.9877 8.76C64.2143 8.13333 64.541 7.6 64.9677 7.16C65.4077 6.70667 65.9343 6.36 66.5477 6.12C67.161 5.86667 67.8543 5.74 68.6277 5.74C69.4143 5.74 70.1143 5.86667 70.7277 6.12C71.341 6.36 71.861 6.70667 72.2877 7.16C72.7277 7.6 73.061 8.13333 73.2877 8.76C73.5143 9.38667 73.6277 10.08 73.6277 10.84C73.6277 11.5867 73.5143 12.2867 73.2877 12.94C73.061 13.5933 72.7277 14.16 72.2877 14.64C71.861 15.12 71.341 15.5 70.7277 15.78C70.1143 16.06 69.4143 16.2 68.6277 16.2ZM69.6277 15.62C69.9477 15.62 70.2077 15.54 70.4077 15.38C70.621 15.22 70.7877 15.02 70.9077 14.78C71.0277 14.5267 71.1077 14.2533 71.1477 13.96C71.201 13.6667 71.2277 13.3867 71.2277 13.12C71.2277 12.8 71.1943 12.4067 71.1277 11.94C71.0743 11.4733 70.981 10.9933 70.8477 10.5C70.7277 9.99333 70.5677 9.49333 70.3677 9C70.181 8.49333 69.9543 8.04 69.6877 7.64C69.4343 7.24 69.141 6.92 68.8077 6.68C68.4743 6.42667 68.101 6.3 67.6877 6.3C67.3677 6.3 67.101 6.38 66.8877 6.54C66.6743 6.68667 66.501 6.88667 66.3677 7.14C66.2477 7.38 66.161 7.64667 66.1077 7.94C66.0543 8.23333 66.0277 8.52 66.0277 8.8C66.0277 9.13333 66.061 9.53333 66.1277 10C66.1943 10.4667 66.2943 10.9533 66.4277 11.46C66.5743 11.9667 66.7477 12.4733 66.9477 12.98C67.1477 13.4733 67.381 13.92 67.6477 14.32C67.9143 14.7067 68.2143 15.02 68.5477 15.26C68.881 15.5 69.241 15.62 69.6277 15.62ZM79.3022 12.68L80.5622 9.78L79.7422 7.86C79.5822 7.51333 79.4222 7.23333 79.2622 7.02C79.1022 6.79333 78.9222 6.62667 78.7222 6.52C78.5489 6.41333 78.4822 6.3 78.5222 6.18C78.5622 6.06 78.6822 6 78.8822 6H82.5022C82.7555 6 82.8955 6.05333 82.9222 6.16C82.9622 6.25333 82.8755 6.38667 82.6622 6.56C82.5022 6.69333 82.4289 6.88 82.4422 7.12C82.4555 7.34667 82.5155 7.58 82.6222 7.82L84.7622 12.68L86.8822 7.82C86.9889 7.58 87.0489 7.34667 87.0622 7.12C87.0889 6.88 87.0222 6.69333 86.8622 6.56C86.4489 6.18667 86.5022 6 87.0222 6H88.3022C88.5022 6 88.6155 6.06 88.6422 6.18C88.6822 6.3 88.6155 6.41333 88.4422 6.52C88.2422 6.62667 88.0622 6.79333 87.9022 7.02C87.7422 7.24667 87.5755 7.55333 87.4022 7.94L83.8622 16.04C83.8089 16.2133 83.7155 16.3 83.5822 16.3C83.4622 16.3 83.3622 16.2133 83.2822 16.04L80.8622 10.42L78.4022 16.04C78.3489 16.2133 78.2555 16.3 78.1222 16.3C78.0022 16.3 77.9022 16.2133 77.8222 16.04L74.2822 7.86C74.1222 7.51333 73.9622 7.23333 73.8022 7.02C73.6422 6.79333 73.4622 6.62667 73.2622 6.52C73.0889 6.41333 73.0222 6.3 73.0622 6.18C73.1022 6.06 73.2222 6 73.4222 6H77.0422C77.2955 6 77.4355 6.05333 77.4622 6.16C77.5022 6.25333 77.4155 6.38667 77.2022 6.56C77.0422 6.69333 76.9689 6.88 76.9822 7.12C76.9955 7.34667 77.0555 7.58 77.1622 7.82L79.3022 12.68Z" fill="white"/>
</svg>
