<svg width="269" height="106" viewBox="0 0 269 106" fill="none" xmlns="http://www.w3.org/2000/svg">
<g filter="url(#filter0_i_259_4651)">
<path d="M0 86C0 97.0457 8.9543 106 20 106H249C260.046 106 269 97.0457 269 86V20C269 8.9543 260.046 0 249 0H20C8.95431 0 0 8.95431 0 20V86Z" fill="white"/>
</g>
<path d="M0.125 86C0.125 96.9767 9.02334 105.875 20 105.875H249C259.977 105.875 268.875 96.9767 268.875 86V20C268.875 9.02334 259.977 0.125 249 0.125H20C9.02335 0.125 0.125 9.02335 0.125 20V86Z" stroke="#D6DCF3" stroke-opacity="0.25" stroke-width="0.25"/>
<g filter="url(#filter1_d_259_4651)">
<rect width="192.035" height="22.2358" rx="5" transform="matrix(1 0 0 -1 11.6953 31.0093)" fill="white"/>
</g>
<path d="M79.5615 16H86.421M79.5615 18.3803H84.4612M79.5615 20.7606H86.421M79.5615 23.1408H82.5013" stroke="#1B375A" stroke-linecap="round" stroke-linejoin="round"/>
<path d="M121.747 23.1408H116.817M121.747 20.7606H113.858M121.747 18.3803H116.817M121.747 16H113.858" stroke="#1B375A" stroke-linecap="round" stroke-linejoin="round"/>
<path d="M96.71 16H103.569M97.6899 18.3803H102.59M96.71 20.7606H103.569M98.6698 23.1408H101.61" stroke="#1B375A" stroke-linecap="round" stroke-linejoin="round"/>
<path d="M161.439 21.7118C161.596 21.7118 161.747 21.787 161.858 21.921C161.968 22.055 162.031 22.2367 162.031 22.4262C162.031 22.6157 161.968 22.7974 161.858 22.9314C161.747 23.0653 161.596 23.1406 161.439 23.1406C161.282 23.1406 161.132 23.0653 161.021 22.9314C160.91 22.7974 160.848 22.6157 160.848 22.4262C160.848 22.2367 160.91 22.055 161.021 21.921C161.132 21.787 161.282 21.7118 161.439 21.7118ZM163.017 21.9499H168.342C168.443 21.95 168.539 21.9965 168.612 22.0799C168.686 22.1632 168.73 22.2771 168.735 22.3983C168.741 22.5195 168.709 22.6388 168.644 22.7319C168.58 22.825 168.488 22.8848 168.388 22.8991L168.342 22.9025H163.017C162.916 22.9022 162.82 22.8556 162.747 22.7723C162.674 22.6889 162.63 22.575 162.624 22.4539C162.618 22.3327 162.651 22.2134 162.715 22.1204C162.78 22.0274 162.871 21.9676 162.971 21.9532L163.017 21.9499ZM161.439 18.8541C161.596 18.8541 161.747 18.9294 161.858 19.0633C161.968 19.1973 162.031 19.379 162.031 19.5685C162.031 19.758 161.968 19.9397 161.858 20.0737C161.747 20.2077 161.596 20.2829 161.439 20.2829C161.282 20.2829 161.132 20.2077 161.021 20.0737C160.91 19.9397 160.848 19.758 160.848 19.5685C160.848 19.379 160.91 19.1973 161.021 19.0633C161.132 18.9294 161.282 18.8541 161.439 18.8541ZM163.017 19.0922H168.342C168.443 19.0924 168.539 19.1389 168.612 19.2222C168.686 19.3055 168.73 19.4194 168.735 19.5406C168.741 19.6618 168.709 19.7811 168.644 19.8742C168.58 19.9673 168.488 20.0271 168.388 20.0415L168.342 20.0448H163.017C162.916 20.0445 162.82 19.998 162.747 19.9146C162.674 19.8312 162.63 19.7173 162.624 19.5962C162.618 19.475 162.651 19.3558 162.715 19.2627C162.78 19.1697 162.871 19.1099 162.971 19.0956L163.017 19.0922ZM161.439 16.0002C161.518 15.9978 161.597 16.0144 161.67 16.0492C161.744 16.084 161.811 16.1362 161.867 16.2028C161.924 16.2693 161.969 16.3489 162 16.4368C162.03 16.5246 162.046 16.619 162.046 16.7144C162.046 16.8098 162.03 16.9042 162 16.9921C161.969 17.0799 161.924 17.1595 161.867 17.2261C161.811 17.2926 161.744 17.3448 161.67 17.3796C161.597 17.4144 161.518 17.4311 161.439 17.4286C161.282 17.4286 161.132 17.3533 161.021 17.2193C160.91 17.0854 160.848 16.9037 160.848 16.7142C160.848 16.5247 160.91 16.343 161.021 16.209C161.132 16.075 161.282 16.0002 161.439 16.0002ZM163.017 16.2346H168.342C168.443 16.2347 168.539 16.2812 168.612 16.3645C168.686 16.4479 168.73 16.5617 168.735 16.6829C168.741 16.8041 168.709 16.9234 168.644 17.0165C168.58 17.1096 168.488 17.1695 168.388 17.1838L168.342 17.1871H163.017C162.916 17.1869 162.82 17.1403 162.747 17.0569C162.674 16.9736 162.63 16.8597 162.624 16.7385C162.618 16.6174 162.651 16.4981 162.715 16.4051C162.78 16.312 162.871 16.2522 162.971 16.2379L163.017 16.2346Z" fill="#1B375A"/>
<path d="M179.885 16.2098C179.885 16.1624 179.872 16.1165 179.848 16.0794C179.824 16.0422 179.791 16.0161 179.753 16.0052C179.715 15.9948 179.676 16.0001 179.641 16.0203C179.606 16.0406 179.577 16.0746 179.56 16.1169C179.528 16.1864 179.491 16.2525 179.451 16.3148C179.362 16.4546 179.25 16.5696 179.122 16.6521C179.102 16.6643 179.084 16.6813 179.069 16.7022C179.054 16.723 179.043 16.7473 179.035 16.7736C179.028 16.7998 179.025 16.8276 179.027 16.8552C179.028 16.8829 179.034 16.9099 179.045 16.9347C179.055 16.9595 179.069 16.9815 179.086 16.9996C179.103 17.0177 179.123 17.0315 179.144 17.0401C179.166 17.0488 179.189 17.0521 179.211 17.05C179.234 17.0478 179.256 17.0402 179.276 17.0276C179.379 16.9646 179.467 16.8865 179.542 16.8054V17.89C179.542 17.9457 179.56 17.9991 179.592 18.0385C179.624 18.0779 179.668 18.1 179.714 18.1C179.759 18.1 179.803 18.0779 179.835 18.0385C179.867 17.9991 179.885 17.9457 179.885 17.89V16.2098ZM181.171 17.2599C181.103 17.2599 181.038 17.2931 180.989 17.3522C180.941 17.4113 180.914 17.4914 180.914 17.5749C180.914 17.6585 180.941 17.7386 180.989 17.7977C181.038 17.8568 181.103 17.89 181.171 17.89H183.743C183.812 17.89 183.877 17.8568 183.925 17.7977C183.974 17.7386 184.001 17.6585 184.001 17.5749C184.001 17.4914 183.974 17.4113 183.925 17.3522C183.877 17.2931 183.812 17.2599 183.743 17.2599H181.171ZM181.171 19.3601C181.103 19.3601 181.038 19.3933 180.989 19.4524C180.941 19.5115 180.914 19.5916 180.914 19.6752C180.914 19.7587 180.941 19.8389 180.989 19.8979C181.038 19.957 181.103 19.9902 181.171 19.9902H183.743C183.812 19.9902 183.877 19.957 183.925 19.8979C183.974 19.8389 184.001 19.7587 184.001 19.6752C184.001 19.5916 183.974 19.5115 183.925 19.4524C183.877 19.3933 183.812 19.3601 183.743 19.3601H181.171ZM180.914 21.7754C180.914 21.6919 180.941 21.6117 180.989 21.5527C181.038 21.4936 181.103 21.4604 181.171 21.4604H183.743C183.812 21.4604 183.877 21.4936 183.925 21.5527C183.974 21.6117 184.001 21.6919 184.001 21.7754C184.001 21.859 183.974 21.9391 183.925 21.9982C183.877 22.0573 183.812 22.0905 183.743 22.0905H181.171C181.103 22.0905 181.038 22.0573 180.989 21.9982C180.941 21.9391 180.914 21.859 180.914 21.7754ZM179.078 18.7914C179.046 18.8308 179.029 18.8838 179.029 18.9389C179.029 18.994 179.047 19.0468 179.079 19.0859C179.11 19.125 179.153 19.1473 179.198 19.148C179.243 19.1487 179.287 19.1278 179.319 19.0896L179.321 19.0875C179.347 19.0614 179.374 19.0385 179.403 19.0191C179.461 18.9792 179.545 18.9401 179.649 18.9401C179.727 18.9418 179.79 18.9674 179.829 19.0027C179.862 19.0321 179.885 19.0741 179.885 19.1501C179.885 19.235 179.861 19.2845 179.813 19.3333C179.76 19.3862 179.693 19.4274 179.6 19.4832L179.551 19.5135C179.443 19.5794 179.31 19.6664 179.206 19.8062C179.095 19.9549 179.027 20.1503 179.027 20.4103C179.027 20.466 179.045 20.5194 179.077 20.5588C179.11 20.5982 179.153 20.6203 179.199 20.6203H180.056C180.102 20.6203 180.145 20.5982 180.177 20.5588C180.21 20.5194 180.228 20.466 180.228 20.4103C180.228 20.3546 180.21 20.3011 180.177 20.2618C180.145 20.2224 180.102 20.2002 180.056 20.2002H179.401C179.416 20.1594 179.435 20.1217 179.46 20.0889C179.517 20.0121 179.598 19.9545 179.705 19.8894C179.718 19.881 179.732 19.8726 179.746 19.8642C179.836 19.81 179.946 19.7441 180.032 19.6559C180.145 19.5412 180.228 19.3803 180.228 19.1501C180.228 18.9384 180.151 18.7721 180.033 18.665C179.921 18.5633 179.782 18.5226 179.654 18.52H179.651C179.441 18.5206 179.239 18.6151 179.083 18.7855L179.08 18.7889L179.079 18.7906L179.078 18.791L179.078 18.7914ZM179.083 18.7855L179.078 18.7914C179.078 18.7914 179.112 18.7536 179.083 18.7855ZM179.456 22.0905C179.456 22.0348 179.474 21.9813 179.507 21.942C179.539 21.9026 179.582 21.8804 179.628 21.8804C179.745 21.8804 179.81 21.8397 179.843 21.8036C179.858 21.7881 179.869 21.7688 179.877 21.7472C179.885 21.7255 179.888 21.702 179.887 21.6784C179.885 21.5969 179.824 21.46 179.628 21.46C179.486 21.46 179.413 21.5032 179.38 21.5301C179.369 21.539 179.358 21.5497 179.35 21.562L179.348 21.5641C179.326 21.6113 179.29 21.646 179.247 21.661C179.204 21.676 179.158 21.67 179.119 21.6444C179.08 21.6188 179.05 21.5755 179.037 21.5237C179.023 21.4719 179.026 21.4156 179.046 21.3667V21.3659L179.046 21.365L179.047 21.3638L179.048 21.3613L179.051 21.3545C179.062 21.3329 179.073 21.3124 179.087 21.2932C179.109 21.2592 179.143 21.2189 179.189 21.1806C179.285 21.1025 179.426 21.0403 179.628 21.0403C179.981 21.0403 180.22 21.3239 180.23 21.6624C180.235 21.817 180.19 21.9716 180.094 22.0905C180.19 22.2093 180.235 22.3639 180.23 22.5185C180.22 22.8571 179.981 23.1402 179.628 23.1402C179.426 23.1402 179.285 23.0784 179.19 23.0003C179.151 22.9691 179.116 22.9312 179.086 22.8877C179.073 22.8685 179.061 22.848 179.051 22.8264L179.048 22.8197L179.047 22.8172L179.046 22.8155L179.046 22.8142C179.026 22.7653 179.023 22.709 179.037 22.6572C179.05 22.6054 179.08 22.5621 179.119 22.5365C179.158 22.5109 179.204 22.505 179.247 22.5199C179.29 22.5349 179.326 22.5696 179.348 22.6168L179.35 22.6189C179.353 22.6244 179.363 22.6365 179.38 22.6508C179.413 22.6777 179.486 22.7205 179.628 22.7205C179.823 22.7205 179.885 22.584 179.887 22.5025C179.888 22.4789 179.885 22.4554 179.877 22.4337C179.869 22.412 179.857 22.3928 179.843 22.3774C179.811 22.3412 179.746 22.3005 179.628 22.3005C179.582 22.3005 179.539 22.2784 179.507 22.239C179.474 22.1996 179.456 22.1462 179.456 22.0905ZM179.348 21.5641C179.35 21.561 179.351 21.5577 179.352 21.5545L179.352 21.5553L179.352 21.5566L179.351 21.5583L179.349 21.5616L179.348 21.565L179.348 21.5641Z" fill="#1B375A"/>
<path d="M24 16.5251C24 16.2352 24.1921 16 24.4287 16H26.1436C26.4417 16.0003 26.734 16.1007 26.9888 16.2903C27.2435 16.4799 27.4509 16.7514 27.5884 17.0754C27.7259 17.3993 27.7883 17.7632 27.7686 18.1275C27.749 18.4918 27.6482 18.8426 27.4771 19.1416C27.8294 19.3454 28.1146 19.6901 28.2856 20.1189C28.4566 20.5478 28.5032 21.0351 28.4179 21.5008C28.3325 21.9664 28.1202 22.3825 27.8159 22.6807C27.5116 22.9788 27.1335 23.1411 26.7438 23.1408H24.4287C24.1921 23.1408 24 22.9056 24 22.6158V16.5251ZM24.8574 19.9905V22.0907H26.7438C26.9712 22.0907 27.1893 21.9801 27.3501 21.7831C27.5109 21.5862 27.6012 21.3191 27.6012 21.0406C27.6012 20.7621 27.5109 20.495 27.3501 20.298C27.1893 20.1011 26.9712 19.9905 26.7438 19.9905H24.8574ZM24.8574 18.9403H26.1439C26.3486 18.9403 26.5449 18.8407 26.6896 18.6634C26.8343 18.4861 26.9155 18.2457 26.9155 17.995C26.9154 17.7444 26.8341 17.504 26.6893 17.3268C26.5446 17.1496 26.3483 17.0501 26.1436 17.0501H24.8574V18.9403Z" fill="#1B375A"/>
<path d="M40.6916 16.4463C40.6916 16.3279 40.73 16.2144 40.7983 16.1307C40.8667 16.047 40.9593 16 41.056 16H44.2142C44.3109 16 44.4036 16.047 44.4719 16.1307C44.5402 16.2144 44.5786 16.3279 44.5786 16.4463C44.5786 16.5647 44.5402 16.6782 44.4719 16.7619C44.4036 16.8456 44.3109 16.8926 44.2142 16.8926H42.9971L41.1226 22.2482H42.2707C42.3673 22.2482 42.46 22.2953 42.5284 22.379C42.5967 22.4627 42.6351 22.5762 42.6351 22.6945C42.6351 22.8129 42.5967 22.9264 42.5284 23.0101C42.46 23.0938 42.3673 23.1408 42.2707 23.1408H39.1125C39.0158 23.1408 38.9231 23.0938 38.8548 23.0101C38.7864 22.9264 38.748 22.8129 38.748 22.6945C38.748 22.5762 38.7864 22.4627 38.8548 22.379C38.9231 22.2953 39.0158 22.2482 39.1125 22.2482H40.3296L42.2041 16.8926H41.056C40.9593 16.8926 40.8667 16.8456 40.7983 16.7619C40.73 16.6782 40.6916 16.5647 40.6916 16.4463Z" fill="#1B375A"/>
<line x1="59.4824" y1="13.5691" x2="59.4824" y2="25.4134" stroke="#1B375A" stroke-opacity="0.5" stroke-width="0.5"/>
<line x1="148.897" y1="13.5691" x2="148.897" y2="25.4134" stroke="#1B375A" stroke-opacity="0.5" stroke-width="0.5"/>
<path d="M15.44 47.904H18.4V48.408H15.44V47.904ZM15.504 50.488H18.872V51H14.912V45.4H18.752V45.912H15.504V50.488ZM21.8251 51.04C21.4091 51.04 21.0357 50.9493 20.7051 50.768C20.3797 50.5813 20.1237 50.328 19.9371 50.008C19.7504 49.6827 19.6571 49.312 19.6571 48.896C19.6571 48.4747 19.7504 48.104 19.9371 47.784C20.1237 47.464 20.3797 47.2133 20.7051 47.032C21.0357 46.8507 21.4091 46.76 21.8251 46.76C22.1824 46.76 22.5051 46.8293 22.7931 46.968C23.0811 47.1067 23.3077 47.3147 23.4731 47.592L23.0491 47.88C22.9051 47.6667 22.7264 47.5093 22.5131 47.408C22.2997 47.3067 22.0677 47.256 21.8171 47.256C21.5184 47.256 21.2491 47.3253 21.0091 47.464C20.7691 47.5973 20.5797 47.7867 20.4411 48.032C20.3024 48.2773 20.2331 48.5653 20.2331 48.896C20.2331 49.2267 20.3024 49.5147 20.4411 49.76C20.5797 50.0053 20.7691 50.1973 21.0091 50.336C21.2491 50.4693 21.5184 50.536 21.8171 50.536C22.0677 50.536 22.2997 50.4853 22.5131 50.384C22.7264 50.2827 22.9051 50.128 23.0491 49.92L23.4731 50.208C23.3077 50.48 23.0811 50.688 22.7931 50.832C22.5051 50.9707 22.1824 51.04 21.8251 51.04ZM24.5889 51V46.8H25.1329V47.944L25.0769 47.744C25.1942 47.424 25.3915 47.1813 25.6689 47.016C25.9462 46.8453 26.2902 46.76 26.7009 46.76V47.312C26.6795 47.312 26.6582 47.312 26.6369 47.312C26.6155 47.3067 26.5942 47.304 26.5729 47.304C26.1302 47.304 25.7835 47.44 25.5329 47.712C25.2822 47.9787 25.1569 48.36 25.1569 48.856V51H24.5889ZM27.7373 51V46.8H28.3053V51H27.7373ZM28.0253 45.872C27.908 45.872 27.8093 45.832 27.7293 45.752C27.6493 45.672 27.6093 45.576 27.6093 45.464C27.6093 45.352 27.6493 45.2587 27.7293 45.184C27.8093 45.104 27.908 45.064 28.0253 45.064C28.1426 45.064 28.2413 45.1013 28.3213 45.176C28.4013 45.2507 28.4413 45.344 28.4413 45.456C28.4413 45.5733 28.4013 45.672 28.3213 45.752C28.2466 45.832 28.148 45.872 28.0253 45.872ZM30.9658 51L29.1018 46.8H29.6938L31.4058 50.696H31.1258L32.8618 46.8H33.4218L31.5498 51H30.9658ZM35.8885 51.04C35.4512 51.04 35.0672 50.9493 34.7365 50.768C34.4058 50.5813 34.1472 50.328 33.9605 50.008C33.7738 49.6827 33.6805 49.312 33.6805 48.896C33.6805 48.48 33.7685 48.112 33.9445 47.792C34.1258 47.472 34.3712 47.2213 34.6805 47.04C34.9952 46.8533 35.3472 46.76 35.7365 46.76C36.1312 46.76 36.4805 46.8507 36.7845 47.032C37.0938 47.208 37.3365 47.4587 37.5125 47.784C37.6885 48.104 37.7765 48.4747 37.7765 48.896C37.7765 48.9227 37.7738 48.952 37.7685 48.984C37.7685 49.0107 37.7685 49.04 37.7685 49.072H34.1125V48.648H37.4645L37.2405 48.816C37.2405 48.512 37.1738 48.2427 37.0405 48.008C36.9125 47.768 36.7365 47.5813 36.5125 47.448C36.2885 47.3147 36.0298 47.248 35.7365 47.248C35.4485 47.248 35.1898 47.3147 34.9605 47.448C34.7312 47.5813 34.5525 47.768 34.4245 48.008C34.2965 48.248 34.2325 48.5227 34.2325 48.832V48.92C34.2325 49.24 34.3018 49.5227 34.4405 49.768C34.5845 50.008 34.7818 50.1973 35.0325 50.336C35.2885 50.4693 35.5792 50.536 35.9045 50.536C36.1605 50.536 36.3978 50.4907 36.6165 50.4C36.8405 50.3093 37.0325 50.1707 37.1925 49.984L37.5125 50.352C37.3258 50.576 37.0912 50.7467 36.8085 50.864C36.5312 50.9813 36.2245 51.04 35.8885 51.04ZM38.4376 51V50.624L41.2376 47.08L41.3576 47.272H38.4856V46.8H41.8056V47.168L39.0136 50.72L38.8696 50.528H41.8616V51H38.4376ZM46.1533 51L44.2893 46.8H44.8813L46.5933 50.696H46.3133L48.0493 46.8H48.6093L46.7373 51H46.1533ZM51.004 51.04C50.5987 51.04 50.2333 50.9493 49.908 50.768C49.588 50.5813 49.3347 50.328 49.148 50.008C48.9613 49.6827 48.868 49.312 48.868 48.896C48.868 48.4747 48.9613 48.104 49.148 47.784C49.3347 47.464 49.588 47.2133 49.908 47.032C50.228 46.8507 50.5933 46.76 51.004 46.76C51.42 46.76 51.788 46.8507 52.108 47.032C52.4333 47.2133 52.6867 47.464 52.868 47.784C53.0547 48.104 53.148 48.4747 53.148 48.896C53.148 49.312 53.0547 49.6827 52.868 50.008C52.6867 50.328 52.4333 50.5813 52.108 50.768C51.7827 50.9493 51.4147 51.04 51.004 51.04ZM51.004 50.536C51.308 50.536 51.5773 50.4693 51.812 50.336C52.0467 50.1973 52.2307 50.0053 52.364 49.76C52.5027 49.5093 52.572 49.2213 52.572 48.896C52.572 48.5653 52.5027 48.2773 52.364 48.032C52.2307 47.7867 52.0467 47.5973 51.812 47.464C51.5773 47.3253 51.3107 47.256 51.012 47.256C50.7133 47.256 50.4467 47.3253 50.212 47.464C49.9773 47.5973 49.7907 47.7867 49.652 48.032C49.5133 48.2773 49.444 48.5653 49.444 48.896C49.444 49.2213 49.5133 49.5093 49.652 49.76C49.7907 50.0053 49.9773 50.1973 50.212 50.336C50.4467 50.4693 50.7107 50.536 51.004 50.536ZM55.6356 51.04C55.241 51.04 54.937 50.9333 54.7236 50.72C54.5103 50.5067 54.4036 50.2053 54.4036 49.816V45.872H54.9716V49.784C54.9716 50.0293 55.033 50.2187 55.1556 50.352C55.2836 50.4853 55.465 50.552 55.6996 50.552C55.9503 50.552 56.1583 50.48 56.3236 50.336L56.5236 50.744C56.4116 50.8453 56.2756 50.92 56.1156 50.968C55.961 51.016 55.801 51.04 55.6356 51.04ZM53.6516 47.272V46.8H56.2516V47.272H53.6516ZM57.5576 51V46.8H58.1016V47.944L58.0456 47.744C58.163 47.424 58.3603 47.1813 58.6376 47.016C58.915 46.8453 59.259 46.76 59.6696 46.76V47.312C59.6483 47.312 59.627 47.312 59.6056 47.312C59.5843 47.3067 59.563 47.304 59.5416 47.304C59.099 47.304 58.7523 47.44 58.5016 47.712C58.251 47.9787 58.1256 48.36 58.1256 48.856V51H57.5576ZM62.451 51.04C62.0137 51.04 61.6297 50.9493 61.299 50.768C60.9683 50.5813 60.7097 50.328 60.523 50.008C60.3363 49.6827 60.243 49.312 60.243 48.896C60.243 48.48 60.331 48.112 60.507 47.792C60.6883 47.472 60.9337 47.2213 61.243 47.04C61.5577 46.8533 61.9097 46.76 62.299 46.76C62.6937 46.76 63.043 46.8507 63.347 47.032C63.6563 47.208 63.899 47.4587 64.075 47.784C64.251 48.104 64.339 48.4747 64.339 48.896C64.339 48.9227 64.3363 48.952 64.331 48.984C64.331 49.0107 64.331 49.04 64.331 49.072H60.675V48.648H64.027L63.803 48.816C63.803 48.512 63.7363 48.2427 63.603 48.008C63.475 47.768 63.299 47.5813 63.075 47.448C62.851 47.3147 62.5923 47.248 62.299 47.248C62.011 47.248 61.7523 47.3147 61.523 47.448C61.2937 47.5813 61.115 47.768 60.987 48.008C60.859 48.248 60.795 48.5227 60.795 48.832V48.92C60.795 49.24 60.8643 49.5227 61.003 49.768C61.147 50.008 61.3443 50.1973 61.595 50.336C61.851 50.4693 62.1417 50.536 62.467 50.536C62.723 50.536 62.9603 50.4907 63.179 50.4C63.403 50.3093 63.595 50.1707 63.755 49.984L64.075 50.352C63.8883 50.576 63.6537 50.7467 63.371 50.864C63.0937 50.9813 62.787 51.04 62.451 51.04ZM16.536 61.04C16.12 61.04 15.7467 60.9493 15.416 60.768C15.0907 60.5813 14.8347 60.328 14.648 60.008C14.4613 59.6827 14.368 59.312 14.368 58.896C14.368 58.4747 14.4613 58.104 14.648 57.784C14.8347 57.464 15.0907 57.2133 15.416 57.032C15.7467 56.8507 16.12 56.76 16.536 56.76C16.8933 56.76 17.216 56.8293 17.504 56.968C17.792 57.1067 18.0187 57.3147 18.184 57.592L17.76 57.88C17.616 57.6667 17.4373 57.5093 17.224 57.408C17.0107 57.3067 16.7787 57.256 16.528 57.256C16.2293 57.256 15.96 57.3253 15.72 57.464C15.48 57.5973 15.2907 57.7867 15.152 58.032C15.0133 58.2773 14.944 58.5653 14.944 58.896C14.944 59.2267 15.0133 59.5147 15.152 59.76C15.2907 60.0053 15.48 60.1973 15.72 60.336C15.96 60.4693 16.2293 60.536 16.528 60.536C16.7787 60.536 17.0107 60.4853 17.224 60.384C17.4373 60.2827 17.616 60.128 17.76 59.92L18.184 60.208C18.0187 60.48 17.792 60.688 17.504 60.832C17.216 60.9707 16.8933 61.04 16.536 61.04ZM20.9415 61.04C20.5362 61.04 20.1708 60.9493 19.8455 60.768C19.5255 60.5813 19.2722 60.328 19.0855 60.008C18.8988 59.6827 18.8055 59.312 18.8055 58.896C18.8055 58.4747 18.8988 58.104 19.0855 57.784C19.2722 57.464 19.5255 57.2133 19.8455 57.032C20.1655 56.8507 20.5308 56.76 20.9415 56.76C21.3575 56.76 21.7255 56.8507 22.0455 57.032C22.3708 57.2133 22.6242 57.464 22.8055 57.784C22.9922 58.104 23.0855 58.4747 23.0855 58.896C23.0855 59.312 22.9922 59.6827 22.8055 60.008C22.6242 60.328 22.3708 60.5813 22.0455 60.768C21.7202 60.9493 21.3522 61.04 20.9415 61.04ZM20.9415 60.536C21.2455 60.536 21.5148 60.4693 21.7495 60.336C21.9842 60.1973 22.1682 60.0053 22.3015 59.76C22.4402 59.5093 22.5095 59.2213 22.5095 58.896C22.5095 58.5653 22.4402 58.2773 22.3015 58.032C22.1682 57.7867 21.9842 57.5973 21.7495 57.464C21.5148 57.3253 21.2482 57.256 20.9495 57.256C20.6508 57.256 20.3842 57.3253 20.1495 57.464C19.9148 57.5973 19.7282 57.7867 19.5895 58.032C19.4508 58.2773 19.3815 58.5653 19.3815 58.896C19.3815 59.2213 19.4508 59.5093 19.5895 59.76C19.7282 60.0053 19.9148 60.1973 20.1495 60.336C20.3842 60.4693 20.6482 60.536 20.9415 60.536ZM29.4931 56.76C29.8345 56.76 30.1305 56.8267 30.3811 56.96C30.6371 57.088 30.8345 57.2853 30.9731 57.552C31.1171 57.8187 31.1891 58.1547 31.1891 58.56V61H30.6211V58.616C30.6211 58.1733 30.5145 57.84 30.3011 57.616C30.0931 57.3867 29.7971 57.272 29.4131 57.272C29.1251 57.272 28.8745 57.3333 28.6611 57.456C28.4531 57.5733 28.2905 57.7467 28.1731 57.976C28.0611 58.2 28.0051 58.472 28.0051 58.792V61H27.4371V58.616C27.4371 58.1733 27.3305 57.84 27.1171 57.616C26.9038 57.3867 26.6051 57.272 26.2211 57.272C25.9385 57.272 25.6905 57.3333 25.4771 57.456C25.2638 57.5733 25.0985 57.7467 24.9811 57.976C24.8691 58.2 24.8131 58.472 24.8131 58.792V61H24.2451V56.8H24.7891V57.936L24.7011 57.736C24.8291 57.432 25.0345 57.1947 25.3171 57.024C25.6051 56.848 25.9438 56.76 26.3331 56.76C26.7438 56.76 27.0931 56.864 27.3811 57.072C27.6691 57.2747 27.8558 57.5813 27.9411 57.992L27.7171 57.904C27.8398 57.5627 28.0558 57.288 28.3651 57.08C28.6798 56.8667 29.0558 56.76 29.4931 56.76ZM37.9775 56.76C38.3188 56.76 38.6148 56.8267 38.8655 56.96C39.1215 57.088 39.3188 57.2853 39.4575 57.552C39.6015 57.8187 39.6735 58.1547 39.6735 58.56V61H39.1055V58.616C39.1055 58.1733 38.9988 57.84 38.7855 57.616C38.5775 57.3867 38.2815 57.272 37.8975 57.272C37.6095 57.272 37.3588 57.3333 37.1455 57.456C36.9375 57.5733 36.7748 57.7467 36.6575 57.976C36.5455 58.2 36.4895 58.472 36.4895 58.792V61H35.9215V58.616C35.9215 58.1733 35.8148 57.84 35.6015 57.616C35.3882 57.3867 35.0895 57.272 34.7055 57.272C34.4228 57.272 34.1748 57.3333 33.9615 57.456C33.7482 57.5733 33.5828 57.7467 33.4655 57.976C33.3535 58.2 33.2975 58.472 33.2975 58.792V61H32.7295V56.8H33.2735V57.936L33.1855 57.736C33.3135 57.432 33.5188 57.1947 33.8015 57.024C34.0895 56.848 34.4282 56.76 34.8175 56.76C35.2282 56.76 35.5775 56.864 35.8655 57.072C36.1535 57.2747 36.3402 57.5813 36.4255 57.992L36.2015 57.904C36.3242 57.5627 36.5402 57.288 36.8495 57.08C37.1642 56.8667 37.5402 56.76 37.9775 56.76ZM42.9979 61.04C42.5605 61.04 42.1765 60.9493 41.8459 60.768C41.5152 60.5813 41.2565 60.328 41.0699 60.008C40.8832 59.6827 40.7899 59.312 40.7899 58.896C40.7899 58.48 40.8779 58.112 41.0539 57.792C41.2352 57.472 41.4805 57.2213 41.7899 57.04C42.1045 56.8533 42.4565 56.76 42.8459 56.76C43.2405 56.76 43.5899 56.8507 43.8939 57.032C44.2032 57.208 44.4459 57.4587 44.6219 57.784C44.7979 58.104 44.8859 58.4747 44.8859 58.896C44.8859 58.9227 44.8832 58.952 44.8779 58.984C44.8779 59.0107 44.8779 59.04 44.8779 59.072H41.2219V58.648H44.5739L44.3499 58.816C44.3499 58.512 44.2832 58.2427 44.1499 58.008C44.0219 57.768 43.8459 57.5813 43.6219 57.448C43.3979 57.3147 43.1392 57.248 42.8459 57.248C42.5579 57.248 42.2992 57.3147 42.0699 57.448C41.8405 57.5813 41.6619 57.768 41.5339 58.008C41.4059 58.248 41.3419 58.5227 41.3419 58.832V58.92C41.3419 59.24 41.4112 59.5227 41.5499 59.768C41.6939 60.008 41.8912 60.1973 42.1419 60.336C42.3979 60.4693 42.6885 60.536 43.0139 60.536C43.2699 60.536 43.5072 60.4907 43.7259 60.4C43.9499 60.3093 44.1419 60.1707 44.3019 59.984L44.6219 60.352C44.4352 60.576 44.2005 60.7467 43.9179 60.864C43.6405 60.9813 43.3339 61.04 42.9979 61.04ZM48.186 56.76C48.5273 56.76 48.826 56.8267 49.082 56.96C49.3433 57.088 49.546 57.2853 49.69 57.552C49.8393 57.8187 49.914 58.1547 49.914 58.56V61H49.346V58.616C49.346 58.1733 49.234 57.84 49.01 57.616C48.7913 57.3867 48.482 57.272 48.082 57.272C47.7833 57.272 47.522 57.3333 47.298 57.456C47.0793 57.5733 46.9087 57.7467 46.786 57.976C46.6687 58.2 46.61 58.472 46.61 58.792V61H46.042V56.8H46.586V57.952L46.498 57.736C46.6313 57.432 46.8447 57.1947 47.138 57.024C47.4313 56.848 47.7807 56.76 48.186 56.76ZM52.7763 61.04C52.3816 61.04 52.0776 60.9333 51.8643 60.72C51.6509 60.5067 51.5443 60.2053 51.5443 59.816V55.872H52.1123V59.784C52.1123 60.0293 52.1736 60.2187 52.2963 60.352C52.4243 60.4853 52.6056 60.552 52.8403 60.552C53.0909 60.552 53.2989 60.48 53.4643 60.336L53.6643 60.744C53.5523 60.8453 53.4163 60.92 53.2563 60.968C53.1016 61.016 52.9416 61.04 52.7763 61.04ZM50.7923 57.272V56.8H53.3923V57.272H50.7923ZM57.3303 61V60.072L57.3063 59.92V58.368C57.3063 58.0107 57.2049 57.736 57.0023 57.544C56.8049 57.352 56.5089 57.256 56.1143 57.256C55.8423 57.256 55.5836 57.3013 55.3383 57.392C55.0929 57.4827 54.8849 57.6027 54.7143 57.752L54.4583 57.328C54.6716 57.1467 54.9276 57.008 55.2263 56.912C55.5249 56.8107 55.8396 56.76 56.1703 56.76C56.7143 56.76 57.1329 56.896 57.4263 57.168C57.7249 57.4347 57.8743 57.8427 57.8743 58.392V61H57.3303ZM55.8823 61.04C55.5676 61.04 55.2929 60.9893 55.0583 60.888C54.8289 60.7813 54.6529 60.6373 54.5303 60.456C54.4076 60.2693 54.3463 60.056 54.3463 59.816C54.3463 59.5973 54.3969 59.4 54.4983 59.224C54.6049 59.0427 54.7756 58.8987 55.0103 58.792C55.2503 58.68 55.5703 58.624 55.9703 58.624H57.4183V59.048H55.9863C55.5809 59.048 55.2983 59.12 55.1383 59.264C54.9836 59.408 54.9062 59.5867 54.9062 59.8C54.9062 60.04 54.9996 60.232 55.1863 60.376C55.3729 60.52 55.6343 60.592 55.9703 60.592C56.2903 60.592 56.5649 60.52 56.7943 60.376C57.0289 60.2267 57.1996 60.0133 57.3063 59.736L57.4343 60.128C57.3276 60.4053 57.1409 60.6267 56.8743 60.792C56.6129 60.9573 56.2823 61.04 55.8823 61.04ZM59.417 61V56.8H59.985V61H59.417ZM59.705 55.872C59.5877 55.872 59.489 55.832 59.409 55.752C59.329 55.672 59.289 55.576 59.289 55.464C59.289 55.352 59.329 55.2587 59.409 55.184C59.489 55.104 59.5877 55.064 59.705 55.064C59.8223 55.064 59.921 55.1013 60.001 55.176C60.081 55.2507 60.121 55.344 60.121 55.456C60.121 55.5733 60.081 55.672 60.001 55.752C59.9263 55.832 59.8277 55.872 59.705 55.872ZM61.5654 61V56.8H62.1094V57.944L62.0534 57.744C62.1708 57.424 62.3681 57.1813 62.6454 57.016C62.9228 56.8453 63.2668 56.76 63.6774 56.76V57.312C63.6561 57.312 63.6348 57.312 63.6134 57.312C63.5921 57.3067 63.5708 57.304 63.5494 57.304C63.1068 57.304 62.7601 57.44 62.5094 57.712C62.2588 57.9787 62.1334 58.36 62.1334 58.856V61H61.5654ZM66.4588 61.04C66.0215 61.04 65.6375 60.9493 65.3068 60.768C64.9761 60.5813 64.7175 60.328 64.5308 60.008C64.3441 59.6827 64.2508 59.312 64.2508 58.896C64.2508 58.48 64.3388 58.112 64.5148 57.792C64.6961 57.472 64.9415 57.2213 65.2508 57.04C65.5655 56.8533 65.9175 56.76 66.3068 56.76C66.7015 56.76 67.0508 56.8507 67.3548 57.032C67.6641 57.208 67.9068 57.4587 68.0828 57.784C68.2588 58.104 68.3468 58.4747 68.3468 58.896C68.3468 58.9227 68.3441 58.952 68.3388 58.984C68.3388 59.0107 68.3388 59.04 68.3388 59.072H64.6828V58.648H68.0348L67.8108 58.816C67.8108 58.512 67.7441 58.2427 67.6108 58.008C67.4828 57.768 67.3068 57.5813 67.0828 57.448C66.8588 57.3147 66.6001 57.248 66.3068 57.248C66.0188 57.248 65.7601 57.3147 65.5308 57.448C65.3015 57.5813 65.1228 57.768 64.9948 58.008C64.8668 58.248 64.8028 58.5227 64.8028 58.832V58.92C64.8028 59.24 64.8721 59.5227 65.0108 59.768C65.1548 60.008 65.3521 60.1973 65.6028 60.336C65.8588 60.4693 66.1495 60.536 66.4748 60.536C66.7308 60.536 66.9681 60.4907 67.1868 60.4C67.4108 60.3093 67.6028 60.1707 67.7628 59.984L68.0828 60.352C67.8961 60.576 67.6615 60.7467 67.3788 60.864C67.1015 60.9813 66.7948 61.04 66.4588 61.04ZM71.5967 61V56.8H72.1647V61H71.5967ZM71.8847 55.872C71.7674 55.872 71.6687 55.832 71.5887 55.752C71.5087 55.672 71.4687 55.576 71.4687 55.464C71.4687 55.352 71.5087 55.2587 71.5887 55.184C71.6687 55.104 71.7674 55.064 71.8847 55.064C72.002 55.064 72.1007 55.1013 72.1807 55.176C72.2607 55.2507 72.3007 55.344 72.3007 55.456C72.3007 55.5733 72.2607 55.672 72.1807 55.752C72.106 55.832 72.0074 55.872 71.8847 55.872ZM75.4891 61.04C75.0731 61.04 74.6998 60.9493 74.3691 60.768C74.0438 60.5813 73.7878 60.328 73.6011 60.008C73.4145 59.6827 73.3211 59.312 73.3211 58.896C73.3211 58.4747 73.4145 58.104 73.6011 57.784C73.7878 57.464 74.0438 57.2133 74.3691 57.032C74.6998 56.8507 75.0731 56.76 75.4891 56.76C75.8465 56.76 76.1691 56.8293 76.4571 56.968C76.7451 57.1067 76.9718 57.3147 77.1371 57.592L76.7131 57.88C76.5691 57.6667 76.3905 57.5093 76.1771 57.408C75.9638 57.3067 75.7318 57.256 75.4811 57.256C75.1825 57.256 74.9131 57.3253 74.6731 57.464C74.4331 57.5973 74.2438 57.7867 74.1051 58.032C73.9665 58.2773 73.8971 58.5653 73.8971 58.896C73.8971 59.2267 73.9665 59.5147 74.1051 59.76C74.2438 60.0053 74.4331 60.1973 74.6731 60.336C74.9131 60.4693 75.1825 60.536 75.4811 60.536C75.7318 60.536 75.9638 60.4853 76.1771 60.384C76.3905 60.2827 76.5691 60.128 76.7131 59.92L77.1371 60.208C76.9718 60.48 76.7451 60.688 76.4571 60.832C76.1691 60.9707 75.8465 61.04 75.4891 61.04ZM78.1904 61V56.8H78.7584V61H78.1904ZM78.4784 55.872C78.3611 55.872 78.2624 55.832 78.1824 55.752C78.1024 55.672 78.0624 55.576 78.0624 55.464C78.0624 55.352 78.1024 55.2587 78.1824 55.184C78.2624 55.104 78.3611 55.064 78.4784 55.064C78.5958 55.064 78.6944 55.1013 78.7744 55.176C78.8544 55.2507 78.8944 55.344 78.8944 55.456C78.8944 55.5733 78.8544 55.672 78.7744 55.752C78.6998 55.832 78.6011 55.872 78.4784 55.872ZM80.3949 61.04C80.2775 61.04 80.1762 60.9973 80.0909 60.912C80.0109 60.8267 79.9709 60.7227 79.9709 60.6C79.9709 60.472 80.0109 60.368 80.0909 60.288C80.1762 60.208 80.2775 60.168 80.3949 60.168C80.5122 60.168 80.6109 60.208 80.6909 60.288C80.7762 60.368 80.8189 60.472 80.8189 60.6C80.8189 60.7227 80.7762 60.8267 80.6909 60.912C80.6109 60.9973 80.5122 61.04 80.3949 61.04ZM82.0902 61.04C81.9729 61.04 81.8715 60.9973 81.7862 60.912C81.7062 60.8267 81.6662 60.7227 81.6662 60.6C81.6662 60.472 81.7062 60.368 81.7862 60.288C81.8715 60.208 81.9729 60.168 82.0902 60.168C82.2075 60.168 82.3062 60.208 82.3862 60.288C82.4715 60.368 82.5142 60.472 82.5142 60.6C82.5142 60.7227 82.4715 60.8267 82.3862 60.912C82.3062 60.9973 82.2075 61.04 82.0902 61.04ZM83.7855 61.04C83.6682 61.04 83.5668 60.9973 83.4815 60.912C83.4015 60.8267 83.3615 60.7227 83.3615 60.6C83.3615 60.472 83.4015 60.368 83.4815 60.288C83.5668 60.208 83.6682 60.168 83.7855 60.168C83.9028 60.168 84.0015 60.208 84.0815 60.288C84.1668 60.368 84.2095 60.472 84.2095 60.6C84.2095 60.7227 84.1668 60.8267 84.0815 60.912C84.0015 60.9973 83.9028 61.04 83.7855 61.04Z" fill="#1B375A" fill-opacity="0.3"/>
<defs>
<filter id="filter0_i_259_4651" x="0" y="0" width="269" height="107" filterUnits="userSpaceOnUse" color-interpolation-filters="sRGB">
<feFlood flood-opacity="0" result="BackgroundImageFix"/>
<feBlend mode="normal" in="SourceGraphic" in2="BackgroundImageFix" result="shape"/>
<feColorMatrix in="SourceAlpha" type="matrix" values="0 0 0 0 0 0 0 0 0 0 0 0 0 0 0 0 0 0 127 0" result="hardAlpha"/>
<feOffset dy="1"/>
<feGaussianBlur stdDeviation="2"/>
<feComposite in2="hardAlpha" operator="arithmetic" k2="-1" k3="1"/>
<feColorMatrix type="matrix" values="0 0 0 0 0.835294 0 0 0 0 0.898039 0 0 0 0 0.968627 0 0 0 0.35 0"/>
<feBlend mode="normal" in2="shape" result="effect1_innerShadow_259_4651"/>
</filter>
<filter id="filter1_d_259_4651" x="4.69531" y="4.77344" width="204.035" height="34.2358" filterUnits="userSpaceOnUse" color-interpolation-filters="sRGB">
<feFlood flood-opacity="0" result="BackgroundImageFix"/>
<feColorMatrix in="SourceAlpha" type="matrix" values="0 0 0 0 0 0 0 0 0 0 0 0 0 0 0 0 0 0 127 0" result="hardAlpha"/>
<feMorphology radius="2" operator="dilate" in="SourceAlpha" result="effect1_dropShadow_259_4651"/>
<feOffset dx="-1" dy="2"/>
<feGaussianBlur stdDeviation="2"/>
<feComposite in2="hardAlpha" operator="out"/>
<feColorMatrix type="matrix" values="0 0 0 0 0.854902 0 0 0 0 0.901961 0 0 0 0 0.945098 0 0 0 0.3 0"/>
<feBlend mode="normal" in2="BackgroundImageFix" result="effect1_dropShadow_259_4651"/>
<feBlend mode="normal" in="SourceGraphic" in2="effect1_dropShadow_259_4651" result="shape"/>
</filter>
</defs>
</svg>
