<svg width="291" height="32" viewBox="0 0 291 32" fill="none" xmlns="http://www.w3.org/2000/svg">
<rect width="291" height="32" rx="5" fill="#F5F6F7"/>
<rect x="20.5" y="11.5" width="9" height="9" rx="1.5" stroke="#1B375A"/>
<path d="M35.3612 19V13.4H37.7772C38.4012 13.4 38.8839 13.5253 39.2252 13.776C39.5719 14.0267 39.7452 14.3813 39.7452 14.84C39.7452 15.144 39.6732 15.4 39.5292 15.608C39.3906 15.816 39.1986 15.9733 38.9532 16.08C38.7132 16.1867 38.4492 16.24 38.1612 16.24L38.2972 16.048C38.6546 16.048 38.9612 16.104 39.2172 16.216C39.4786 16.3227 39.6812 16.4853 39.8252 16.704C39.9692 16.9173 40.0412 17.184 40.0412 17.504C40.0412 17.9787 39.8652 18.3467 39.5132 18.608C39.1666 18.8693 38.6412 19 37.9372 19H35.3612ZM35.9532 18.512H37.9292C38.4199 18.512 38.7959 18.4293 39.0572 18.264C39.3186 18.0933 39.4492 17.824 39.4492 17.456C39.4492 17.0933 39.3186 16.8293 39.0572 16.664C38.7959 16.4933 38.4199 16.408 37.9292 16.408H35.8892V15.92H37.7372C38.1852 15.92 38.5319 15.8347 38.7772 15.664C39.0279 15.4933 39.1532 15.24 39.1532 14.904C39.1532 14.5627 39.0279 14.3093 38.7772 14.144C38.5319 13.9733 38.1852 13.888 37.7372 13.888H35.9532V18.512ZM42.9845 19.04C42.5791 19.04 42.2138 18.9493 41.8885 18.768C41.5685 18.5813 41.3151 18.328 41.1285 18.008C40.9418 17.6827 40.8485 17.312 40.8485 16.896C40.8485 16.4747 40.9418 16.104 41.1285 15.784C41.3151 15.464 41.5685 15.2133 41.8885 15.032C42.2085 14.8507 42.5738 14.76 42.9845 14.76C43.4005 14.76 43.7685 14.8507 44.0885 15.032C44.4138 15.2133 44.6671 15.464 44.8485 15.784C45.0351 16.104 45.1285 16.4747 45.1285 16.896C45.1285 17.312 45.0351 17.6827 44.8485 18.008C44.6671 18.328 44.4138 18.5813 44.0885 18.768C43.7631 18.9493 43.3951 19.04 42.9845 19.04ZM42.9845 18.536C43.2885 18.536 43.5578 18.4693 43.7925 18.336C44.0271 18.1973 44.2111 18.0053 44.3445 17.76C44.4831 17.5093 44.5525 17.2213 44.5525 16.896C44.5525 16.5653 44.4831 16.2773 44.3445 16.032C44.2111 15.7867 44.0271 15.5973 43.7925 15.464C43.5578 15.3253 43.2911 15.256 42.9925 15.256C42.6938 15.256 42.4271 15.3253 42.1925 15.464C41.9578 15.5973 41.7711 15.7867 41.6325 16.032C41.4938 16.2773 41.4245 16.5653 41.4245 16.896C41.4245 17.2213 41.4938 17.5093 41.6325 17.76C41.7711 18.0053 41.9578 18.1973 42.1925 18.336C42.4271 18.4693 42.6911 18.536 42.9845 18.536ZM46.2881 19V14.8H46.8561V19H46.2881ZM46.5761 13.872C46.4588 13.872 46.3601 13.832 46.2801 13.752C46.2001 13.672 46.1601 13.576 46.1601 13.464C46.1601 13.352 46.2001 13.2587 46.2801 13.184C46.3601 13.104 46.4588 13.064 46.5761 13.064C46.6934 13.064 46.7921 13.1013 46.8721 13.176C46.9521 13.2507 46.9921 13.344 46.9921 13.456C46.9921 13.5733 46.9521 13.672 46.8721 13.752C46.7974 13.832 46.6988 13.872 46.5761 13.872ZM49.5645 19.04C49.2179 19.04 48.8899 18.992 48.5805 18.896C48.2712 18.7947 48.0285 18.6693 47.8525 18.52L48.1085 18.072C48.2792 18.2 48.4979 18.312 48.7645 18.408C49.0312 18.4987 49.3112 18.544 49.6045 18.544C50.0045 18.544 50.2925 18.4827 50.4685 18.36C50.6445 18.232 50.7325 18.064 50.7325 17.856C50.7325 17.7013 50.6819 17.5813 50.5805 17.496C50.4845 17.4053 50.3565 17.3387 50.1965 17.296C50.0365 17.248 49.8579 17.208 49.6605 17.176C49.4632 17.144 49.2659 17.1067 49.0685 17.064C48.8765 17.0213 48.7005 16.96 48.5405 16.88C48.3805 16.7947 48.2499 16.68 48.1485 16.536C48.0525 16.392 48.0045 16.2 48.0045 15.96C48.0045 15.7307 48.0685 15.5253 48.1965 15.344C48.3245 15.1627 48.5112 15.0213 48.7565 14.92C49.0072 14.8133 49.3112 14.76 49.6685 14.76C49.9405 14.76 50.2125 14.7973 50.4845 14.872C50.7565 14.9413 50.9805 15.0347 51.1565 15.152L50.9085 15.608C50.7219 15.48 50.5219 15.3893 50.3085 15.336C50.0952 15.2773 49.8819 15.248 49.6685 15.248C49.2899 15.248 49.0099 15.3147 48.8285 15.448C48.6525 15.576 48.5645 15.7413 48.5645 15.944C48.5645 16.104 48.6125 16.2293 48.7085 16.32C48.8099 16.4107 48.9405 16.4827 49.1005 16.536C49.2659 16.584 49.4445 16.624 49.6365 16.656C49.8339 16.688 50.0285 16.728 50.2205 16.776C50.4179 16.8187 50.5965 16.88 50.7565 16.96C50.9219 17.0347 51.0525 17.144 51.1485 17.288C51.2499 17.4267 51.3005 17.6107 51.3005 17.84C51.3005 18.0853 51.2312 18.2987 51.0925 18.48C50.9592 18.656 50.7619 18.7947 50.5005 18.896C50.2445 18.992 49.9325 19.04 49.5645 19.04Z" fill="#1B375A"/>
<rect x="107" y="11.5" width="9" height="9" rx="1.5" stroke="#1B375A"/>
<path d="M121.642 19V13.4H123.738C124.213 13.4 124.621 13.4773 124.962 13.632C125.304 13.7813 125.565 14 125.746 14.288C125.933 14.5707 126.026 14.9147 126.026 15.32C126.026 15.7147 125.933 16.056 125.746 16.344C125.565 16.6267 125.304 16.8453 124.962 17C124.621 17.1547 124.213 17.232 123.738 17.232H121.97L122.234 16.952V19H121.642ZM122.234 17L121.97 16.712H123.722C124.282 16.712 124.706 16.592 124.994 16.352C125.288 16.1067 125.434 15.7627 125.434 15.32C125.434 14.872 125.288 14.5253 124.994 14.28C124.706 14.0347 124.282 13.912 123.722 13.912H121.97L122.234 13.632V17ZM127.265 19V13.064H127.833V19H127.265ZM132.045 19V18.072L132.021 17.92V16.368C132.021 16.0107 131.92 15.736 131.717 15.544C131.52 15.352 131.224 15.256 130.829 15.256C130.557 15.256 130.298 15.3013 130.053 15.392C129.808 15.4827 129.6 15.6027 129.429 15.752L129.173 15.328C129.386 15.1467 129.642 15.008 129.941 14.912C130.24 14.8107 130.554 14.76 130.885 14.76C131.429 14.76 131.848 14.896 132.141 15.168C132.44 15.4347 132.589 15.8427 132.589 16.392V19H132.045ZM130.597 19.04C130.282 19.04 130.008 18.9893 129.773 18.888C129.544 18.7813 129.368 18.6373 129.245 18.456C129.122 18.2693 129.061 18.056 129.061 17.816C129.061 17.5973 129.112 17.4 129.213 17.224C129.32 17.0427 129.49 16.8987 129.725 16.792C129.965 16.68 130.285 16.624 130.685 16.624H132.133V17.048H130.701C130.296 17.048 130.013 17.12 129.853 17.264C129.698 17.408 129.621 17.5867 129.621 17.8C129.621 18.04 129.714 18.232 129.901 18.376C130.088 18.52 130.349 18.592 130.685 18.592C131.005 18.592 131.28 18.52 131.509 18.376C131.744 18.2267 131.914 18.0133 132.021 17.736L132.149 18.128C132.042 18.4053 131.856 18.6267 131.589 18.792C131.328 18.9573 130.997 19.04 130.597 19.04ZM135.26 19.04C134.913 19.04 134.585 18.992 134.276 18.896C133.967 18.7947 133.724 18.6693 133.548 18.52L133.804 18.072C133.975 18.2 134.193 18.312 134.46 18.408C134.727 18.4987 135.007 18.544 135.3 18.544C135.7 18.544 135.988 18.4827 136.164 18.36C136.34 18.232 136.428 18.064 136.428 17.856C136.428 17.7013 136.377 17.5813 136.276 17.496C136.18 17.4053 136.052 17.3387 135.892 17.296C135.732 17.248 135.553 17.208 135.356 17.176C135.159 17.144 134.961 17.1067 134.764 17.064C134.572 17.0213 134.396 16.96 134.236 16.88C134.076 16.7947 133.945 16.68 133.844 16.536C133.748 16.392 133.7 16.2 133.7 15.96C133.7 15.7307 133.764 15.5253 133.892 15.344C134.02 15.1627 134.207 15.0213 134.452 14.92C134.703 14.8133 135.007 14.76 135.364 14.76C135.636 14.76 135.908 14.7973 136.18 14.872C136.452 14.9413 136.676 15.0347 136.852 15.152L136.604 15.608C136.417 15.48 136.217 15.3893 136.004 15.336C135.791 15.2773 135.577 15.248 135.364 15.248C134.985 15.248 134.705 15.3147 134.524 15.448C134.348 15.576 134.26 15.7413 134.26 15.944C134.26 16.104 134.308 16.2293 134.404 16.32C134.505 16.4107 134.636 16.4827 134.796 16.536C134.961 16.584 135.14 16.624 135.332 16.656C135.529 16.688 135.724 16.728 135.916 16.776C136.113 16.8187 136.292 16.88 136.452 16.96C136.617 17.0347 136.748 17.144 136.844 17.288C136.945 17.4267 136.996 17.6107 136.996 17.84C136.996 18.0853 136.927 18.2987 136.788 18.48C136.655 18.656 136.457 18.7947 136.196 18.896C135.94 18.992 135.628 19.04 135.26 19.04ZM139.366 19.04C138.971 19.04 138.667 18.9333 138.454 18.72C138.241 18.5067 138.134 18.2053 138.134 17.816V13.872H138.702V17.784C138.702 18.0293 138.763 18.2187 138.886 18.352C139.014 18.4853 139.195 18.552 139.43 18.552C139.681 18.552 139.889 18.48 140.054 18.336L140.254 18.744C140.142 18.8453 140.006 18.92 139.846 18.968C139.691 19.016 139.531 19.04 139.366 19.04ZM137.382 15.272V14.8H139.982V15.272H137.382ZM141.288 19V14.8H141.856V19H141.288ZM141.576 13.872C141.459 13.872 141.36 13.832 141.28 13.752C141.2 13.672 141.16 13.576 141.16 13.464C141.16 13.352 141.2 13.2587 141.28 13.184C141.36 13.104 141.459 13.064 141.576 13.064C141.693 13.064 141.792 13.1013 141.872 13.176C141.952 13.2507 141.992 13.344 141.992 13.456C141.992 13.5733 141.952 13.672 141.872 13.752C141.797 13.832 141.699 13.872 141.576 13.872ZM145.109 19.04C144.709 19.04 144.349 18.9493 144.029 18.768C143.714 18.5867 143.466 18.336 143.285 18.016C143.103 17.696 143.013 17.3227 143.013 16.896C143.013 16.4747 143.103 16.104 143.285 15.784C143.466 15.4587 143.714 15.208 144.029 15.032C144.349 14.8507 144.709 14.76 145.109 14.76C145.482 14.76 145.813 14.8427 146.101 15.008C146.394 15.1733 146.626 15.416 146.797 15.736C146.967 16.0507 147.053 16.4373 147.053 16.896C147.053 17.3547 146.965 17.744 146.789 18.064C146.618 18.3787 146.386 18.6213 146.093 18.792C145.805 18.9573 145.477 19.04 145.109 19.04ZM145.149 18.536C145.447 18.536 145.714 18.4693 145.949 18.336C146.189 18.1973 146.375 18.0053 146.509 17.76C146.647 17.5093 146.717 17.2213 146.717 16.896C146.717 16.5707 146.647 16.2853 146.509 16.04C146.375 15.7947 146.189 15.6027 145.949 15.464C145.714 15.3253 145.447 15.256 145.149 15.256C144.855 15.256 144.591 15.3253 144.357 15.464C144.122 15.6027 143.935 15.7947 143.797 16.04C143.658 16.2853 143.589 16.5707 143.589 16.896C143.589 17.2213 143.658 17.5093 143.797 17.76C143.935 18.0053 144.122 18.1973 144.357 18.336C144.591 18.4693 144.855 18.536 145.149 18.536ZM146.709 20.552V17.752L146.789 16.904L146.733 16.064V14.8H147.277V20.552H146.709ZM150.594 19.04C150.237 19.04 149.925 18.9733 149.658 18.84C149.392 18.7067 149.184 18.5067 149.034 18.24C148.89 17.9733 148.818 17.64 148.818 17.24V14.8H149.386V17.176C149.386 17.624 149.496 17.9627 149.714 18.192C149.938 18.416 150.25 18.528 150.65 18.528C150.944 18.528 151.197 18.4693 151.41 18.352C151.629 18.2293 151.794 18.0533 151.906 17.824C152.024 17.5947 152.082 17.32 152.082 17V14.8H152.65V19H152.106V17.848L152.194 18.056C152.061 18.3653 151.853 18.608 151.57 18.784C151.293 18.9547 150.968 19.04 150.594 19.04ZM156.017 19.04C155.58 19.04 155.196 18.9493 154.865 18.768C154.535 18.5813 154.276 18.328 154.089 18.008C153.903 17.6827 153.809 17.312 153.809 16.896C153.809 16.48 153.897 16.112 154.073 15.792C154.255 15.472 154.5 15.2213 154.809 15.04C155.124 14.8533 155.476 14.76 155.865 14.76C156.26 14.76 156.609 14.8507 156.913 15.032C157.223 15.208 157.465 15.4587 157.641 15.784C157.817 16.104 157.905 16.4747 157.905 16.896C157.905 16.9227 157.903 16.952 157.897 16.984C157.897 17.0107 157.897 17.04 157.897 17.072H154.241V16.648H157.593L157.369 16.816C157.369 16.512 157.303 16.2427 157.169 16.008C157.041 15.768 156.865 15.5813 156.641 15.448C156.417 15.3147 156.159 15.248 155.865 15.248C155.577 15.248 155.319 15.3147 155.089 15.448C154.86 15.5813 154.681 15.768 154.553 16.008C154.425 16.248 154.361 16.5227 154.361 16.832V16.92C154.361 17.24 154.431 17.5227 154.569 17.768C154.713 18.008 154.911 18.1973 155.161 18.336C155.417 18.4693 155.708 18.536 156.033 18.536C156.289 18.536 156.527 18.4907 156.745 18.4C156.969 18.3093 157.161 18.1707 157.321 17.984L157.641 18.352C157.455 18.576 157.22 18.7467 156.937 18.864C156.66 18.9813 156.353 19.04 156.017 19.04Z" fill="#1B375A"/>
<rect x="213.5" y="11.5" width="9" height="9" rx="1.5" stroke="#1B375A"/>
<path d="M230.762 19.048C230.341 19.048 229.949 18.9787 229.586 18.84C229.229 18.696 228.917 18.496 228.65 18.24C228.389 17.9787 228.184 17.6773 228.034 17.336C227.89 16.9893 227.818 16.6107 227.818 16.2C227.818 15.7893 227.89 15.4133 228.034 15.072C228.184 14.7253 228.389 14.424 228.65 14.168C228.917 13.9067 229.229 13.7067 229.586 13.568C229.944 13.424 230.336 13.352 230.762 13.352C231.184 13.352 231.573 13.424 231.93 13.568C232.288 13.7067 232.597 13.904 232.858 14.16C233.125 14.416 233.33 14.7173 233.474 15.064C233.624 15.4107 233.698 15.7893 233.698 16.2C233.698 16.6107 233.624 16.9893 233.474 17.336C233.33 17.6827 233.125 17.984 232.858 18.24C232.597 18.496 232.288 18.696 231.93 18.84C231.573 18.9787 231.184 19.048 230.762 19.048ZM230.762 18.52C231.098 18.52 231.408 18.464 231.69 18.352C231.978 18.2347 232.226 18.072 232.434 17.864C232.648 17.6507 232.813 17.4053 232.93 17.128C233.048 16.8453 233.106 16.536 233.106 16.2C233.106 15.864 233.048 15.5573 232.93 15.28C232.813 14.9973 232.648 14.752 232.434 14.544C232.226 14.3307 231.978 14.168 231.69 14.056C231.408 13.9387 231.098 13.88 230.762 13.88C230.426 13.88 230.114 13.9387 229.826 14.056C229.538 14.168 229.288 14.3307 229.074 14.544C228.866 14.752 228.701 14.9973 228.578 15.28C228.461 15.5573 228.402 15.864 228.402 16.2C228.402 16.5307 228.461 16.8373 228.578 17.12C228.701 17.4027 228.866 17.6507 229.074 17.864C229.288 18.072 229.538 18.2347 229.826 18.352C230.114 18.464 230.426 18.52 230.762 18.52ZM234.905 19V14.8H235.449V15.944L235.393 15.744C235.511 15.424 235.708 15.1813 235.985 15.016C236.263 14.8453 236.607 14.76 237.017 14.76V15.312C236.996 15.312 236.975 15.312 236.953 15.312C236.932 15.3067 236.911 15.304 236.889 15.304C236.447 15.304 236.1 15.44 235.849 15.712C235.599 15.9787 235.473 16.36 235.473 16.856V19H234.905ZM239.807 20.592C239.423 20.592 239.055 20.536 238.703 20.424C238.351 20.312 238.065 20.152 237.847 19.944L238.135 19.512C238.332 19.688 238.575 19.8267 238.863 19.928C239.156 20.0347 239.465 20.088 239.791 20.088C240.324 20.088 240.716 19.9627 240.967 19.712C241.217 19.4667 241.343 19.0827 241.343 18.56V17.512L241.423 16.792L241.367 16.072V14.8H241.911V18.488C241.911 19.2133 241.732 19.744 241.375 20.08C241.023 20.4213 240.5 20.592 239.807 20.592ZM239.703 18.84C239.303 18.84 238.943 18.7547 238.623 18.584C238.303 18.408 238.049 18.1653 237.863 17.856C237.681 17.5467 237.591 17.192 237.591 16.792C237.591 16.392 237.681 16.04 237.863 15.736C238.049 15.4267 238.303 15.1867 238.623 15.016C238.943 14.8453 239.303 14.76 239.703 14.76C240.076 14.76 240.412 14.8373 240.711 14.992C241.009 15.1467 241.247 15.376 241.423 15.68C241.599 15.984 241.687 16.3547 241.687 16.792C241.687 17.2293 241.599 17.6 241.423 17.904C241.247 18.208 241.009 18.44 240.711 18.6C240.412 18.76 240.076 18.84 239.703 18.84ZM239.759 18.336C240.068 18.336 240.343 18.272 240.583 18.144C240.823 18.0107 241.012 17.8293 241.151 17.6C241.289 17.3653 241.359 17.096 241.359 16.792C241.359 16.488 241.289 16.2213 241.151 15.992C241.012 15.7627 240.823 15.584 240.583 15.456C240.343 15.3227 240.068 15.256 239.759 15.256C239.455 15.256 239.18 15.3227 238.935 15.456C238.695 15.584 238.505 15.7627 238.367 15.992C238.233 16.2213 238.167 16.488 238.167 16.792C238.167 17.096 238.233 17.3653 238.367 17.6C238.505 17.8293 238.695 18.0107 238.935 18.144C239.18 18.272 239.455 18.336 239.759 18.336ZM246.123 19V18.072L246.099 17.92V16.368C246.099 16.0107 245.998 15.736 245.795 15.544C245.598 15.352 245.302 15.256 244.907 15.256C244.635 15.256 244.377 15.3013 244.131 15.392C243.886 15.4827 243.678 15.6027 243.507 15.752L243.251 15.328C243.465 15.1467 243.721 15.008 244.019 14.912C244.318 14.8107 244.633 14.76 244.963 14.76C245.507 14.76 245.926 14.896 246.219 15.168C246.518 15.4347 246.667 15.8427 246.667 16.392V19H246.123ZM244.675 19.04C244.361 19.04 244.086 18.9893 243.851 18.888C243.622 18.7813 243.446 18.6373 243.323 18.456C243.201 18.2693 243.139 18.056 243.139 17.816C243.139 17.5973 243.19 17.4 243.291 17.224C243.398 17.0427 243.569 16.8987 243.803 16.792C244.043 16.68 244.363 16.624 244.763 16.624H246.211V17.048H244.779C244.374 17.048 244.091 17.12 243.931 17.264C243.777 17.408 243.699 17.5867 243.699 17.8C243.699 18.04 243.793 18.232 243.979 18.376C244.166 18.52 244.427 18.592 244.763 18.592C245.083 18.592 245.358 18.52 245.587 18.376C245.822 18.2267 245.993 18.0133 246.099 17.736L246.227 18.128C246.121 18.4053 245.934 18.6267 245.667 18.792C245.406 18.9573 245.075 19.04 244.675 19.04ZM250.354 14.76C250.695 14.76 250.994 14.8267 251.25 14.96C251.511 15.088 251.714 15.2853 251.858 15.552C252.007 15.8187 252.082 16.1547 252.082 16.56V19H251.514V16.616C251.514 16.1733 251.402 15.84 251.178 15.616C250.959 15.3867 250.65 15.272 250.25 15.272C249.951 15.272 249.69 15.3333 249.466 15.456C249.247 15.5733 249.077 15.7467 248.954 15.976C248.837 16.2 248.778 16.472 248.778 16.792V19H248.21V14.8H248.754V15.952L248.666 15.736C248.799 15.432 249.013 15.1947 249.306 15.024C249.599 14.848 249.949 14.76 250.354 14.76ZM253.616 19V14.8H254.184V19H253.616ZM253.904 13.872C253.787 13.872 253.688 13.832 253.608 13.752C253.528 13.672 253.488 13.576 253.488 13.464C253.488 13.352 253.528 13.2587 253.608 13.184C253.688 13.104 253.787 13.064 253.904 13.064C254.022 13.064 254.12 13.1013 254.2 13.176C254.28 13.2507 254.32 13.344 254.32 13.456C254.32 13.5733 254.28 13.672 254.2 13.752C254.126 13.832 254.027 13.872 253.904 13.872ZM257.437 19.04C257.037 19.04 256.677 18.9493 256.357 18.768C256.042 18.5867 255.794 18.336 255.613 18.016C255.431 17.696 255.341 17.3227 255.341 16.896C255.341 16.4747 255.431 16.104 255.613 15.784C255.794 15.4587 256.042 15.208 256.357 15.032C256.677 14.8507 257.037 14.76 257.437 14.76C257.81 14.76 258.141 14.8427 258.429 15.008C258.722 15.1733 258.954 15.416 259.125 15.736C259.295 16.0507 259.381 16.4373 259.381 16.896C259.381 17.3547 259.293 17.744 259.117 18.064C258.946 18.3787 258.714 18.6213 258.421 18.792C258.133 18.9573 257.805 19.04 257.437 19.04ZM257.477 18.536C257.775 18.536 258.042 18.4693 258.277 18.336C258.517 18.1973 258.703 18.0053 258.837 17.76C258.975 17.5093 259.045 17.2213 259.045 16.896C259.045 16.5707 258.975 16.2853 258.837 16.04C258.703 15.7947 258.517 15.6027 258.277 15.464C258.042 15.3253 257.775 15.256 257.477 15.256C257.183 15.256 256.919 15.3253 256.685 15.464C256.45 15.6027 256.263 15.7947 256.125 16.04C255.986 16.2853 255.917 16.5707 255.917 16.896C255.917 17.2213 255.986 17.5093 256.125 17.76C256.263 18.0053 256.45 18.1973 256.685 18.336C256.919 18.4693 257.183 18.536 257.477 18.536ZM259.037 20.552V17.752L259.117 16.904L259.061 16.064V14.8H259.605V20.552H259.037ZM262.923 19.04C262.565 19.04 262.253 18.9733 261.987 18.84C261.72 18.7067 261.512 18.5067 261.363 18.24C261.219 17.9733 261.147 17.64 261.147 17.24V14.8H261.715V17.176C261.715 17.624 261.824 17.9627 262.043 18.192C262.267 18.416 262.579 18.528 262.979 18.528C263.272 18.528 263.525 18.4693 263.739 18.352C263.957 18.2293 264.123 18.0533 264.235 17.824C264.352 17.5947 264.411 17.32 264.411 17V14.8H264.979V19H264.435V17.848L264.523 18.056C264.389 18.3653 264.181 18.608 263.899 18.784C263.621 18.9547 263.296 19.04 262.923 19.04ZM268.346 19.04C267.908 19.04 267.524 18.9493 267.194 18.768C266.863 18.5813 266.604 18.328 266.418 18.008C266.231 17.6827 266.138 17.312 266.138 16.896C266.138 16.48 266.226 16.112 266.402 15.792C266.583 15.472 266.828 15.2213 267.138 15.04C267.452 14.8533 267.804 14.76 268.194 14.76C268.588 14.76 268.938 14.8507 269.242 15.032C269.551 15.208 269.794 15.4587 269.97 15.784C270.146 16.104 270.234 16.4747 270.234 16.896C270.234 16.9227 270.231 16.952 270.226 16.984C270.226 17.0107 270.226 17.04 270.226 17.072H266.57V16.648H269.922L269.698 16.816C269.698 16.512 269.631 16.2427 269.498 16.008C269.37 15.768 269.194 15.5813 268.97 15.448C268.746 15.3147 268.487 15.248 268.194 15.248C267.906 15.248 267.647 15.3147 267.418 15.448C267.188 15.5813 267.01 15.768 266.882 16.008C266.754 16.248 266.69 16.5227 266.69 16.832V16.92C266.69 17.24 266.759 17.5227 266.898 17.768C267.042 18.008 267.239 18.1973 267.49 18.336C267.746 18.4693 268.036 18.536 268.362 18.536C268.618 18.536 268.855 18.4907 269.074 18.4C269.298 18.3093 269.49 18.1707 269.65 17.984L269.97 18.352C269.783 18.576 269.548 18.7467 269.266 18.864C268.988 18.9813 268.682 19.04 268.346 19.04Z" fill="#1B375A"/>
</svg>
