<svg width="291" height="32" viewBox="0 0 291 32" fill="none" xmlns="http://www.w3.org/2000/svg">
<rect width="291" height="32" rx="5" fill="#F5F6F7"/>
<circle cx="25" cy="16" r="4.5" stroke="#1B375A"/>
<path d="M35.9527 19.048C35.5207 19.048 35.1367 18.936 34.8007 18.712C34.4647 18.4827 34.2007 18.1573 34.0087 17.736C33.8167 17.3093 33.7207 16.7973 33.7207 16.2C33.7207 15.6027 33.8167 15.0933 34.0087 14.672C34.2007 14.2453 34.4647 13.92 34.8007 13.696C35.1367 13.4667 35.5207 13.352 35.9527 13.352C36.3847 13.352 36.7687 13.4667 37.1047 13.696C37.4407 13.92 37.7047 14.2453 37.8967 14.672C38.094 15.0933 38.1927 15.6027 38.1927 16.2C38.1927 16.7973 38.094 17.3093 37.8967 17.736C37.7047 18.1573 37.4407 18.4827 37.1047 18.712C36.7687 18.936 36.3847 19.048 35.9527 19.048ZM35.9527 18.52C36.2834 18.52 36.5714 18.432 36.8167 18.256C37.062 18.0747 37.254 17.8133 37.3927 17.472C37.5314 17.1253 37.6007 16.7013 37.6007 16.2C37.6007 15.6987 37.5314 15.2773 37.3927 14.936C37.254 14.5893 37.062 14.328 36.8167 14.152C36.5714 13.9707 36.2834 13.88 35.9527 13.88C35.6327 13.88 35.3474 13.9707 35.0967 14.152C34.846 14.328 34.6514 14.5893 34.5127 14.936C34.374 15.2773 34.3047 15.6987 34.3047 16.2C34.3047 16.7013 34.374 17.1253 34.5127 17.472C34.6514 17.8133 34.846 18.0747 35.0967 18.256C35.3474 18.432 35.6327 18.52 35.9527 18.52ZM44.1193 19V18.072L44.0953 17.92V16.368C44.0953 16.0107 43.994 15.736 43.7913 15.544C43.594 15.352 43.298 15.256 42.9033 15.256C42.6313 15.256 42.3726 15.3013 42.1273 15.392C41.882 15.4827 41.674 15.6027 41.5033 15.752L41.2473 15.328C41.4606 15.1467 41.7166 15.008 42.0153 14.912C42.314 14.8107 42.6286 14.76 42.9593 14.76C43.5033 14.76 43.922 14.896 44.2153 15.168C44.514 15.4347 44.6633 15.8427 44.6633 16.392V19H44.1193ZM42.6713 19.04C42.3566 19.04 42.082 18.9893 41.8473 18.888C41.618 18.7813 41.442 18.6373 41.3193 18.456C41.1966 18.2693 41.1353 18.056 41.1353 17.816C41.1353 17.5973 41.186 17.4 41.2873 17.224C41.394 17.0427 41.5646 16.8987 41.7993 16.792C42.0393 16.68 42.3593 16.624 42.7593 16.624H44.2073V17.048H42.7753C42.37 17.048 42.0873 17.12 41.9273 17.264C41.7726 17.408 41.6953 17.5867 41.6953 17.8C41.6953 18.04 41.7886 18.232 41.9753 18.376C42.162 18.52 42.4233 18.592 42.7593 18.592C43.0793 18.592 43.354 18.52 43.5833 18.376C43.818 18.2267 43.9886 18.0133 44.0953 17.736L44.2233 18.128C44.1166 18.4053 43.93 18.6267 43.6633 18.792C43.402 18.9573 43.0713 19.04 42.6713 19.04ZM42.9353 14.144L41.6393 13.152H42.3993L43.4953 14.144H42.9353ZM48.8998 19V13.64L49.1558 13.912H47.5798V13.4H49.4758V19H48.8998ZM53.0464 19.048C52.6144 19.048 52.2304 18.936 51.8944 18.712C51.5584 18.4827 51.2944 18.1573 51.1024 17.736C50.9104 17.3093 50.8144 16.7973 50.8144 16.2C50.8144 15.6027 50.9104 15.0933 51.1024 14.672C51.2944 14.2453 51.5584 13.92 51.8944 13.696C52.2304 13.4667 52.6144 13.352 53.0464 13.352C53.4784 13.352 53.8624 13.4667 54.1984 13.696C54.5344 13.92 54.7984 14.2453 54.9904 14.672C55.1878 15.0933 55.2864 15.6027 55.2864 16.2C55.2864 16.7973 55.1878 17.3093 54.9904 17.736C54.7984 18.1573 54.5344 18.4827 54.1984 18.712C53.8624 18.936 53.4784 19.048 53.0464 19.048ZM53.0464 18.52C53.3771 18.52 53.6651 18.432 53.9104 18.256C54.1558 18.0747 54.3478 17.8133 54.4864 17.472C54.6251 17.1253 54.6944 16.7013 54.6944 16.2C54.6944 15.6987 54.6251 15.2773 54.4864 14.936C54.3478 14.5893 54.1558 14.328 53.9104 14.152C53.6651 13.9707 53.3771 13.88 53.0464 13.88C52.7264 13.88 52.4411 13.9707 52.1904 14.152C51.9398 14.328 51.7451 14.5893 51.6064 14.936C51.4678 15.2773 51.3984 15.6987 51.3984 16.2C51.3984 16.7013 51.4678 17.1253 51.6064 17.472C51.7451 17.8133 51.9398 18.0747 52.1904 18.256C52.4411 18.432 52.7264 18.52 53.0464 18.52Z" fill="#1B375A"/>
<circle cx="120" cy="16" r="4.5" stroke="#1B375A"/>
<path d="M129.431 19V13.64L129.687 13.912H128.111V13.4H130.007V19H129.431ZM133.578 19.048C133.146 19.048 132.762 18.936 132.426 18.712C132.09 18.4827 131.826 18.1573 131.634 17.736C131.442 17.3093 131.346 16.7973 131.346 16.2C131.346 15.6027 131.442 15.0933 131.634 14.672C131.826 14.2453 132.09 13.92 132.426 13.696C132.762 13.4667 133.146 13.352 133.578 13.352C134.01 13.352 134.394 13.4667 134.73 13.696C135.066 13.92 135.33 14.2453 135.522 14.672C135.719 15.0933 135.818 15.6027 135.818 16.2C135.818 16.7973 135.719 17.3093 135.522 17.736C135.33 18.1573 135.066 18.4827 134.73 18.712C134.394 18.936 134.01 19.048 133.578 19.048ZM133.578 18.52C133.908 18.52 134.196 18.432 134.442 18.256C134.687 18.0747 134.879 17.8133 135.018 17.472C135.156 17.1253 135.226 16.7013 135.226 16.2C135.226 15.6987 135.156 15.2773 135.018 14.936C134.879 14.5893 134.687 14.328 134.442 14.152C134.196 13.9707 133.908 13.88 133.578 13.88C133.258 13.88 132.972 13.9707 132.722 14.152C132.471 14.328 132.276 14.5893 132.138 14.936C131.999 15.2773 131.93 15.6987 131.93 16.2C131.93 16.7013 131.999 17.1253 132.138 17.472C132.276 17.8133 132.471 18.0747 132.722 18.256C132.972 18.432 133.258 18.52 133.578 18.52ZM141.744 19V18.072L141.72 17.92V16.368C141.72 16.0107 141.619 15.736 141.416 15.544C141.219 15.352 140.923 15.256 140.528 15.256C140.256 15.256 139.998 15.3013 139.752 15.392C139.507 15.4827 139.299 15.6027 139.128 15.752L138.872 15.328C139.086 15.1467 139.342 15.008 139.64 14.912C139.939 14.8107 140.254 14.76 140.584 14.76C141.128 14.76 141.547 14.896 141.84 15.168C142.139 15.4347 142.288 15.8427 142.288 16.392V19H141.744ZM140.296 19.04C139.982 19.04 139.707 18.9893 139.472 18.888C139.243 18.7813 139.067 18.6373 138.944 18.456C138.822 18.2693 138.76 18.056 138.76 17.816C138.76 17.5973 138.811 17.4 138.912 17.224C139.019 17.0427 139.19 16.8987 139.424 16.792C139.664 16.68 139.984 16.624 140.384 16.624H141.832V17.048H140.4C139.995 17.048 139.712 17.12 139.552 17.264C139.398 17.408 139.32 17.5867 139.32 17.8C139.32 18.04 139.414 18.232 139.6 18.376C139.787 18.52 140.048 18.592 140.384 18.592C140.704 18.592 140.979 18.52 141.208 18.376C141.443 18.2267 141.614 18.0133 141.72 17.736L141.848 18.128C141.742 18.4053 141.555 18.6267 141.288 18.792C141.027 18.9573 140.696 19.04 140.296 19.04ZM140.56 14.144L139.264 13.152H140.024L141.12 14.144H140.56ZM145.445 19V18.592L147.773 16.312C147.986 16.104 148.146 15.9227 148.253 15.768C148.359 15.608 148.431 15.4587 148.469 15.32C148.506 15.1813 148.525 15.0507 148.525 14.928C148.525 14.6027 148.413 14.3467 148.189 14.16C147.97 13.9733 147.645 13.88 147.213 13.88C146.882 13.88 146.589 13.9307 146.333 14.032C146.082 14.1333 145.866 14.2907 145.685 14.504L145.277 14.152C145.495 13.896 145.775 13.6987 146.117 13.56C146.458 13.4213 146.839 13.352 147.261 13.352C147.639 13.352 147.967 13.4133 148.245 13.536C148.522 13.6533 148.735 13.8267 148.885 14.056C149.039 14.2853 149.117 14.5547 149.117 14.864C149.117 15.0453 149.09 15.224 149.037 15.4C148.989 15.576 148.898 15.7627 148.765 15.96C148.637 16.152 148.447 16.3707 148.197 16.616L146.061 18.712L145.901 18.488H149.373V19H145.445ZM152.312 19.048C151.88 19.048 151.496 18.936 151.16 18.712C150.824 18.4827 150.56 18.1573 150.368 17.736C150.176 17.3093 150.08 16.7973 150.08 16.2C150.08 15.6027 150.176 15.0933 150.368 14.672C150.56 14.2453 150.824 13.92 151.16 13.696C151.496 13.4667 151.88 13.352 152.312 13.352C152.744 13.352 153.128 13.4667 153.464 13.696C153.8 13.92 154.064 14.2453 154.256 14.672C154.453 15.0933 154.552 15.6027 154.552 16.2C154.552 16.7973 154.453 17.3093 154.256 17.736C154.064 18.1573 153.8 18.4827 153.464 18.712C153.128 18.936 152.744 19.048 152.312 19.048ZM152.312 18.52C152.643 18.52 152.931 18.432 153.176 18.256C153.421 18.0747 153.613 17.8133 153.752 17.472C153.891 17.1253 153.96 16.7013 153.96 16.2C153.96 15.6987 153.891 15.2773 153.752 14.936C153.613 14.5893 153.421 14.328 153.176 14.152C152.931 13.9707 152.643 13.88 152.312 13.88C151.992 13.88 151.707 13.9707 151.456 14.152C151.205 14.328 151.011 14.5893 150.872 14.936C150.733 15.2773 150.664 15.6987 150.664 16.2C150.664 16.7013 150.733 17.1253 150.872 17.472C151.011 17.8133 151.205 18.0747 151.456 18.256C151.707 18.432 151.992 18.52 152.312 18.52Z" fill="#1B375A"/>
<circle cx="231" cy="16" r="4.5" stroke="#1B375A"/>
<path d="M239.798 17.856V17.36L243.07 16.072V16.328L239.798 15.04V14.544L243.278 15.936V16.464L239.798 17.856ZM246.246 19V18.592L248.574 16.312C248.787 16.104 248.947 15.9227 249.054 15.768C249.16 15.608 249.232 15.4587 249.27 15.32C249.307 15.1813 249.326 15.0507 249.326 14.928C249.326 14.6027 249.214 14.3467 248.99 14.16C248.771 13.9733 248.446 13.88 248.014 13.88C247.683 13.88 247.39 13.9307 247.134 14.032C246.883 14.1333 246.667 14.2907 246.486 14.504L246.078 14.152C246.296 13.896 246.576 13.6987 246.918 13.56C247.259 13.4213 247.64 13.352 248.062 13.352C248.44 13.352 248.768 13.4133 249.046 13.536C249.323 13.6533 249.536 13.8267 249.686 14.056C249.84 14.2853 249.918 14.5547 249.918 14.864C249.918 15.0453 249.891 15.224 249.838 15.4C249.79 15.576 249.699 15.7627 249.566 15.96C249.438 16.152 249.248 16.3707 248.998 16.616L246.862 18.712L246.702 18.488H250.174V19H246.246ZM253.113 19.048C252.681 19.048 252.297 18.936 251.961 18.712C251.625 18.4827 251.361 18.1573 251.169 17.736C250.977 17.3093 250.881 16.7973 250.881 16.2C250.881 15.6027 250.977 15.0933 251.169 14.672C251.361 14.2453 251.625 13.92 251.961 13.696C252.297 13.4667 252.681 13.352 253.113 13.352C253.545 13.352 253.929 13.4667 254.265 13.696C254.601 13.92 254.865 14.2453 255.057 14.672C255.254 15.0933 255.353 15.6027 255.353 16.2C255.353 16.7973 255.254 17.3093 255.057 17.736C254.865 18.1573 254.601 18.4827 254.265 18.712C253.929 18.936 253.545 19.048 253.113 19.048ZM253.113 18.52C253.444 18.52 253.732 18.432 253.977 18.256C254.222 18.0747 254.414 17.8133 254.553 17.472C254.692 17.1253 254.761 16.7013 254.761 16.2C254.761 15.6987 254.692 15.2773 254.553 14.936C254.414 14.5893 254.222 14.328 253.977 14.152C253.732 13.9707 253.444 13.88 253.113 13.88C252.793 13.88 252.508 13.9707 252.257 14.152C252.006 14.328 251.812 14.5893 251.673 14.936C251.534 15.2773 251.465 15.6987 251.465 16.2C251.465 16.7013 251.534 17.1253 251.673 17.472C251.812 17.8133 252.006 18.0747 252.257 18.256C252.508 18.432 252.793 18.52 253.113 18.52Z" fill="#1B375A"/>
</svg>
