<svg width="14" height="14" viewBox="0 0 14 14" fill="none" xmlns="http://www.w3.org/2000/svg">
<mask id="mask0_249_3124" style="mask-type:luminance" maskUnits="userSpaceOnUse" x="0" y="0" width="14" height="14">
<path d="M7 14C10.866 14 14 10.866 14 7C14 3.13401 10.866 0 7 0C3.13401 0 0 3.13401 0 7C0 10.866 3.13401 14 7 14Z" fill="white"/>
</mask>
<g mask="url(#mask0_249_3124)">
<path d="M6.99902 14C10.865 14 13.999 10.866 13.999 7C13.999 3.13401 10.865 0 6.99902 0C3.13303 0 -0.000976562 3.13401 -0.000976562 7C-0.000976562 10.866 3.13303 14 6.99902 14Z" fill="#1B375A"/>
<path d="M9.44116 14.7515C9.98531 14.6239 10.5256 14.4714 11.0609 14.2947C11.3605 14.1883 11.6536 14.0643 11.9387 13.9234C12.3909 13.4294 12.8853 12.9756 13.4161 12.5672C13.5724 12.2597 13.707 11.9503 13.8276 11.6741C13.8454 11.5995 13.8639 11.5261 13.8818 11.4527C14.1516 10.3415 14.2531 9.17277 14.5318 8.06022C14.3137 8.24203 14.0955 8.42448 13.876 8.60374C12.7916 9.48855 11.6248 10.3261 10.2807 10.7197C9.73269 10.8799 9.10561 10.952 8.62206 10.6515C8.41704 10.5199 8.25458 10.3317 8.15437 10.1097C8.05416 9.88763 8.02051 9.64129 8.05749 9.40051C8.17806 8.69241 8.79494 8.25224 9.44818 8.08574C9.7748 8.00345 10.6277 7.86502 10.3572 8.47488C10.2992 8.60629 10.2086 8.72558 10.1882 8.86657C10.148 9.14598 10.4127 9.39477 10.6902 9.4407C10.9677 9.48663 11.2108 9.41774 11.4819 9.33991C12.6787 8.99607 13.4595 7.60028 13.1246 6.40097C12.8343 5.35668 11.8289 4.61094 10.7642 4.41956C8.53147 4.0183 6.47479 5.60611 5.39094 7.44271C4.68922 8.63181 2.91578 11.1427 3.23921 12.4823C3.56264 13.822 5.76094 15.7996 7.00299 15.3996C7.59627 15.2082 8.3082 15.3773 9.01821 15.1444C9.04842 15.0478 9.10333 14.9607 9.1775 14.8918C9.25168 14.8229 9.34256 14.7745 9.44116 14.7515Z" fill="#4DC5F0"/>
<path d="M9.98824 6.25131C8.43934 6.28385 6.97274 8.23336 7.33764 9.87412C7.44512 10.374 7.72845 10.8187 8.1361 11.1273C8.54375 11.4359 9.04864 11.5879 9.55891 11.5557C11.1856 11.4492 12.5846 10.4712 13.6155 9.26298C13.9082 8.91027 14.1775 8.53885 14.4218 8.15107C14.24 8.3029 14.0589 8.45408 13.8758 8.60336C12.7913 9.48817 11.6245 10.3258 10.2804 10.7194C9.73243 10.8795 9.10534 10.9516 8.62179 10.6511C8.41677 10.5195 8.25431 10.3313 8.15411 10.1093C8.0539 9.88726 8.02024 9.64092 8.05722 9.40013C8.17779 8.69203 8.79467 8.25186 9.44791 8.08536C9.77453 8.00307 10.6274 7.86464 10.357 8.4745C10.2989 8.60591 10.2083 8.7252 10.1879 8.86619C10.1477 9.1456 10.4125 9.39439 10.69 9.44032C10.9675 9.48625 11.2105 9.41736 11.4816 9.33953C11.8472 9.23094 12.1793 9.03143 12.4468 8.75965C12.3626 7.36961 12.1751 6.20538 9.98824 6.25131Z" fill="#16ABE0"/>
<path d="M12.2805 12.3883C12.727 12.3111 13.1736 12.2301 13.6163 12.151C13.6909 11.9864 13.7617 11.8256 13.8274 11.6744C13.8453 11.5998 13.8638 11.5264 13.8817 11.4531C14.1515 10.3418 14.2529 9.17248 14.5317 8.06057C14.4954 8.09119 14.459 8.12436 14.422 8.15179C14.1777 8.53957 13.9083 8.911 13.6157 9.2637C12.5848 10.4707 11.1858 11.4499 9.55906 11.5564C9.04847 11.5891 8.54313 11.4373 8.13507 11.1286C7.72702 10.82 7.4434 10.3751 7.33588 9.87484C6.97098 8.23409 8.4127 6.75473 9.92651 6.42619C11.5379 6.07661 12.3608 7.36969 12.4425 8.76165C12.778 8.42538 13.0154 8.00385 13.1289 7.54257C13.1193 6.87147 12.6537 5.94775 12.2033 5.4374C11.4378 4.56854 9.98456 4.68528 8.92688 5.13375C7.41371 5.77487 6.09 7.21723 5.80485 8.86691C5.48588 10.7003 6.72985 12.3073 8.51414 12.6364C9.78553 12.8699 11.0308 12.6065 12.2805 12.3883Z" fill="#2EBDF0"/>
<path d="M8.66797 4.59984C9.56107 4.29364 10.5594 4.23048 11.4391 4.56858C12.3188 4.90669 13.0531 5.68624 13.1992 6.61761C13.358 7.63256 12.7928 8.68004 11.9374 9.24971C11.0819 9.81938 9.98976 9.95526 8.97545 9.79067C8.80385 9.76261 8.79173 9.44364 8.92123 9.32881C9.05073 9.21399 9.23445 9.18528 9.40605 9.16168C9.28357 8.7853 9.54767 8.36618 9.90364 8.19266C10.2596 8.01914 10.6774 8.03509 11.0704 8.08677C11.2063 8.10527 11.2414 7.98725 11.3709 7.94068C11.5004 7.89411 11.6088 7.75951 11.5788 7.62554C11.5635 7.56175 11.515 7.49796 11.5036 7.43416C11.4768 7.30275 11.5814 7.17899 11.7007 7.1152C11.82 7.05141 11.9559 7.03291 12.0764 6.97422C12.1796 6.92232 12.2676 6.84444 12.3316 6.74825C12.3955 6.65205 12.4334 6.54085 12.4413 6.4256C12.4616 6.2381 12.4247 6.04883 12.3354 5.88272C12.0101 5.18738 11.2171 4.0659 8.66797 4.59984Z" fill="#DAE6F1"/>
<path d="M5.98519 3.36175C5.08571 2.75763 3.84493 2.59304 2.90973 3.14102C1.83482 3.76938 1.42399 5.31445 2.04406 6.39446C2.1844 6.63943 2.30944 6.85824 2.54165 7.01772C2.77385 7.1772 3.13747 7.1823 3.30333 6.95393C3.3869 6.83846 3.40476 6.68982 3.45452 6.55522C3.68481 5.92941 4.2009 6.61901 4.37761 6.90863C4.73166 7.48277 4.86817 8.22787 4.46181 8.82242C4.3209 9.02112 4.12532 9.17464 3.89884 9.26433C3.67236 9.35401 3.4247 9.37602 3.18595 9.32766C2.6284 9.20582 2.22906 8.71716 1.94582 8.22022C1.25367 7.00305 0.999769 5.59003 0.837097 4.20126C0.773304 3.68135 0.72546 3.15888 0.665494 2.6377C0.460081 3.07404 0.267426 3.51868 0.0913577 3.96969C-0.0783315 4.48705 -0.227607 5.01271 -0.364124 5.53708C-0.390601 5.63687 -0.443492 5.72766 -0.517227 5.79991C-0.754176 6.66398 -0.907559 7.54881 -0.97526 8.44221C-1.04041 9.44039 -0.944997 10.4426 -0.692658 11.4105C-0.0438833 12.0446 0.639977 12.6589 1.4763 13.0053C2.75216 13.5323 4.27554 13.3364 5.44167 12.5977C6.60781 11.859 7.41925 10.6201 7.74141 9.27471C8.23899 7.19953 7.8658 4.62612 5.98519 3.36175Z" fill="#16ABE0"/>
<path d="M5.26436 5.21381C6.35395 6.31488 6.05029 8.73582 4.64685 9.66018C4.22174 9.9443 3.70877 10.0664 3.20125 10.0042C2.69373 9.94205 2.22539 9.69976 1.88142 9.32144C0.787376 8.1132 0.463946 6.43608 0.564101 4.8521C0.599686 4.39525 0.664677 3.94117 0.758669 3.49268C0.783336 3.72786 0.809278 3.96177 0.836496 4.1944C0.999168 5.58508 1.25306 7.00129 1.94522 8.21335C2.22782 8.7103 2.6278 9.19896 3.18535 9.3208C3.4241 9.36915 3.67175 9.34715 3.89824 9.25746C4.12472 9.16778 4.3203 9.01426 4.46121 8.81556C4.86757 8.22292 4.73106 7.47591 4.377 6.90177C4.2003 6.61534 3.68421 5.92255 3.45392 6.54836C3.40416 6.68296 3.3863 6.8316 3.30273 6.94706C3.13687 7.17544 2.77389 7.17098 2.54104 7.01086C2.3082 6.85074 2.1838 6.63256 2.04346 6.3876C1.85698 6.05633 1.75735 5.68326 1.75384 5.30312C2.78218 4.36409 3.72632 3.65854 5.26436 5.21381Z" fill="#4DC5F0"/>
<path d="M6.80426 5.14806C6.35771 4.08973 5.39508 2.99441 4.24042 3.08563C3.56167 3.13858 2.58181 3.47796 2.10974 3.95322C1.87053 4.36379 1.74769 4.83177 1.75441 5.3069C2.78212 4.36404 4.27359 4.00808 5.18647 5.38026C6.04513 6.67016 6.05023 8.73577 4.64678 9.66013C4.22168 9.94425 3.7087 10.0663 3.20118 10.0042C2.69367 9.942 2.22532 9.69972 1.88136 9.32139C0.787311 8.11315 0.46388 6.43604 0.564035 4.85206C0.599621 4.39521 0.664612 3.94112 0.758604 3.49263C0.727983 3.20684 0.694811 2.91849 0.66419 2.63525C0.458352 3.07202 0.266973 3.51709 0.0900539 3.97044C-0.0789974 4.48653 -0.225721 5.01027 -0.364152 5.53337C-0.389583 5.63393 -0.441581 5.72581 -0.514703 5.79938C-0.684027 6.41876 -0.811896 7.04873 -0.897461 7.6851C-0.815806 7.79866 -0.733938 7.91199 -0.651858 8.02512C0.0938814 9.05155 0.804535 10.1073 1.88008 10.8237C3.39006 11.8291 5.40018 11.5388 6.44893 10.0021C7.39243 8.62031 7.44538 6.6625 6.80426 5.14806Z" fill="#2EBDF0"/>
<path d="M7.36272 4.94568C6.93531 4.10553 6.26165 3.36425 5.39471 2.99425C4.52776 2.62425 3.45795 2.67529 2.7052 3.24113C1.88418 3.85929 1.56139 5.00501 1.77892 6.00911C1.99646 7.01321 2.6867 7.87186 3.5294 8.45939C3.67166 8.55827 3.90259 8.33819 3.88983 8.16531C3.87707 7.99243 3.76224 7.84634 3.65762 7.70791C4.00785 7.52228 4.10992 7.03873 3.97659 6.66554C3.84326 6.29235 3.53004 6.01421 3.21107 5.77818C3.10071 5.69652 3.15749 5.5868 3.09752 5.46368C3.03756 5.34056 3.05223 5.16832 3.16706 5.0924C3.22447 5.05477 3.29783 5.04583 3.35461 5.00756C3.46497 4.93164 3.47709 4.76897 3.43371 4.64202C3.39033 4.51508 3.30613 4.40535 3.26211 4.27904C3.22388 4.17016 3.21466 4.05319 3.23535 3.93966C3.25605 3.82613 3.30594 3.71994 3.38013 3.63154C3.49539 3.48133 3.6539 3.37001 3.83433 3.31258C4.55392 3.0421 5.90377 2.7882 7.36272 4.94568Z" fill="#DAE6F1"/>
</g>
</svg>
