<svg width="15" height="15" viewBox="0 0 15 15" fill="none" xmlns="http://www.w3.org/2000/svg">
<mask id="mask0_249_3468" style="mask-type:luminance" maskUnits="userSpaceOnUse" x="0" y="0" width="15" height="15">
<path d="M7.5 15C11.6421 15 15 11.6421 15 7.5C15 3.35786 11.6421 0 7.5 0C3.35786 0 0 3.35786 0 7.5C0 11.6421 3.35786 15 7.5 15Z" fill="white"/>
</mask>
<g mask="url(#mask0_249_3468)">
<path d="M7.5 15C11.6421 15 15 11.6421 15 7.5C15 3.35786 11.6421 0 7.5 0C3.35786 0 0 3.35786 0 7.5C0 11.6421 3.35786 15 7.5 15Z" fill="#1B375A"/>
<path d="M12.1904 4.88721C12.3271 5.00819 12.4549 5.1319 12.5834 5.25835C12.4581 5.12848 12.3271 5.00477 12.1904 4.88721Z" fill="#9CDBF4"/>
<path d="M13.3694 6.12868C13.1263 5.82165 12.8635 5.53078 12.5827 5.25791C12.4542 5.13146 12.3236 5.00775 12.1897 4.88677C12.0019 4.72431 11.8045 4.57343 11.5984 4.43498C11.2772 4.22231 10.9372 4.03929 10.5828 3.88818C9.10646 4.58558 7.58928 5.19295 6.03957 5.70697C6.18244 5.78 6.3115 5.87738 6.42096 5.99472C6.69439 6.2922 6.85434 6.67647 6.87275 7.08011C6.8994 7.64058 6.6759 8.19284 6.33894 8.64121C6.00197 9.08959 5.55702 9.44637 5.09497 9.7642C3.18843 11.0673 0.953076 11.8064 -1.35449 11.8967C0.21003 14.4721 2.78134 16.3962 5.78052 16.6873C7.68064 16.8719 9.74958 16.6149 11.4405 15.684C12.4467 15.1303 13.1944 14.2801 13.72 13.2951C14.2021 12.3668 14.513 11.3592 14.6379 10.3206C14.8362 8.78133 14.3119 7.33574 13.3694 6.12868Z" fill="#6ACDF0"/>
<path d="M7.5002 7.17651C7.44005 6.5019 7.14136 5.90111 6.82149 5.43701C6.56176 5.53133 6.30203 5.62156 6.03957 5.70699C6.18244 5.78003 6.3115 5.8774 6.42096 5.99474C6.69439 6.29223 6.85434 6.6765 6.87275 7.08013C6.8994 7.6406 6.6759 8.19287 6.33894 8.64124C6.00197 9.08961 5.55702 9.4464 5.09497 9.76422C3.18843 11.0673 0.953076 11.8064 -1.35449 11.8967C-0.870812 12.6946 -0.288181 13.4281 0.379537 14.0798C3.91731 12.6014 7.77223 10.2673 7.5002 7.17651Z" fill="#16ABE0"/>
<path d="M8.32074 7.31357C8.24821 6.53757 7.92669 5.80582 7.40417 5.22754C7.21051 5.29999 7.0164 5.37062 6.82183 5.43942C7.14171 5.90352 7.43698 6.50431 7.50054 7.17892C7.77394 10.267 3.91766 12.6011 0.379883 14.0822C1.22909 14.9164 2.22561 15.586 3.31891 16.0568C5.63528 13.9435 8.63856 10.5472 8.32074 7.31357Z" fill="#2EBDF0"/>
<path d="M8.33873 4.86572C8.02979 4.99103 7.71903 5.11178 7.40645 5.22798C7.92784 5.80644 8.24837 6.53788 8.32028 7.31332C8.6381 10.5463 5.63482 13.9432 3.31641 16.0545C4.09954 16.3896 4.92934 16.6028 5.77699 16.6868C7.55408 16.859 9.47402 16.6458 11.0973 15.8584C13.1232 8.73158 9.93333 5.83082 8.33873 4.86572Z" fill="#4DC5F0"/>
<path d="M12.5827 5.25869C12.4542 5.13224 12.3236 5.00853 12.1896 4.88755C12.0019 4.72509 11.8045 4.57421 11.5984 4.43576C11.2771 4.22309 10.9372 4.04007 10.5828 3.88896C9.6445 3.47536 8.61609 3.30849 7.5952 3.40419C6.57431 3.49989 5.59483 3.85499 4.7498 4.43576C4.44359 4.64081 2.43138 6.32289 2.94332 6.67421C3.05404 6.75008 3.20031 6.74256 3.33359 6.72547C3.87162 6.65404 4.38898 6.47181 4.853 6.19029C4.8284 6.32699 4.95895 6.45754 5.09838 6.48215C5.23781 6.50675 5.37793 6.45617 5.50848 6.40423C5.81878 6.28188 6.12362 6.1445 6.42094 5.99413C6.81257 5.79795 7.19254 5.57932 7.55896 5.33934C7.67049 5.25621 7.79561 5.19307 7.92874 5.15275C8.04365 5.13347 8.16017 5.12546 8.27663 5.12882C8.62578 5.11526 8.96128 4.98968 9.23353 4.77067C9.44746 5.07483 9.90131 5.02357 10.2711 4.98597C11.1514 4.89858 12.0375 5.07891 12.8137 5.50338C12.7364 5.41931 12.6599 5.33866 12.5827 5.25869Z" fill="#9CDBF4"/>
</g>
</svg>
