<svg width="80" height="32" viewBox="0 0 80 32" fill="none" xmlns="http://www.w3.org/2000/svg">
<path d="M3.54189 30.9984H7.56116C7.8886 31.0091 8.21138 30.9186 8.4856 30.7394C8.74648 30.5571 8.97323 30.3304 9.15548 30.0695C9.3545 29.7901 9.53073 29.4951 9.68245 29.1875C9.84351 28.8679 10.0263 28.5598 10.2295 28.2653C10.3456 28.0866 10.4662 27.9973 10.5957 27.9973C10.6325 28.0022 10.6675 28.0162 10.6975 28.0381C10.7275 28.0599 10.7516 28.0889 10.7677 28.1224C10.823 28.2322 10.8364 28.3584 10.8056 28.4774L10.4952 31.0944C10.4824 31.1936 10.4308 31.2836 10.3517 31.3447C10.2725 31.4058 10.1724 31.4331 10.0732 31.4204H0.587717C0.29297 31.4204 0.107637 31.3557 0.0294841 31.2284C-0.0486686 31.1011 0.0294841 30.9336 0.252777 30.7282C0.421391 30.5736 0.578835 30.4072 0.723926 30.2303C0.866195 30.0368 0.937196 29.8002 0.92489 29.5604V19.8471C0.937011 19.6074 0.866029 19.3708 0.723926 19.1772C0.578257 19.0009 0.42085 18.8345 0.252777 18.6793C0.0361829 18.4716 -0.033038 18.3109 0.0294841 18.1769C0.0920061 18.0429 0.272874 17.9849 0.567621 17.9849H3.88799C4.18274 17.9849 4.36361 18.0496 4.43506 18.1769C4.50651 18.3042 4.43506 18.4716 4.21177 18.6771C4.04381 18.8317 3.88711 18.9981 3.74285 19.175C3.59911 19.3678 3.52724 19.6047 3.53965 19.8449L3.54189 30.9984Z" fill="white"/>
<path d="M11.9488 31.4203C11.6272 31.4203 11.4419 31.3488 11.3905 31.197C11.3392 31.0451 11.424 30.8844 11.6406 30.6789C11.8077 30.5255 11.9622 30.359 12.1028 30.181C12.2353 29.9968 12.3021 29.7735 12.2926 29.5468V25.0363C12.2941 24.748 12.2427 24.4619 12.1408 24.1923C12.0358 23.924 11.856 23.6915 11.6228 23.5224C11.4419 23.3817 11.3637 23.2701 11.3816 23.1874C11.3995 23.1048 11.5066 23.011 11.6987 22.9083L14.3469 21.7003C14.4275 21.6731 14.512 21.6595 14.597 21.6601C14.8203 21.6601 14.923 21.7874 14.923 22.0442V29.5669C14.9144 29.7909 14.9744 30.0121 15.095 30.2011C15.2258 30.3824 15.3755 30.5493 15.5415 30.699C15.7648 30.9045 15.8452 31.0764 15.8006 31.2171C15.7559 31.3577 15.5773 31.4404 15.2535 31.4404L11.9488 31.4203ZM13.5989 20.9032C13.4068 20.9056 13.2161 20.8695 13.0381 20.7971C12.8601 20.7246 12.6984 20.6173 12.5625 20.4814C12.4266 20.3456 12.3193 20.1839 12.2469 20.0059C12.1745 19.8279 12.1384 19.6372 12.1408 19.4451C12.1349 19.2551 12.1695 19.0661 12.2422 18.8905C12.315 18.715 12.4243 18.5569 12.5628 18.4268C12.7004 18.2947 12.8628 18.1911 13.0406 18.1221C13.2184 18.0531 13.4082 18.0201 13.5989 18.0249C13.7883 18.0199 13.9767 18.0529 14.1532 18.1219C14.3296 18.1909 14.4904 18.2946 14.626 18.4268C14.7616 18.5587 14.8683 18.7173 14.9394 18.8926C15.0106 19.0679 15.0445 19.256 15.0391 19.4451C15.0433 19.6366 15.0088 19.8271 14.9378 20.0051C14.8669 20.1831 14.7608 20.345 14.626 20.4811C14.4933 20.6187 14.3335 20.7272 14.1567 20.7998C13.9799 20.8725 13.79 20.9077 13.5989 20.9032Z" fill="white"/>
<path d="M17.2456 22.265H16.4574C16.4242 22.2667 16.3911 22.2617 16.36 22.2502C16.3289 22.2387 16.3005 22.2209 16.2765 22.198C16.2548 22.1768 16.2377 22.1514 16.2262 22.1234C16.2147 22.0954 16.209 22.0653 16.2095 22.035C16.2095 21.8943 16.2854 21.8117 16.4328 21.8117C17.0679 21.7367 17.6726 21.4982 18.1879 21.1195C18.6585 20.7578 19.048 20.3014 19.3311 19.7797C19.4339 19.5877 19.5544 19.4917 19.675 19.4917C19.7956 19.4917 19.867 19.5944 19.867 19.7976V21.8318H20.9612C21.1287 21.8318 21.2113 21.9033 21.2113 22.0551C21.2132 22.113 21.1968 22.1701 21.1644 22.2181C21.1378 22.244 21.1057 22.2635 21.0705 22.2751C21.0353 22.2867 20.9979 22.2901 20.9612 22.2851H19.8737V29.3858C19.8716 29.6764 19.9488 29.9621 20.097 30.212C20.1774 30.3405 20.2916 30.4443 20.4271 30.512C20.5626 30.5798 20.7142 30.6089 20.8652 30.5961C21.1465 30.5961 21.2872 30.672 21.2872 30.8194C21.277 30.9298 21.226 31.0325 21.1443 31.1074C21.0333 31.2177 20.906 31.3103 20.7669 31.3821C20.584 31.4781 20.3907 31.5531 20.1908 31.6054C19.9586 31.6632 19.7201 31.6917 19.4807 31.6902C19.1448 31.6968 18.8113 31.6313 18.5027 31.4982C18.2314 31.3792 17.9913 31.1988 17.8016 30.9712C17.6116 30.7394 17.471 30.4711 17.3885 30.183C17.298 29.8748 17.2528 29.5551 17.2545 29.234L17.2456 22.265Z" fill="white"/>
<path d="M22.9262 22.265H22.138C22.1049 22.2667 22.0718 22.2617 22.0407 22.2502C22.0096 22.2387 21.9811 22.2209 21.9572 22.198C21.9355 22.1768 21.9184 22.1514 21.9069 22.1234C21.8954 22.0954 21.8897 22.0653 21.8902 22.035C21.8902 21.8943 21.9661 21.8117 22.1135 21.8117C22.7485 21.7367 23.3533 21.4982 23.8685 21.1195C24.3392 20.7578 24.7286 20.3014 25.0118 19.7797C25.1123 19.5877 25.2351 19.4917 25.3557 19.4917C25.4763 19.4917 25.5477 19.5944 25.5477 19.7976V21.8318H26.6418C26.8093 21.8318 26.8919 21.9033 26.8919 22.0551C26.8942 22.1134 26.8769 22.1708 26.8428 22.2181C26.8169 22.2443 26.7852 22.264 26.7503 22.2756C26.7154 22.2872 26.6782 22.2905 26.6418 22.2851H25.5477V29.3858C25.5456 29.6764 25.6228 29.9621 25.771 30.212C25.8513 30.3405 25.9656 30.4443 26.1011 30.512C26.2366 30.5798 26.3882 30.6089 26.5391 30.5961C26.8205 30.5961 26.9612 30.672 26.9612 30.8194C26.9509 30.9298 26.9 31.0325 26.8182 31.1074C26.7035 31.2238 26.5708 31.321 26.4252 31.3955C26.2423 31.4915 26.049 31.5665 25.8492 31.6188C25.6169 31.6766 25.3784 31.7051 25.1391 31.7036C24.8024 31.7102 24.4682 31.6447 24.1588 31.5116C23.8885 31.3919 23.6493 31.2116 23.4599 30.9846C23.2699 30.7528 23.1293 30.4845 23.0468 30.1964C22.9563 29.8882 22.9112 29.5685 22.9128 29.2474L22.9262 22.265Z" fill="white"/>
<path d="M29.3744 25.8155C29.399 26.2373 29.4663 26.6555 29.5753 27.0637C29.6745 27.4502 29.84 27.8166 30.0643 28.1467C30.2807 28.4605 30.5664 28.7203 30.8994 28.9059C31.2738 29.1064 31.6941 29.2057 32.1186 29.1939C32.6618 29.1927 33.1971 29.0642 33.6817 28.8188C34.178 28.5707 34.6263 28.2365 35.0058 27.8318C35.0465 27.7849 35.0964 27.7469 35.1526 27.7204C35.2087 27.6939 35.2697 27.6794 35.3318 27.6777C35.4971 27.6777 35.5685 27.7872 35.5417 28.0038C35.4793 28.4823 35.3437 28.9485 35.1398 29.3859C34.9415 29.8114 34.6685 30.1979 34.3337 30.527C33.9938 30.8575 33.5925 31.1185 33.1525 31.2951C32.6731 31.4857 32.1611 31.5805 31.6452 31.5742C30.9759 31.5867 30.3139 31.4333 29.7182 31.1276C29.1699 30.8413 28.6912 30.4381 28.3159 29.9464C27.9304 29.4392 27.6378 28.8677 27.4518 28.2583C27.253 27.6147 27.1529 26.9446 27.1548 26.271C27.1529 25.6842 27.2341 25.1 27.396 24.536C27.542 24.004 27.7891 23.5052 28.1239 23.0667C28.4598 22.6365 28.8899 22.2889 29.3811 22.0508C29.9441 21.7832 30.5621 21.6516 31.1853 21.6667C31.7192 21.6584 32.2497 21.7524 32.7483 21.9436C33.1919 22.1184 33.5964 22.3795 33.9385 22.7117C34.2771 23.0467 34.5477 23.444 34.7356 23.8818C34.9372 24.3556 35.0631 24.8582 35.1085 25.3711C35.1184 25.4307 35.1132 25.4917 35.0933 25.5487C35.0734 25.6057 35.0395 25.6567 34.9946 25.6971C34.8968 25.7756 34.7739 25.816 34.6485 25.811L29.3744 25.8155ZM32.4826 25.4135C32.4793 25.0699 32.4539 24.7268 32.4067 24.3864C32.3584 24.0232 32.2716 23.6661 32.1477 23.3213C32.0386 23.0115 31.8719 22.7251 31.6564 22.4772C31.5623 22.3665 31.4448 22.278 31.3123 22.2182C31.1799 22.1583 31.0358 22.1286 30.8905 22.1311C30.7461 22.1278 30.6027 22.1573 30.4713 22.2172C30.3398 22.2771 30.2236 22.366 30.1313 22.4772C29.9222 22.7258 29.763 23.0124 29.6624 23.3213C29.5467 23.6695 29.4718 24.0299 29.4391 24.3953C29.4011 24.7794 29.3833 25.1188 29.3833 25.4135H32.4826Z" fill="white"/>
<path d="M39.3 23.5133C39.4645 22.946 39.7998 22.4431 40.2601 22.073C40.7345 21.6977 41.3257 21.5009 41.9304 21.517C42.2633 21.5149 42.5941 21.57 42.9084 21.68C43.2013 21.7802 43.4742 21.9314 43.7145 22.1266C43.9464 22.3206 44.1331 22.563 44.2616 22.8367C44.3984 23.1309 44.4671 23.4523 44.4625 23.7768C44.4677 24.1823 44.3433 24.5789 44.1075 24.9089C43.9805 25.0782 43.8128 25.2128 43.62 25.3003C43.4272 25.3877 43.2155 25.4251 43.0044 25.409C42.7728 25.4141 42.5433 25.3644 42.3345 25.2639C42.1504 25.1693 41.9895 25.0351 41.8634 24.8709C41.7366 24.7048 41.6427 24.5161 41.5865 24.3149C41.5293 24.1152 41.5 23.9086 41.4994 23.7008C41.5214 23.4171 41.4423 23.1347 41.2761 22.9037C41.2105 22.8219 41.1272 22.7561 41.0324 22.7112C40.9376 22.6663 40.8339 22.6436 40.7291 22.6447C40.5896 22.6447 40.4525 22.6799 40.3303 22.7471C40.2082 22.8142 40.1049 22.9111 40.0301 23.0287C39.8286 23.311 39.6775 23.626 39.5836 23.9599C39.4734 24.324 39.3986 24.6979 39.3603 25.0763C39.3223 25.4604 39.3022 25.7797 39.3022 26.0342V29.5467C39.291 29.7781 39.3553 30.0069 39.4853 30.1987C39.6172 30.3798 39.7668 30.5473 39.9319 30.6988C40.1552 30.8909 40.2311 31.0561 40.182 31.1968C40.1329 31.3375 39.9431 31.4201 39.6238 31.4201H36.3413C36.0198 31.4201 35.8345 31.3486 35.7831 31.1968C35.7318 31.0449 35.8166 30.8909 36.0332 30.6988C36.1977 30.5468 36.3472 30.3793 36.4798 30.1987C36.6088 30.0064 36.673 29.778 36.6629 29.5467V25.0674C36.6641 24.7826 36.615 24.4999 36.5177 24.2323C36.4302 23.9813 36.2758 23.7589 36.0712 23.5892C35.8791 23.4351 35.7831 23.3145 35.7831 23.2252C35.7831 23.1359 35.8858 23.0399 36.0913 22.9372L38.7194 21.7091C38.7989 21.6758 38.8835 21.6561 38.9695 21.651C39.1928 21.651 39.2955 21.785 39.2955 22.0552L39.3 23.5133Z" fill="white"/>
<path d="M45.5524 31.4203C45.1817 31.4203 44.9964 31.3243 44.9964 31.1322C45.0106 30.9752 45.086 30.83 45.2063 30.7281C45.376 30.5746 45.5335 30.4081 45.6774 30.2301C45.8197 30.0367 45.8907 29.8 45.8784 29.5602V22.2474H44.8825C44.849 22.2518 44.8149 22.2478 44.7833 22.2357C44.7517 22.2236 44.7236 22.2039 44.7016 22.1782C44.6682 22.1381 44.6499 22.0875 44.6499 22.0353C44.6499 21.983 44.6682 21.9325 44.7016 21.8924C44.7239 21.867 44.752 21.8474 44.7835 21.8354C44.815 21.8233 44.849 21.8191 44.8825 21.8231H45.8806V20.135C45.8694 19.649 45.9576 19.1657 46.1396 18.7149C46.2978 18.3411 46.5409 18.0092 46.8497 17.7458C47.1603 17.4928 47.5188 17.3052 47.9036 17.1943C48.3239 17.0695 48.7604 17.0078 49.1987 17.0112C49.5197 17.0045 49.84 17.0436 50.15 17.1273C50.3779 17.1934 50.6016 17.2732 50.8199 17.3662C51.0119 17.4488 51.1771 17.5292 51.3178 17.6074C51.4546 17.6827 51.6083 17.7219 51.7644 17.7212C51.9624 17.7094 52.1554 17.6537 52.3293 17.5582C52.647 17.3876 52.9463 17.1848 53.2225 16.9531C53.2557 16.9213 53.2949 16.8964 53.3379 16.8799C53.3808 16.8634 53.4266 16.8557 53.4726 16.8571C53.5196 16.8556 53.5663 16.8644 53.6095 16.8829C53.6527 16.9015 53.6913 16.9292 53.7227 16.9643C53.7907 17.0478 53.8249 17.1537 53.8187 17.2613V29.5625C53.8094 29.8019 53.8801 30.0376 54.0196 30.2324C54.1583 30.4114 54.3155 30.5753 54.4886 30.7214C54.6111 30.8232 54.6909 30.9675 54.7119 31.1255C54.7119 31.3176 54.5243 31.4136 54.1536 31.4136H50.869C50.4849 31.4136 50.2929 31.3176 50.2929 31.1255C50.3135 30.9674 50.3933 30.823 50.5162 30.7214C50.6854 30.5673 50.8428 30.4009 50.9873 30.2234C51.1296 30.03 51.2006 29.7933 51.1883 29.5535V20.1931C51.1883 19.2702 51.035 18.6047 50.7283 18.1969C50.4216 17.789 50.0949 17.5843 49.748 17.5828C49.571 17.5901 49.3985 17.6412 49.2461 17.7316C49.0937 17.8221 48.9662 17.9489 48.875 18.1008C48.6279 18.4462 48.5036 18.9769 48.5021 19.6929V21.8231H49.5002C49.5337 21.8191 49.5677 21.8233 49.5992 21.8354C49.6307 21.8474 49.6588 21.867 49.6811 21.8924C49.7145 21.9325 49.7328 21.983 49.7328 22.0353C49.7328 22.0875 49.7145 22.1381 49.6811 22.1782C49.6591 22.2039 49.631 22.2236 49.5994 22.2357C49.5678 22.2478 49.5337 22.2518 49.5002 22.2474H48.5021V29.5201C48.4896 29.7724 48.5602 30.0218 48.703 30.2301C48.8405 30.4136 48.9986 30.5807 49.1742 30.7281C49.2945 30.83 49.3699 30.9752 49.3841 31.1322C49.3841 31.3243 49.2054 31.4203 48.8482 31.4203H45.5524Z" fill="white"/>
<path d="M59.8433 31.6124C59.1572 31.6243 58.4767 31.4863 57.8493 31.2083C57.2762 30.9526 56.7628 30.5799 56.3421 30.1141C55.9185 29.6404 55.5949 29.086 55.3909 28.4841C55.1711 27.837 55.0609 27.1578 55.0648 26.4745C55.057 25.7959 55.1673 25.1212 55.3909 24.4804C55.591 23.9036 55.9145 23.3773 56.3386 22.9381C56.7628 22.4988 57.2776 22.1573 57.8471 21.9371C58.483 21.6891 59.1608 21.5663 59.8433 21.5754C60.5297 21.5644 61.2119 21.6849 61.853 21.9304C62.4199 22.1536 62.9334 22.4937 63.3602 22.9286C63.7831 23.37 64.1067 23.8969 64.3092 24.4737C64.5328 25.1145 64.6431 25.7892 64.6352 26.4678C64.6391 27.1511 64.529 27.8303 64.3092 28.4774C64.1059 29.0791 63.7831 29.6336 63.3602 30.1074C62.9386 30.5722 62.4255 30.9447 61.853 31.2016C61.2206 31.482 60.535 31.6222 59.8433 31.6124ZM60.8035 31.0564C61.0745 31.0699 61.3421 30.9912 61.5627 30.8331C61.7622 30.6771 61.9227 30.4768 62.0316 30.2481C62.1491 30.0013 62.2304 29.7389 62.2728 29.4688C62.3161 29.2015 62.3385 28.9313 62.3397 28.6605C62.3344 28.2809 62.3054 27.9021 62.2527 27.5262C62.1905 27.0562 62.101 26.5902 61.9847 26.1306C61.8588 25.6412 61.7045 25.1595 61.5225 24.6881C61.3509 24.2342 61.1324 23.7994 60.8705 23.3908C60.6439 23.0314 60.355 22.7153 60.0175 22.4574C59.711 22.2229 59.3361 22.095 58.9501 22.0934C58.6775 22.0839 58.409 22.1621 58.1843 22.3167C57.9769 22.4668 57.8084 22.6643 57.693 22.8928C57.5687 23.1378 57.4807 23.3996 57.4318 23.6699C57.3816 23.9424 57.3562 24.219 57.3558 24.4961C57.3607 24.8827 57.3928 25.2684 57.4519 25.6505C57.5214 26.1244 57.6206 26.5935 57.7488 27.055C57.8846 27.5476 58.0479 28.0321 58.2378 28.5064C58.4144 28.9586 58.639 29.3906 58.9077 29.7948C59.1402 30.148 59.4326 30.4579 59.7719 30.7103C60.0717 30.9344 60.4358 31.0558 60.8102 31.0564H60.8035Z" fill="white"/>
<path d="M70.0784 28.234L71.2887 25.4562L70.5004 23.6141C70.3743 23.3272 70.2202 23.0535 70.0404 22.7968C69.9054 22.6034 69.7283 22.4431 69.5224 22.3279C69.3549 22.2252 69.2991 22.1046 69.3304 22.0019C69.3616 21.8992 69.4844 21.8277 69.6765 21.8277H73.1487C73.3921 21.8277 73.5305 21.8768 73.5618 21.9728C73.593 22.0689 73.5082 22.1961 73.3028 22.3658C73.2268 22.4293 73.1678 22.5108 73.1311 22.6028C73.0945 22.6948 73.0813 22.7945 73.0929 22.8928C73.1074 23.1293 73.1657 23.3609 73.2648 23.5761L75.3191 28.2385L77.3533 23.5761C77.452 23.3603 77.5131 23.1292 77.5342 22.8928C77.5489 22.7951 77.5381 22.6953 77.5029 22.6029C77.4677 22.5106 77.4092 22.429 77.3332 22.3658C76.9357 22.0086 76.9871 21.8277 77.4873 21.8277H78.7154C78.9074 21.8277 79.0191 21.8858 79.0503 22.0019C79.0838 22.1158 79.0146 22.2252 78.8494 22.3279C78.6412 22.4448 78.4637 22.6093 78.3313 22.808C78.1441 23.0864 77.9834 23.3816 77.8512 23.69L74.4549 31.4628C74.4036 31.628 74.3143 31.7129 74.187 31.7129C74.0597 31.7129 73.9749 31.628 73.899 31.4628L71.5767 26.0703L69.221 31.4583C69.1718 31.6236 69.0803 31.7084 68.953 31.7084C68.8257 31.7084 68.7431 31.6236 68.665 31.4583L65.2687 23.6096C65.1408 23.3236 64.9868 23.05 64.8087 22.7923C64.6736 22.5989 64.4965 22.4386 64.2906 22.3234C64.1232 22.2207 64.0674 22.1001 64.0986 21.9974C64.1299 21.8947 64.2505 21.8232 64.4425 21.8232H67.9169C68.1603 21.8232 68.2965 21.8724 68.33 21.9684C68.3635 22.0644 68.2742 22.1917 68.071 22.3614C67.9948 22.4248 67.9354 22.5061 67.8984 22.5981C67.8614 22.6901 67.8478 22.7898 67.8589 22.8883C67.8753 23.1247 67.9343 23.3562 68.033 23.5716L70.0784 28.234Z" fill="white"/>
<path d="M25.3667 0.000710577C26.5256 0.000710577 27.5996 0.67059 28.5263 1.66201C29.6271 2.85663 30.4488 4.24551 31.3152 5.60314C32.0588 6.76873 32.8046 7.93208 33.796 8.91234C34.0281 9.14103 34.2824 9.34599 34.5552 9.52416C35.464 10.1159 36.3683 10.0199 37.1097 9.22495C37.6508 8.62263 38.1577 7.99047 38.6281 7.33143C39.5704 6.06759 40.497 4.79258 41.4348 3.53544C41.7904 3.04701 42.2044 2.60385 42.6674 2.21578C43.574 1.46775 44.5275 1.58163 45.443 2.40781C46.5594 3.40593 47.2606 4.70103 48.1002 5.90012C48.6584 6.70174 49.2166 7.51452 49.9736 8.13305C51.1057 9.05078 52.115 9.05971 53.2806 8.16654C54.1425 7.49666 54.7788 6.64368 55.3706 5.74604C55.9877 4.78375 56.5534 3.78945 57.0654 2.76731C57.1068 2.64887 57.1936 2.55175 57.3067 2.49731C57.4198 2.44287 57.5498 2.43558 57.6683 2.47703C57.7867 2.51849 57.8838 2.60529 57.9383 2.71836C57.9927 2.83142 58 2.96148 57.9585 3.07992C57.7352 4.04455 57.4673 5.00248 57.177 5.95147C56.6408 7.77899 55.9537 9.55881 55.1227 11.2725C54.5221 12.4761 53.8611 13.6417 52.8898 14.5996C52.5665 14.9542 52.1551 15.2169 51.6974 15.361C51.0588 15.533 50.5318 15.2762 50.0495 14.8854C49.4112 14.3242 48.8583 13.6727 48.4083 12.9517C47.5665 11.708 46.8631 10.3794 46.0168 9.1401C45.6127 8.55061 45.2085 7.95665 44.5922 7.55918C44.0831 7.23318 43.699 7.25327 43.2078 7.61277C42.6248 8.08174 42.1276 8.64839 41.7385 9.28747C40.9749 10.4039 40.3385 11.612 39.6262 12.7686C39.0585 13.7092 38.3351 14.5466 37.487 15.2449C36.7859 15.8121 36.0066 16.1627 35.0732 16.0644C34.2936 15.9592 33.5791 15.5734 33.0636 14.9792C32.2173 14.1017 31.6233 13.0477 31.054 11.9893C30.0246 10.1092 29.0912 8.17771 27.9859 6.34224C27.4274 5.35162 26.7527 4.43111 25.9763 3.6002C25.754 3.36769 25.5043 3.163 25.2327 2.99061C24.4512 2.51053 23.6942 2.65567 23.1382 3.3903C22.5822 4.12494 22.2785 4.99355 22.0217 5.87555C21.9391 6.17253 21.8654 6.47398 21.7984 6.76873C21.7852 6.85657 21.738 6.9357 21.667 6.98914C21.596 7.04258 21.5069 7.06606 21.4188 7.05454C21.3744 7.05711 21.3299 7.05028 21.2882 7.0345C21.2466 7.01872 21.2087 6.99434 21.1771 6.96295C21.1455 6.93156 21.1209 6.89387 21.1048 6.85232C21.0888 6.81078 21.0816 6.76632 21.0839 6.72184C21.0839 4.85287 21.2581 3.0174 22.3589 1.41416C22.9998 0.483024 24.0113 -0.0216187 25.3667 0.000710577Z" fill="white"/>
</svg>
